<?xml version="1.0" encoding="UTF-8" standalone="no"?>
<!DOCTYPE svg PUBLIC "-//W3C//DTD SVG 1.1//EN"
 "http://www.w3.org/Graphics/SVG/1.1/DTD/svg11.dtd">
<!-- Generated by graphviz version 2.38.0 (20140413.2041)
 -->
<!-- Title: G Pages: 1 -->
<svg width="2611pt" height="1771pt"
 viewBox="0.00 0.00 2610.71 1770.60" xmlns="http://www.w3.org/2000/svg" xmlns:xlink="http://www.w3.org/1999/xlink">
<g id="graph0" class="graph" transform="scale(1 1) rotate(0) translate(133.695 1568.93)">
<title>G</title>
<polygon fill="#dae2ff" stroke="none" points="-133.695,201.668 -133.695,-1568.93 2477.02,-1568.93 2477.02,201.668 -133.695,201.668"/>
<polygon fill="#fbb4ae" stroke="#fbb4ae" points="1259.68,-1014.31 1267.62,-1012.67 1387.01,-983.633 1472.48,-1048.32 1496.03,-1066.82 1497.85,-1068.31 1503.78,-1072.9 1522.34,-1087.76 1538.71,-1101.71 1539.08,-1102.05 1483.36,-1179.69 1476.43,-1185.62 1312.19,-1333.71 1300.18,-1384.27 1234.69,-1492.51 1228.3,-1494.24 1106.73,-1485.76 1106.45,-1485.74 1103.83,-1295.52 1103.47,-1295.03 1103.47,-1295.03 1103.83,-1295.52 1106.45,-1485.74 1097.79,-1485.52 1095.12,-1402.62 1087.22,-1295.05 1087.31,-1294.92 1080.28,-1289.67 1072.19,-1289.67 1072.19,-1289.67 1080.28,-1289.67 1087.31,-1294.92 1087.22,-1295.05 1095.12,-1402.62 1097.79,-1485.52 1077.32,-1485.91 1055.02,-1487.33 1044.11,-1488.75 1032.5,-1464.54 1040.32,-1299.84 964.667,-1304.23 958.553,-1285.01 944.721,-1250.03 930.38,-1247.28 920.771,-1245.84 917.314,-1245.46 917.951,-1144.22 923.063,-1139.59 918.543,-1135.57 918.543,-1135.57 923.063,-1139.59 917.951,-1144.22 917.314,-1245.46 920.771,-1245.84 930.38,-1247.28 944.721,-1250.03 958.553,-1285.01 964.667,-1304.23 1040.32,-1299.84 1032.5,-1464.54 1044.11,-1488.75 979.318,-1530.85 899.347,-1553.12 898.204,-1517.66 888.914,-1362.03 885.19,-1359.14 885.19,-1352.4 882.886,-1350.49 874.228,-1245.19 882.708,-1244.75 883.313,-1195.46 883.313,-1195.46 882.708,-1244.75 874.228,-1245.19 882.886,-1350.49 874.098,-1346.71 874.098,-1346.71 882.886,-1350.49 885.19,-1352.4 885.19,-1359.14 888.914,-1362.03 898.204,-1517.66 899.347,-1553.12 891.608,-1555.64 872.23,-1557.35 850.676,-1560.67 842.792,-1562.22 842.447,-1368.5 842.447,-1368.5 842.792,-1562.22 830.421,-1564.93 685.215,-1496.8 708.639,-1451.92 708.816,-1405.19 708.816,-1405.19 708.639,-1451.92 685.215,-1496.8 682.342,-1496.73 677.015,-1496.91 651.769,-1498.69 650.838,-1498.8 630.48,-1494.02 629.603,-1493.85 627.839,-1289.67 621.23,-1289.67 613.973,-1180.5 620.829,-1180.28 621.669,-1076.07 629.063,-1076.07 629.063,-1076.07 621.669,-1076.07 614.819,-1071.04 622.414,-1064.97 616.339,-1026.49 610.604,-879.121 637.105,-885.306 643.877,-886.562 661.966,-889.488 707.972,-894.731 707.572,-717.964 553.592,-759.78 565.441,-801.449 427.721,-815.078 403.125,-812.416 395.579,-818.115 393.784,-820.977 396.823,-823.55 386.245,-926.502 388.417,-820.977 387.95,-820.839 380.869,-820.839 378.297,-935.284 372.349,-821.013 366.345,-821.013 362.58,-873.392 356.37,-821.248 351.292,-821.248 345.25,-898.286 342.217,-820.943 335.853,-820.943 334.193,-821.433 329.457,-821.433 327.906,-819.619 320.373,-815.136 317.472,-764.863 319.73,-686.495 306.078,-688.865 303.558,-689.221 261.684,-669.104 245.654,-662.918 229.506,-658.22 220.909,-656.539 208.087,-654.636 202.269,-654.325 196.866,-563.143 195.628,-563.143 189.91,-558.094 183.075,-556.12 179.74,-500.212 180.081,-476.97 161.937,-476.692 150.044,-475.303 145.012,-474.461 139.3,-473.217 139.3,-473.217 145.012,-474.461 150.044,-475.303 161.937,-476.692 180.081,-476.97 179.74,-500.212 183.075,-556.12 189.91,-558.094 195.628,-563.143 196.866,-563.143 202.269,-654.325 208.087,-654.636 220.909,-656.539 229.506,-658.22 245.654,-662.918 261.684,-669.104 303.558,-689.221 306.078,-688.865 319.73,-686.495 317.472,-764.863 320.373,-815.136 327.906,-819.619 329.457,-821.433 328.795,-822.19 328.795,-822.19 329.457,-821.433 334.193,-821.433 335.853,-820.943 342.217,-820.943 345.25,-898.286 351.292,-821.248 356.37,-821.248 362.58,-873.392 366.345,-821.013 372.349,-821.013 378.297,-935.284 380.869,-820.839 387.95,-820.839 388.417,-820.977 386.245,-926.502 384.224,-959.274 378.559,-952.996 364.126,-938.91 344.774,-922.572 341.574,-920.308 337.785,-917.87 321.596,-906.192 310.982,-900.116 305.157,-897.21 299.321,-894.721 285.265,-889.739 281.256,-888.616 282.346,-821.174 283.005,-820.972 278.263,-752.775 278.211,-723.042 263.639,-739.711 253.652,-748.877 200.756,-750.79 185.725,-759.635 189.321,-763.552 189.321,-763.552 185.725,-759.635 200.756,-750.79 253.652,-748.877 263.639,-739.711 278.211,-723.042 278.263,-752.775 283.005,-820.972 282.346,-821.174 281.256,-888.616 285.265,-889.739 299.321,-894.721 305.157,-897.21 310.982,-900.116 321.596,-906.192 337.785,-917.87 341.574,-920.308 344.774,-922.572 364.126,-938.91 378.559,-952.996 384.224,-959.274 386.707,-962.384 378.915,-969.598 374.829,-972.938 266.578,-956.36 252.791,-960.018 245.427,-955.69 242.019,-950.86 238.862,-950.86 234.922,-1015.62 235.29,-1049.46 219.294,-1059.95 203.748,-1071.97 190.129,-1084.09 174.518,-1099.8 174.756,-999.202 174.756,-999.202 174.518,-1099.8 190.129,-1084.09 203.748,-1071.97 219.294,-1059.95 235.29,-1049.46 234.922,-1015.62 238.862,-950.86 242.019,-950.86 245.427,-955.69 252.791,-960.018 266.578,-956.36 374.829,-972.938 372.838,-974.822 366.223,-980.321 346.825,-995.364 342.672,-998.33 341.127,-999.343 331.036,-1005.38 331.036,-1005.38 341.127,-999.343 342.672,-998.33 346.825,-995.364 366.223,-980.321 372.838,-974.822 374.829,-972.938 378.915,-969.598 386.707,-962.384 384.224,-959.274 386.245,-926.502 396.823,-823.55 393.784,-820.977 395.579,-818.115 403.125,-812.416 427.721,-815.078 565.441,-801.449 553.592,-759.78 707.572,-717.964 707.972,-894.731 661.966,-889.488 643.877,-886.562 637.105,-885.306 610.604,-879.121 616.339,-1026.49 622.414,-1064.97 614.819,-1071.04 621.669,-1076.07 620.829,-1180.28 613.973,-1180.5 621.23,-1289.67 627.839,-1289.67 629.603,-1493.85 620.028,-1492.17 619.939,-1492.16 612.786,-1290.04 612.077,-1290.04 605.494,-1284.78 610.682,-1180.43 604.673,-1180.2 599.321,-1180.21 587.931,-1180.69 589.767,-1075.36 595.372,-1070.56 589.822,-1065.84 518.48,-1057.68 491.918,-950.524 460.709,-956.966 447.019,-959.395 434.085,-960.936 420.761,-962.135 426.833,-1100.1 427.026,-1100.18 422.973,-1162.76 418.25,-1100.57 411.712,-1100.57 410.882,-1100.23 404.263,-1100.23 404.166,-1100.19 401.648,-998.196 395.932,-1099.95 394.712,-1099.95 389.452,-1095.87 389.452,-1095.87 394.712,-1099.95 395.932,-1099.95 401.648,-998.196 404.166,-1100.19 404.263,-1100.23 410.882,-1100.23 411.712,-1100.57 418.25,-1100.57 422.973,-1162.76 427.026,-1100.18 426.833,-1100.1 420.761,-962.135 434.085,-960.936 447.019,-959.395 460.709,-956.966 491.918,-950.524 518.48,-1057.68 589.822,-1065.84 595.372,-1070.56 589.767,-1075.36 587.931,-1180.69 599.321,-1180.21 604.673,-1180.2 610.682,-1180.43 605.494,-1284.78 612.077,-1290.04 612.786,-1290.04 619.939,-1492.16 602.822,-1489.84 576.135,-1486.76 476.906,-1507.08 474.832,-1507.55 467.588,-1509.34 465.478,-1453.77 460.859,-1383.94 460.411,-1314.18 462.328,-1311.74 461.041,-1310.22 461.041,-1310.22 462.328,-1311.74 460.411,-1314.18 460.859,-1383.94 465.478,-1453.77 467.588,-1509.34 438.393,-1518.43 435.542,-1516.82 428.818,-1513.21 304.519,-1455.49 303.742,-1454.55 261.883,-1388.63 243.547,-1312.1 234.058,-1280 209.045,-1261.12 156.414,-1201.44 127.702,-1150.86 122.524,-1148.74 122.688,-1019.92 122.688,-1019.92 122.524,-1148.74 102.158,-1141.38 98.6356,-1140.19 98.1839,-1098.5 96.0258,-1042.18 96.0258,-1042.18 98.1839,-1098.5 98.6356,-1140.19 -28.2157,-1106.02 -70.5923,-1069.56 -105.97,-988.916 -126.707,-946.852 -119.092,-869.89 -116.828,-840.825 -116.949,-840.445 -113.521,-753.321 75.6157,-759.514 99.5427,-765.37 99.5427,-765.37 75.6157,-759.514 -113.521,-753.321 -113.542,-748.68 -118.177,-652.629 -124.92,-636.608 -125.385,-563 66.6224,-563 101.029,-572.214 107.734,-568.263 111.024,-563.189 111.024,-563.189 107.734,-568.263 101.029,-572.214 66.6224,-563 -125.385,-563 -129.695,-495.139 -33.8827,-392.08 -24.5876,-363.287 -15.3665,-347.717 24.4295,-275.986 100.198,-224.281 166.892,-198.817 175.356,-195.371 187.828,-208.804 202.124,-223.503 206.583,-227.646 214.129,-234.303 219.804,-239.92 234.482,-252.895 242.428,-259.492 252.423,-267.252 249.934,-392.795 250.003,-392.821 250.597,-393.706 247.391,-462.617 241.16,-393.144 235.118,-393.144 234.037,-392.731 228.603,-392.731 226.74,-390.689 226.74,-390.689 228.603,-392.731 234.037,-392.731 235.118,-393.144 241.16,-393.144 247.391,-462.617 250.597,-393.706 250.003,-392.821 249.934,-392.795 252.423,-267.252 260.633,-273.178 370.6,-346.572 371.832,-347.455 378.148,-352.302 382.854,-375.957 385.632,-393.21 405.164,-471.22 482.796,-558.407 290.05,-558.722 264.446,-553.945 266.945,-476.973 260.045,-476.91 257.115,-476.734 247.695,-476.685 244.181,-477.055 244.181,-477.055 247.695,-476.685 257.115,-476.734 260.045,-476.91 266.945,-476.973 264.446,-553.945 290.05,-558.722 482.796,-558.407 496.118,-572.229 501.836,-577.944 506.368,-575.304 531.712,-562.14 543.953,-556.046 564.303,-547.644 576.731,-543.039 594.719,-536.756 710.794,-501.194 717.886,-498.719 732.166,-493.426 747.631,-487.03 752.752,-488.874 758.189,-490.611 773.192,-494.805 780.104,-496.599 782.565,-702.114 775.087,-705.842 771.358,-709.576 769.214,-709.576 768.972,-709.513 768.972,-709.513 769.214,-709.576 763.11,-760.837 758.816,-709.648 752.935,-709.648 752.935,-709.648 758.816,-709.648 763.11,-760.837 769.214,-709.576 771.358,-709.576 773.991,-712.246 782.778,-716.9 789.664,-716.9 789.664,-716.9 782.778,-716.9 773.991,-712.246 771.358,-709.576 775.087,-705.842 782.565,-702.114 780.104,-496.599 803.223,-502.133 820.072,-505.143 849.808,-508.066 841.818,-709.14 836.237,-709.14 836.237,-709.14 841.818,-709.14 849.808,-508.066 859.139,-508.795 858.341,-592.601 858.897,-613.228 865.157,-699.621 865.157,-699.621 858.897,-613.228 858.341,-592.601 859.139,-508.795 870.839,-509.002 888.334,-509.682 903.546,-510.914 915.526,-512.138 930.986,-514.368 943.188,-516.643 974.273,-568.682 1053.27,-709.67 1055.19,-712.546 919.2,-886.74 887.329,-925.032 888.55,-926.125 892.565,-929.588 913.869,-948.988 927.511,-959.905 939.746,-968.817 941.787,-970.23 961.773,-983.364 960.073,-1092.16 954.202,-1139.34 948.703,-1139.34 948.141,-1139.51 940.681,-1139.51 939.673,-1139.81 933.916,-1139.81 933.916,-1139.81 939.673,-1139.81 940.681,-1139.51 948.141,-1139.51 948.703,-1139.34 954.202,-1139.34 960.073,-1092.16 961.773,-983.364 976.506,-991.968 1042.78,-1028.22 1096.57,-1019.67 1108.01,-1018.72 1123.19,-1018.05 1124.89,-1018.04 1125.58,-1017.98 1131.45,-1017.74 1138.36,-1017.72 1144.44,-1017.93 1144.64,-1017.93 1147.18,-1018.03 1150.4,-1018.27 1160.56,-1018.66 1161.12,-1018.66 1165.16,-1018.51 1165.93,-1018.55 1182.1,-1018.02 1189.13,-1018.07 1195.02,-1018.55 1197.91,-1018.58 1198.16,-1018.57 1207.93,-1017.94 1209.02,-1017.91 1221.12,-1018.52 1221.6,-1018.53 1226.29,-1018.42 1233.69,-1017.98 1254.29,-1015.23 1259.68,-1014.31 1259.68,-1014.31"/>
<polygon fill="#fed9a6" stroke="#fed9a6" points="371.832,-347.455 370.6,-346.572 260.633,-273.178 252.423,-267.252 242.428,-259.492 234.482,-252.895 219.804,-239.92 214.129,-234.303 206.583,-227.646 202.124,-223.503 187.828,-208.804 175.356,-195.371 179.911,-186.417 248.784,-42.8222 354.927,-23.1101 428.063,42.6039 517.81,76.8923 531.145,80.6391 532.794,81.1895 558.349,90.4133 608.538,150.186 654.455,158.336 724.883,164.742 726.247,164.896 742.313,167.056 749.778,168.384 752.74,168.975 760.495,170.694 777.28,169.421 794.487,169.199 803.654,169.274 835.765,171.559 834.415,132.488 834.415,132.488 835.765,171.559 846.034,172.934 849.869,173.527 852.447,-25.5957 853.103,-25.7937 847.884,-106.267 847.777,-118.624 842.824,-123.915 845.999,-132.99 852.322,-167.203 770.441,-179.441 761.225,-188.795 761.054,-189.089 757.499,-192.325 757.813,-192.62 757.813,-192.62 757.499,-192.325 761.054,-189.089 761.225,-188.795 770.441,-179.441 852.322,-167.203 845.999,-132.99 842.824,-123.915 847.777,-118.624 847.884,-106.267 853.103,-25.7937 852.447,-25.5957 849.869,173.527 850.822,173.695 880.631,179.567 886.599,181.115 903.962,186.357 921.328,191.964 922.612,192.215 922.873,192.272 944.116,197.668 977.447,182.224 1110.2,81.0268 1116.82,80.1741 1130.87,78.6324 1245.26,8.48741 1299.46,-92.252 1105.8,-125.323 1098.75,-132.472 1098.69,-132.585 1098.7,-132.6 1099,-133.201 1095.56,-218.163 1090.15,-133.079 1083.57,-133.079 1081.84,-235.629 1074.96,-133.471 1074.96,-133.471 1081.84,-235.629 1083.57,-133.079 1090.15,-133.079 1095.56,-218.163 1099,-133.201 1098.7,-132.6 1098.69,-132.585 1098.75,-132.472 1105.8,-125.323 1299.46,-92.252 1326.39,-139.721 1334.16,-152.8 1328.12,-158.414 1314.81,-169.98 1305.1,-178.78 1293.93,-187.813 1273.22,-203.262 1126.32,-308.032 1105.99,-290.367 1101.56,-286.027 1096.29,-281.145 1082.71,-269.899 1064,-256.239 1051.71,-248.496 1045.54,-244.917 1044.14,-244.176 1025.49,-235.206 1026.01,-192.416 1022.35,-139.58 1015.63,-139.58 1015.63,-139.58 1022.35,-139.58 1026.01,-192.416 1025.49,-235.206 1009.76,-229.222 1002.24,-227.118 989.746,-224.243 986.52,-223.663 986.52,-223.663 989.746,-224.243 1002.24,-227.118 1009.76,-229.222 1025.49,-235.206 1044.14,-244.176 1045.54,-244.917 1051.71,-248.496 1064,-256.239 1082.71,-269.899 1096.29,-281.145 1101.56,-286.027 1105.99,-290.367 1126.32,-308.032 1117.51,-352.178 1114.75,-368.318 963.686,-498.72 961.895,-500.338 946.817,-513.263 943.188,-516.643 930.986,-514.368 930.478,-405.632 925.755,-315.092 931.334,-309.946 926.392,-305.521 918.918,-303.256 918.918,-303.256 926.392,-305.521 931.334,-309.946 925.755,-315.092 930.478,-405.632 930.986,-514.368 915.526,-512.138 903.546,-510.914 888.334,-509.682 870.839,-509.002 859.139,-508.795 849.808,-508.066 820.072,-505.143 803.223,-502.133 780.104,-496.599 773.192,-494.805 758.189,-490.611 752.752,-488.874 747.631,-487.03 732.166,-493.426 717.886,-498.719 710.794,-501.194 594.719,-536.756 592.576,-465.717 592.576,-465.717 594.719,-536.756 576.731,-543.039 564.303,-547.644 566.202,-377.653 571.86,-331.62 571.86,-331.62 566.202,-377.653 564.303,-547.644 543.953,-556.046 543.978,-535.194 543.978,-535.189 544.095,-440.892 544.095,-440.892 543.978,-535.189 543.978,-535.194 543.953,-556.046 531.712,-562.14 506.368,-575.304 507.658,-506.313 512.405,-392.513 512.405,-392.513 507.658,-506.313 506.368,-575.304 501.836,-577.944 496.118,-572.229 482.796,-558.407 405.164,-471.22 385.632,-393.21 382.854,-375.957 378.148,-352.302 371.832,-347.455 373.809,-221.57 374.776,-219.847 380.345,-219.847 380.469,-219.885 383.856,-276.391 390.136,-220.31 395.17,-220.31 399.562,-265.658 405.59,-219.946 410.872,-219.946 414.55,-297.265 419.612,-225.148 425.84,-226.91 434.212,-224.345 438.953,-219.993 441.758,-219.993 442.793,-220.311 449.735,-220.311 451.039,-219.923 455.256,-219.923 455.256,-219.923 451.039,-219.923 449.735,-220.311 442.793,-220.311 441.758,-219.993 438.953,-219.993 433.823,-215.218 438.302,-123.923 437.801,-123.358 526.393,-121.724 532.832,-114.869 535.274,-117.414 543.926,-120.403 543.926,-120.403 535.274,-117.414 532.832,-114.869 526.393,-121.724 437.801,-123.358 438.302,-123.923 433.823,-215.218 438.953,-219.993 434.212,-224.345 425.84,-226.91 419.612,-225.148 414.55,-297.265 410.872,-219.946 405.59,-219.946 405.406,-219.891 405.406,-219.891 405.59,-219.946 399.562,-265.658 395.17,-220.31 390.136,-220.31 383.856,-276.391 380.469,-219.885 380.345,-219.847 374.776,-219.847 373.809,-221.57 371.832,-347.455 371.832,-347.455"/>
<polygon fill="#ccebc5" stroke="#ccebc5" points="2250.57,-339.358 2256.98,-338.11 2315.06,-325.48 2373.4,-350.516 2471.17,-515.839 2473.02,-520.729 2472.22,-521.74 2332.29,-715.573 2305.01,-729.441 2248.84,-740.578 2246.29,-634.019 2243.89,-594.365 2235.15,-521.772 2229.91,-521.772 2229.91,-521.772 2235.15,-521.772 2243.89,-594.365 2246.29,-634.019 2248.84,-740.578 2224.08,-746.9 2211.99,-750.444 2209.71,-751.198 2193.2,-810.773 2174,-887.307 2157.33,-962.417 2131.17,-992.029 2077.75,-1025.99 2033.22,-1036.23 2010.64,-1032.85 1991.29,-1030.41 1989.73,-1030.26 1987.43,-942.058 1989.41,-855.3 1994.54,-850.715 1989.8,-846.658 1989.8,-846.658 1994.54,-850.715 1989.41,-855.3 1987.43,-942.058 1989.73,-1030.26 1965.28,-1028.92 1861.88,-1028.18 1748.95,-985.004 1586.57,-1097.96 1550.57,-1100.93 1550.91,-829.054 1550.91,-829.054 1550.57,-1100.93 1539.08,-1102.05 1538.71,-1101.71 1537.06,-965.72 1537.49,-940.308 1537.49,-940.308 1537.06,-965.72 1538.71,-1101.71 1522.34,-1087.76 1503.78,-1072.9 1497.85,-1068.31 1496.03,-1066.82 1472.48,-1048.32 1387.01,-983.633 1267.62,-1012.67 1259.68,-1014.31 1254.29,-1015.23 1233.69,-1017.98 1226.29,-1018.42 1221.6,-1018.53 1221.12,-1018.52 1209.02,-1017.91 1209.63,-999.341 1209.63,-999.341 1209.02,-1017.91 1207.93,-1017.94 1198.16,-1018.57 1197.91,-1018.58 1195.02,-1018.55 1189.13,-1018.07 1182.1,-1018.02 1165.93,-1018.55 1165.16,-1018.51 1161.12,-1018.66 1160.56,-1018.66 1150.4,-1018.27 1147.18,-1018.03 1144.64,-1017.93 1144.44,-1017.93 1138.36,-1017.72 1131.45,-1017.74 1125.58,-1017.98 1124.89,-1018.04 1123.19,-1018.05 1108.01,-1018.72 1096.57,-1019.67 1042.78,-1028.22 976.506,-991.968 961.773,-983.364 941.787,-970.23 939.746,-968.817 927.511,-959.905 913.869,-948.988 892.565,-929.588 888.55,-926.125 887.329,-925.032 919.2,-886.74 1055.19,-712.546 1053.27,-709.67 974.273,-568.682 943.188,-516.643 946.817,-513.263 961.895,-500.338 963.686,-498.72 1114.75,-368.318 1117.51,-352.178 1126.32,-308.032 1273.22,-203.262 1293.93,-187.813 1305.1,-178.78 1306.22,-264.323 1306.84,-277.741 1307.73,-381.224 1300.07,-381.224 1294.8,-385.634 1293.69,-385.634 1293.28,-385.462 1293.28,-385.462 1293.69,-385.634 1294.8,-385.634 1300.02,-389.824 1300.02,-389.824 1294.8,-385.634 1300.07,-381.224 1307.73,-381.224 1306.84,-277.741 1306.22,-264.323 1305.1,-178.78 1314.81,-169.98 1328.12,-158.414 1327,-284.389 1327,-284.389 1328.12,-158.414 1334.16,-152.8 1363.41,-159.221 1467.67,-230.667 1562.73,-385.45 1566.46,-391.027 1572.7,-412.583 1629.22,-433.568 1647.24,-439.445 1663.44,-444.36 1663.08,-462.585 1663.77,-650.522 1657.12,-655.825 1656.32,-655.825 1656.08,-656.155 1656.08,-656.155 1656.32,-655.825 1657.12,-655.825 1663.77,-650.522 1663.08,-462.585 1663.44,-444.36 1801.71,-479.97 1906.58,-547.978 1907.15,-550.225 1916.69,-591.076 1873.71,-655.59 1757.81,-847.241 1723.63,-824.29 1669.83,-783.854 1646.98,-767.934 1623.79,-755.737 1629.75,-659.833 1502.17,-666.606 1501.1,-644.518 1500.77,-640.594 1373.68,-663.68 1370.06,-571.866 1364.94,-667.094 1357.94,-667.094 1353.31,-598.957 1353.3,-525.673 1339.67,-526.277 1335.56,-526.208 1327.32,-534.635 1310.11,-551.127 1309.95,-551.262 1299.61,-559.776 1293.13,-564.675 1293.13,-564.675 1299.61,-559.776 1309.95,-551.262 1310.11,-551.127 1327.32,-534.635 1335.56,-526.208 1339.67,-526.277 1353.3,-525.673 1353.31,-598.957 1357.94,-667.094 1356.12,-667.938 1350.55,-667.938 1348.7,-667.083 1346.2,-667.083 1341.31,-662.849 1341.31,-662.849 1346.2,-667.083 1348.7,-667.083 1350.55,-667.938 1356.12,-667.938 1357.94,-667.094 1364.94,-667.094 1370.06,-571.866 1373.68,-663.68 1500.77,-640.594 1501.1,-644.518 1502.17,-666.606 1629.75,-659.833 1623.79,-755.737 1646.98,-767.934 1669.83,-783.854 1723.63,-824.29 1757.81,-847.241 1873.71,-655.59 1916.69,-591.076 1907.15,-550.225 1906.58,-547.978 1951.02,-497.355 2082.3,-341.254 2165.22,-345.899 2179.99,-346.389 2207.9,-345.407 2217.78,-344.609 2234.97,-342.043 2250.57,-339.358 2250.57,-339.358"/>
<polyline fill="none" stroke="#000000" points="-113.542,-748.68 -118.177,-652.629 -124.92,-636.608 -125.385,-563 -129.695,-495.139 -33.8827,-392.08 -24.5876,-363.287 -15.3665,-347.717 24.4295,-275.986 100.198,-224.281 166.892,-198.817 175.356,-195.371 187.828,-208.804 202.124,-223.503 206.583,-227.646 214.129,-234.303 219.804,-239.92 234.482,-252.895 242.428,-259.492 252.423,-267.252 260.633,-273.178 370.6,-346.572 371.832,-347.455 378.148,-352.302 382.854,-375.957 385.632,-393.21 405.164,-471.22 482.796,-558.407 496.118,-572.229 501.836,-577.944 506.368,-575.304 531.712,-562.14 543.953,-556.046 564.303,-547.644 576.731,-543.039 594.719,-536.756 710.794,-501.194 717.886,-498.719 732.166,-493.426 747.631,-487.03 752.752,-488.874 758.189,-490.611 773.192,-494.805 780.104,-496.599 803.223,-502.133 820.072,-505.143 849.808,-508.066 859.139,-508.795 870.839,-509.002 888.334,-509.682 903.546,-510.914 915.526,-512.138 930.986,-514.368 943.188,-516.643 974.273,-568.682 1053.27,-709.67 1055.19,-712.546 919.2,-886.74 887.329,-925.032 888.55,-926.125 892.565,-929.588 913.869,-948.988 927.511,-959.905 939.746,-968.817 941.787,-970.23 961.773,-983.364 976.506,-991.968 1042.78,-1028.22 1096.57,-1019.67 1108.01,-1018.72 1123.19,-1018.05 1124.89,-1018.04 1125.58,-1017.98 1131.45,-1017.74 1138.36,-1017.72 1144.44,-1017.93 1144.64,-1017.93 1147.18,-1018.03 1150.4,-1018.27 1160.56,-1018.66 1161.12,-1018.66 1165.16,-1018.51 1165.93,-1018.55 1182.1,-1018.02 1189.13,-1018.07 1195.02,-1018.55 1197.91,-1018.58 1198.16,-1018.57 1207.93,-1017.94 1209.02,-1017.91 1221.12,-1018.52 1221.6,-1018.53 1226.29,-1018.42 1233.69,-1017.98 1254.29,-1015.23 1259.68,-1014.31 1267.62,-1012.67 1387.01,-983.633 1472.48,-1048.32 1496.03,-1066.82 1497.85,-1068.31 1503.78,-1072.9 1522.34,-1087.76 1538.71,-1101.71 1539.08,-1102.05 1483.36,-1179.69 1476.43,-1185.62 1312.19,-1333.71 1300.18,-1384.27 1234.69,-1492.51 1228.3,-1494.24 1106.73,-1485.76 1106.45,-1485.74 1097.79,-1485.52 1077.32,-1485.91 1055.02,-1487.33 1044.11,-1488.75 979.318,-1530.85 899.347,-1553.12 891.608,-1555.64 872.23,-1557.35 850.676,-1560.67 842.792,-1562.22 830.421,-1564.93 685.215,-1496.8 682.342,-1496.73 677.015,-1496.91 651.769,-1498.69 650.838,-1498.8 630.48,-1494.02 629.603,-1493.85 620.028,-1492.17 619.939,-1492.16 602.822,-1489.84 576.135,-1486.76 476.906,-1507.08 474.832,-1507.55 467.588,-1509.34 438.393,-1518.43 435.542,-1516.82 428.818,-1513.21 304.519,-1455.49 303.742,-1454.55 261.883,-1388.63 243.547,-1312.1 234.058,-1280 209.045,-1261.12 156.414,-1201.44 127.702,-1150.86 122.524,-1148.74 102.158,-1141.38 98.6356,-1140.19 -28.2157,-1106.02 -70.5923,-1069.56 -105.97,-988.916 -126.707,-946.852 -119.092,-869.89 -116.828,-840.825 -116.949,-840.445 -113.521,-753.321 -113.542,-748.68 "/>
<polyline fill="none" stroke="#000000" points="870.839,-509.002 888.334,-509.682 903.546,-510.914 915.526,-512.138 930.986,-514.368 943.188,-516.643 946.817,-513.263 961.895,-500.338 963.686,-498.72 1114.75,-368.318 1117.51,-352.178 1126.32,-308.032 1273.22,-203.262 1293.93,-187.813 1305.1,-178.78 1314.81,-169.98 1328.12,-158.414 1334.16,-152.8 1326.39,-139.721 1299.46,-92.252 1245.26,8.48741 1130.87,78.6324 1116.82,80.1741 1110.2,81.0268 977.447,182.224 944.116,197.668 922.873,192.272 922.612,192.215 921.328,191.964 903.962,186.357 886.599,181.115 880.631,179.567 850.822,173.695 849.869,173.527 846.034,172.934 835.765,171.559 803.654,169.274 794.487,169.199 777.28,169.421 760.495,170.694 752.74,168.975 749.778,168.384 742.313,167.056 726.247,164.896 724.883,164.742 654.455,158.336 608.538,150.186 558.349,90.4133 532.794,81.1895 531.145,80.6391 517.81,76.8923 428.063,42.6039 354.927,-23.1101 248.784,-42.8222 179.911,-186.417 175.356,-195.371 187.828,-208.804 202.124,-223.503 206.583,-227.646 214.129,-234.303 219.804,-239.92 234.482,-252.895 242.428,-259.492 252.423,-267.252 260.633,-273.178 370.6,-346.572 371.832,-347.455 378.148,-352.302 382.854,-375.957 385.632,-393.21 405.164,-471.22 482.796,-558.407 496.118,-572.229 501.836,-577.944 506.368,-575.304 531.712,-562.14 543.953,-556.046 564.303,-547.644 576.731,-543.039 594.719,-536.756 710.794,-501.194 717.886,-498.719 732.166,-493.426 747.631,-487.03 752.752,-488.874 758.189,-490.611 773.192,-494.805 780.104,-496.599 803.223,-502.133 820.072,-505.143 849.808,-508.066 859.139,-508.795 870.839,-509.002 "/>
<polyline fill="none" stroke="#000000" points="1144.44,-1017.93 1138.36,-1017.72 1131.45,-1017.74 1125.58,-1017.98 1124.89,-1018.04 1123.19,-1018.05 1108.01,-1018.72 1096.57,-1019.67 1042.78,-1028.22 976.506,-991.968 961.773,-983.364 941.787,-970.23 939.746,-968.817 927.511,-959.905 913.869,-948.988 892.565,-929.588 888.55,-926.125 887.329,-925.032 919.2,-886.74 1055.19,-712.546 1053.27,-709.67 974.273,-568.682 943.188,-516.643 946.817,-513.263 961.895,-500.338 963.686,-498.72 1114.75,-368.318 1117.51,-352.178 1126.32,-308.032 1273.22,-203.262 1293.93,-187.813 1305.1,-178.78 1314.81,-169.98 1328.12,-158.414 1334.16,-152.8 1363.41,-159.221 1467.67,-230.667 1562.73,-385.45 1566.46,-391.027 1572.7,-412.583 1629.22,-433.568 1647.24,-439.445 1663.44,-444.36 1801.71,-479.97 1906.58,-547.978 1951.02,-497.355 2082.3,-341.254 2165.22,-345.899 2179.99,-346.389 2207.9,-345.407 2217.78,-344.609 2234.97,-342.043 2250.57,-339.358 2256.98,-338.11 2315.06,-325.48 2373.4,-350.516 2471.17,-515.839 2473.02,-520.729 2472.22,-521.74 2332.29,-715.573 2305.01,-729.441 2248.84,-740.578 2224.08,-746.9 2211.99,-750.444 2209.71,-751.198 2193.2,-810.773 2174,-887.307 2157.33,-962.417 2131.17,-992.029 2077.75,-1025.99 2033.22,-1036.23 2010.64,-1032.85 1991.29,-1030.41 1989.73,-1030.26 1965.28,-1028.92 1861.88,-1028.18 1748.95,-985.004 1586.57,-1097.96 1550.57,-1100.93 1539.08,-1102.05 1538.71,-1101.71 1522.34,-1087.76 1503.78,-1072.9 1497.85,-1068.31 1496.03,-1066.82 1472.48,-1048.32 1387.01,-983.633 1267.62,-1012.67 1259.68,-1014.31 1254.29,-1015.23 1233.69,-1017.98 1226.29,-1018.42 1221.6,-1018.53 1221.12,-1018.52 1209.02,-1017.91 1207.93,-1017.94 1198.16,-1018.57 1197.91,-1018.58 1195.02,-1018.55 1189.13,-1018.07 1182.1,-1018.02 1165.93,-1018.55 1165.16,-1018.51 1161.12,-1018.66 1160.56,-1018.66 1150.4,-1018.27 1147.18,-1018.03 1144.64,-1017.93 1144.44,-1017.93 "/>
<!-- nginx&#45;&gt;BASE&#45;RUNTIME -->
<g id="edge1" class="edge"><title>nginx&#45;&gt;BASE&#45;RUNTIME</title>
<path fill="none" stroke="#444444" stroke-opacity="0.333333" d="M241.598,-744.745C339.227,-738.458 491.888,-728.626 610.771,-720.969"/>
<polygon fill="#444444" fill-opacity="0.333333" stroke="#444444" stroke-opacity="0.333333" points="611.323,-724.441 621.077,-720.306 610.873,-717.456 611.323,-724.441"/>
</g>
<!-- nginx&#45;&gt;gperftools&#45;libs -->
<g id="edge2" class="edge"><title>nginx&#45;&gt;gperftools&#45;libs</title>
<path fill="none" stroke="#444444" stroke-opacity="0.333333" d="M152.037,-713.857C158.834,-680.448 168.755,-631.689 175.462,-598.723"/>
<polygon fill="#444444" fill-opacity="0.333333" stroke="#444444" stroke-opacity="0.333333" points="178.954,-599.112 177.519,-588.614 172.095,-597.716 178.954,-599.112"/>
</g>
<!-- nginx&#45;&gt;nginx&#45;mimetypes -->
<g id="edge3" class="edge"><title>nginx&#45;&gt;nginx&#45;mimetypes</title>
<path fill="none" stroke="#444444" stroke-opacity="0.333333" d="M149.428,-788.113C154.276,-824.473 161.613,-879.496 166.386,-915.294"/>
<polygon fill="#444444" fill-opacity="0.333333" stroke="#444444" stroke-opacity="0.333333" points="162.929,-915.847 167.72,-925.297 169.867,-914.922 162.929,-915.847"/>
</g>
<!-- nginx&#45;&gt;nginx&#45;filesystem -->
<g id="edge4" class="edge"><title>nginx&#45;&gt;nginx&#45;filesystem</title>
<path fill="none" stroke="#444444" stroke-opacity="0.333333" d="M235.128,-788.095C238.174,-789.342 241.213,-790.585 244.228,-791.819"/>
<polygon fill="#444444" fill-opacity="0.333333" stroke="#444444" stroke-opacity="0.333333" points="243.177,-795.171 253.758,-795.719 245.828,-788.692 243.177,-795.171"/>
</g>
<!-- gperftools&#45;libs&#45;&gt;BASE&#45;RUNTIME -->
<g id="edge5" class="edge"><title>gperftools&#45;libs&#45;&gt;BASE&#45;RUNTIME</title>
<path fill="none" stroke="#444444" stroke-opacity="0.333333" d="M287.85,-588.548C390.454,-613.485 546.783,-651.478 656.942,-678.251"/>
<polygon fill="#444444" fill-opacity="0.333333" stroke="#444444" stroke-opacity="0.333333" points="656.243,-681.683 666.787,-680.643 657.896,-674.881 656.243,-681.683"/>
</g>
<!-- gperftools&#45;libs&#45;&gt;libunwind -->
<g id="edge6" class="edge"><title>gperftools&#45;libs&#45;&gt;libunwind</title>
<path fill="none" stroke="#444444" stroke-opacity="0.333333" d="M188.087,-537.213C194.382,-506.909 204.82,-456.66 211.552,-424.248"/>
<polygon fill="#444444" fill-opacity="0.333333" stroke="#444444" stroke-opacity="0.333333" points="214.991,-424.903 213.598,-414.4 208.137,-423.479 214.991,-424.903"/>
</g>
<!-- nginx&#45;mimetypes&#45;&gt;BASE&#45;RUNTIME -->
<g id="edge7" class="edge"><title>nginx&#45;mimetypes&#45;&gt;BASE&#45;RUNTIME</title>
<path fill="none" stroke="#444444" stroke-opacity="0.333333" d="M236.364,-925.223C348.762,-881.161 578.748,-791.003 702.679,-742.419"/>
<polygon fill="#444444" fill-opacity="0.333333" stroke="#444444" stroke-opacity="0.333333" points="704.113,-745.617 712.145,-738.709 701.558,-739.1 704.113,-745.617"/>
</g>
<!-- nginx&#45;mimetypes&#45;&gt;nginx&#45;filesystem -->
<g id="edge8" class="edge"><title>nginx&#45;mimetypes&#45;&gt;nginx&#45;filesystem</title>
<path fill="none" stroke="#444444" stroke-opacity="0.333333" d="M199.787,-925.211C222.741,-904.722 255.082,-875.853 279.856,-853.739"/>
<polygon fill="#444444" fill-opacity="0.333333" stroke="#444444" stroke-opacity="0.333333" points="282.483,-856.086 287.612,-846.816 277.821,-850.864 282.483,-856.086"/>
</g>
<!-- nginx&#45;filesystem&#45;&gt;BASE&#45;RUNTIME -->
<g id="edge9" class="edge"><title>nginx&#45;filesystem&#45;&gt;BASE&#45;RUNTIME</title>
<path fill="none" stroke="#444444" stroke-opacity="0.333333" d="M423.753,-795.744C492.076,-779.52 581.011,-758.401 653.688,-741.142"/>
<polygon fill="#444444" fill-opacity="0.333333" stroke="#444444" stroke-opacity="0.333333" points="654.91,-744.449 663.831,-738.734 653.293,-737.639 654.91,-744.449"/>
</g>
<!-- libunwind&#45;&gt;BASE&#45;RUNTIME -->
<g id="edge34" class="edge"><title>libunwind&#45;&gt;BASE&#45;RUNTIME</title>
<path fill="none" stroke="#444444" stroke-opacity="0.333333" d="M255.723,-414.219C351.991,-467.834 607.463,-610.114 725.214,-675.694"/>
<polygon fill="#444444" fill-opacity="0.333333" stroke="#444444" stroke-opacity="0.333333" points="723.692,-678.852 734.131,-680.66 727.098,-672.737 723.692,-678.852"/>
</g>
<!-- dnf&#45;&gt;BASE&#45;RUNTIME -->
<g id="edge10" class="edge"><title>dnf&#45;&gt;BASE&#45;RUNTIME</title>
<path fill="none" stroke="#444444" stroke-opacity="0.333333" d="M865.185,-1318.74C850.52,-1205.63 806.419,-865.466 791.34,-749.163"/>
<polygon fill="#444444" fill-opacity="0.333333" stroke="#444444" stroke-opacity="0.333333" points="794.771,-748.406 790.015,-738.939 787.829,-749.306 794.771,-748.406"/>
</g>
<!-- dnf&#45;&gt;python3&#45;dnf -->
<g id="edge11" class="edge"><title>dnf&#45;&gt;python3&#45;dnf</title>
<path fill="none" stroke="#444444" stroke-opacity="0.333333" d="M876.925,-1318.65C884.431,-1278.44 896.316,-1214.77 903.701,-1175.21"/>
<polygon fill="#444444" fill-opacity="0.333333" stroke="#444444" stroke-opacity="0.333333" points="907.172,-1175.69 905.567,-1165.22 900.291,-1174.4 907.172,-1175.69"/>
</g>
<!-- python3&#45;dnf&#45;&gt;BASE&#45;RUNTIME -->
<g id="edge12" class="edge"><title>python3&#45;dnf&#45;&gt;BASE&#45;RUNTIME</title>
<path fill="none" stroke="#444444" stroke-opacity="0.333333" d="M902.938,-1114.09C882.031,-1041.65 822.377,-834.951 797.416,-748.463"/>
<polygon fill="#444444" fill-opacity="0.333333" stroke="#444444" stroke-opacity="0.333333" points="800.755,-747.408 794.619,-738.771 794.029,-749.35 800.755,-747.408"/>
</g>
<!-- python3&#45;dnf&#45;&gt;python3&#45;libcomps -->
<g id="edge13" class="edge"><title>python3&#45;dnf&#45;&gt;python3&#45;libcomps</title>
<path fill="none" stroke="#444444" stroke-opacity="0.333333" d="M870.307,-1165.33C827.742,-1192.59 760.726,-1235.51 717.567,-1263.15"/>
<polygon fill="#444444" fill-opacity="0.333333" stroke="#444444" stroke-opacity="0.333333" points="715.535,-1260.3 709.002,-1268.64 719.31,-1266.19 715.535,-1260.3"/>
</g>
<!-- python3&#45;dnf&#45;&gt;python3&#45;hawkey -->
<g id="edge14" class="edge"><title>python3&#45;dnf&#45;&gt;python3&#45;hawkey</title>
<path fill="none" stroke="#444444" stroke-opacity="0.333333" d="M937.404,-1113.91C983.625,-1069.87 1077.38,-980.558 1125.16,-935.033"/>
<polygon fill="#444444" fill-opacity="0.333333" stroke="#444444" stroke-opacity="0.333333" points="1127.6,-937.548 1132.42,-928.116 1122.77,-932.48 1127.6,-937.548"/>
</g>
<!-- python3&#45;dnf&#45;&gt;deltarpm -->
<g id="edge15" class="edge"><title>python3&#45;dnf&#45;&gt;deltarpm</title>
<path fill="none" stroke="#444444" stroke-opacity="0.333333" d="M937.687,-1165.31C967.51,-1193.23 1015.09,-1237.77 1045.94,-1266.65"/>
<polygon fill="#444444" fill-opacity="0.333333" stroke="#444444" stroke-opacity="0.333333" points="1043.71,-1269.36 1053.4,-1273.64 1048.49,-1264.25 1043.71,-1269.36"/>
</g>
<!-- python3&#45;dnf&#45;&gt;python3&#45;iniparse -->
<g id="edge16" class="edge"><title>python3&#45;dnf&#45;&gt;python3&#45;iniparse</title>
<path fill="none" stroke="#444444" stroke-opacity="0.333333" d="M1038.97,-1135.14C1039.13,-1135.13 1039.3,-1135.13 1039.47,-1135.12"/>
<polygon fill="#444444" fill-opacity="0.333333" stroke="#444444" stroke-opacity="0.333333" points="1037.07,-1138.71 1046.94,-1134.85 1036.83,-1131.71 1037.07,-1138.71"/>
</g>
<!-- python3&#45;dnf&#45;&gt;dnf&#45;conf -->
<g id="edge17" class="edge"><title>python3&#45;dnf&#45;&gt;dnf&#45;conf</title>
<path fill="none" stroke="#444444" stroke-opacity="0.333333" d="M805.123,-1114.17C775.792,-1107.05 744.198,-1099.38 715.815,-1092.49"/>
<polygon fill="#444444" fill-opacity="0.333333" stroke="#444444" stroke-opacity="0.333333" points="716.461,-1089.05 705.918,-1090.09 714.81,-1095.85 716.461,-1089.05"/>
</g>
<!-- python3&#45;libcomps&#45;&gt;BASE&#45;RUNTIME -->
<g id="edge35" class="edge"><title>python3&#45;libcomps&#45;&gt;BASE&#45;RUNTIME</title>
<path fill="none" stroke="#444444" stroke-opacity="0.333333" d="M680.015,-1268.46C696.348,-1182.53 757.455,-861.014 778.803,-748.694"/>
<polygon fill="#444444" fill-opacity="0.333333" stroke="#444444" stroke-opacity="0.333333" points="782.255,-749.277 780.684,-738.8 775.378,-747.97 782.255,-749.277"/>
</g>
<!-- python3&#45;libcomps&#45;&gt;libcomps -->
<g id="edge36" class="edge"><title>python3&#45;libcomps&#45;&gt;libcomps</title>
<path fill="none" stroke="#444444" stroke-opacity="0.333333" d="M527.856,-1304.61C527.695,-1304.63 527.534,-1304.64 527.374,-1304.66"/>
<polygon fill="#444444" fill-opacity="0.333333" stroke="#444444" stroke-opacity="0.333333" points="529.831,-1300.9 520.229,-1305.38 530.527,-1307.86 529.831,-1300.9"/>
</g>
<!-- python3&#45;hawkey&#45;&gt;BASE&#45;RUNTIME -->
<g id="edge37" class="edge"><title>python3&#45;hawkey&#45;&gt;BASE&#45;RUNTIME</title>
<path fill="none" stroke="#444444" stroke-opacity="0.333333" d="M1115.18,-885.873C1051.59,-851.814 925.827,-784.45 849.556,-743.596"/>
<polygon fill="#444444" fill-opacity="0.333333" stroke="#444444" stroke-opacity="0.333333" points="850.975,-740.385 840.508,-738.749 847.67,-746.556 850.975,-740.385"/>
</g>
<!-- python3&#45;hawkey&#45;&gt;rpm&#45;ostree -->
<g id="edge38" class="edge"><title>python3&#45;hawkey&#45;&gt;rpm&#45;ostree</title>
<path fill="none" stroke="#444444" stroke-opacity="0.333333" d="M1170.8,-885.731C1204.15,-841.981 1280.39,-741.967 1316.93,-694.021"/>
<polygon fill="#444444" fill-opacity="0.333333" stroke="#444444" stroke-opacity="0.333333" points="1319.79,-696.046 1323.07,-685.971 1314.22,-691.802 1319.79,-696.046"/>
</g>
<!-- deltarpm&#45;&gt;BASE&#45;RUNTIME -->
<g id="edge39" class="edge"><title>deltarpm&#45;&gt;BASE&#45;RUNTIME</title>
<path fill="none" stroke="#444444" stroke-opacity="0.333333" d="M1065.52,-1273.63C1022.73,-1187.23 860.949,-860.565 805.222,-748.039"/>
<polygon fill="#444444" fill-opacity="0.333333" stroke="#444444" stroke-opacity="0.333333" points="808.2,-746.165 800.625,-738.757 801.927,-749.272 808.2,-746.165"/>
</g>
<!-- python3&#45;iniparse&#45;&gt;BASE&#45;RUNTIME -->
<g id="edge40" class="edge"><title>python3&#45;iniparse&#45;&gt;BASE&#45;RUNTIME</title>
<path fill="none" stroke="#444444" stroke-opacity="0.333333" d="M1174.54,-1108.49C1109.07,-1041.25 904.864,-831.52 821.849,-746.262"/>
<polygon fill="#444444" fill-opacity="0.333333" stroke="#444444" stroke-opacity="0.333333" points="824.155,-743.613 814.671,-738.89 819.139,-748.496 824.155,-743.613"/>
</g>
<!-- dnf&#45;conf&#45;&gt;BASE&#45;RUNTIME -->
<g id="edge41" class="edge"><title>dnf&#45;conf&#45;&gt;BASE&#45;RUNTIME</title>
<path fill="none" stroke="#444444" stroke-opacity="0.333333" d="M635.067,-1049.37C661.31,-990.391 735.381,-823.924 769.11,-748.124"/>
<polygon fill="#444444" fill-opacity="0.333333" stroke="#444444" stroke-opacity="0.333333" points="772.341,-749.47 773.209,-738.911 765.946,-746.624 772.341,-749.47"/>
</g>
<!-- dnf&#45;conf&#45;&gt;libreport&#45;filesystem -->
<g id="edge42" class="edge"><title>dnf&#45;conf&#45;&gt;libreport&#45;filesystem</title>
<path fill="none" stroke="#444444" stroke-opacity="0.333333" d="M545.564,-1080.49C545.457,-1080.5 545.35,-1080.52 545.243,-1080.53"/>
<polygon fill="#444444" fill-opacity="0.333333" stroke="#444444" stroke-opacity="0.333333" points="544.681,-1077.07 535.185,-1081.77 545.539,-1084.02 544.681,-1077.07"/>
</g>
<!-- httpd&#45;&gt;BASE&#45;RUNTIME -->
<g id="edge18" class="edge"><title>httpd&#45;&gt;BASE&#45;RUNTIME</title>
<path fill="none" stroke="#444444" stroke-opacity="0.333333" d="M729.774,-229.805C740.903,-324.42 770.22,-573.649 781.606,-670.445"/>
<polygon fill="#444444" fill-opacity="0.333333" stroke="#444444" stroke-opacity="0.333333" points="778.133,-670.882 782.778,-680.404 785.085,-670.064 778.133,-670.882"/>
</g>
<!-- httpd&#45;&gt;generic&#45;logos&#45;httpd -->
<g id="edge19" class="edge"><title>httpd&#45;&gt;generic&#45;logos&#45;httpd</title>
<path fill="none" stroke="#444444" stroke-opacity="0.333333" d="M747.635,-155.521C764.802,-126.879 788.369,-87.5588 805.084,-59.6691"/>
<polygon fill="#444444" fill-opacity="0.333333" stroke="#444444" stroke-opacity="0.333333" points="808.115,-61.4204 810.254,-51.0437 802.111,-57.8217 808.115,-61.4204"/>
</g>
<!-- httpd&#45;&gt;httpd&#45;tools -->
<g id="edge20" class="edge"><title>httpd&#45;&gt;httpd&#45;tools</title>
<path fill="none" stroke="#444444" stroke-opacity="0.333333" d="M628.398,-201.48C608.246,-203.321 586.638,-205.295 565.322,-207.242"/>
<polygon fill="#444444" fill-opacity="0.333333" stroke="#444444" stroke-opacity="0.333333" points="564.864,-203.769 555.223,-208.164 565.5,-210.74 564.864,-203.769"/>
</g>
<!-- httpd&#45;&gt;apr -->
<g id="edge21" class="edge"><title>httpd&#45;&gt;apr</title>
<path fill="none" stroke="#444444" stroke-opacity="0.333333" d="M640.533,-155.524C625.988,-149.166 611.242,-142.721 597.799,-136.845"/>
<polygon fill="#444444" fill-opacity="0.333333" stroke="#444444" stroke-opacity="0.333333" points="598.827,-133.474 588.262,-132.676 596.023,-139.888 598.827,-133.474"/>
</g>
<!-- httpd&#45;&gt;mailcap -->
<g id="edge22" class="edge"><title>httpd&#45;&gt;mailcap</title>
<path fill="none" stroke="#444444" stroke-opacity="0.333333" d="M786.179,-229.643C812.362,-245.592 842.628,-264.027 867.584,-279.229"/>
<polygon fill="#444444" fill-opacity="0.333333" stroke="#444444" stroke-opacity="0.333333" points="865.813,-282.248 876.174,-284.461 869.454,-276.27 865.813,-282.248"/>
</g>
<!-- httpd&#45;&gt;httpd&#45;filesystem -->
<g id="edge23" class="edge"><title>httpd&#45;&gt;httpd&#45;filesystem</title>
<path fill="none" stroke="#444444" stroke-opacity="0.333333" d="M822.757,-172.847C842.194,-168.899 862.941,-164.686 883.396,-160.531"/>
<polygon fill="#444444" fill-opacity="0.333333" stroke="#444444" stroke-opacity="0.333333" points="884.304,-163.918 893.407,-158.498 882.911,-157.058 884.304,-163.918"/>
</g>
<!-- httpd&#45;&gt;apr&#45;util -->
<g id="edge24" class="edge"><title>httpd&#45;&gt;apr&#45;util</title>
<path fill="none" stroke="#444444" stroke-opacity="0.333333" d="M677.844,-229.883C650.024,-251.681 615.266,-278.916 588.706,-299.728"/>
<polygon fill="#444444" fill-opacity="0.333333" stroke="#444444" stroke-opacity="0.333333" points="586.455,-297.045 580.743,-305.967 590.773,-302.555 586.455,-297.045"/>
</g>
<!-- generic&#45;logos&#45;httpd&#45;&gt;BASE&#45;RUNTIME -->
<g id="edge25" class="edge"><title>generic&#45;logos&#45;httpd&#45;&gt;BASE&#45;RUNTIME</title>
<path fill="none" stroke="#444444" stroke-opacity="0.333333" d="M824.119,-51.0292C818.15,-154.752 795.723,-544.512 788.486,-670.281"/>
<polygon fill="#444444" fill-opacity="0.333333" stroke="#444444" stroke-opacity="0.333333" points="784.974,-670.407 787.893,-680.591 791.962,-670.809 784.974,-670.407"/>
</g>
<!-- httpd&#45;tools&#45;&gt;BASE&#45;RUNTIME -->
<g id="edge26" class="edge"><title>httpd&#45;tools&#45;&gt;BASE&#45;RUNTIME</title>
<path fill="none" stroke="#444444" stroke-opacity="0.333333" d="M445.457,-245.552C504.933,-326.559 688.988,-577.24 758.899,-672.459"/>
<polygon fill="#444444" fill-opacity="0.333333" stroke="#444444" stroke-opacity="0.333333" points="756.171,-674.658 764.911,-680.647 761.814,-670.515 756.171,-674.658"/>
</g>
<!-- httpd&#45;tools&#45;&gt;apr -->
<g id="edge27" class="edge"><title>httpd&#45;tools&#45;&gt;apr</title>
<path fill="none" stroke="#444444" stroke-opacity="0.333333" d="M454.738,-194.379C470.732,-179.852 490.93,-161.506 508.064,-145.943"/>
<polygon fill="#444444" fill-opacity="0.333333" stroke="#444444" stroke-opacity="0.333333" points="510.645,-148.326 515.694,-139.012 505.939,-143.145 510.645,-148.326"/>
</g>
<!-- httpd&#45;tools&#45;&gt;apr&#45;util -->
<g id="edge28" class="edge"><title>httpd&#45;tools&#45;&gt;apr&#45;util</title>
<path fill="none" stroke="#444444" stroke-opacity="0.333333" d="M454.461,-245.55C471.721,-261.452 494.056,-282.028 512.566,-299.081"/>
<polygon fill="#444444" fill-opacity="0.333333" stroke="#444444" stroke-opacity="0.333333" points="510.512,-301.948 520.239,-306.149 515.255,-296.799 510.512,-301.948"/>
</g>
<!-- apr&#45;&gt;BASE&#45;RUNTIME -->
<g id="edge29" class="edge"><title>apr&#45;&gt;BASE&#45;RUNTIME</title>
<path fill="none" stroke="#444444" stroke-opacity="0.333333" d="M554.389,-138.944C592.534,-232.852 724.827,-558.532 770.539,-671.066"/>
<polygon fill="#444444" fill-opacity="0.333333" stroke="#444444" stroke-opacity="0.333333" points="767.304,-672.403 774.311,-680.351 773.79,-669.769 767.304,-672.403"/>
</g>
<!-- mailcap&#45;&gt;BASE&#45;RUNTIME -->
<g id="edge30" class="edge"><title>mailcap&#45;&gt;BASE&#45;RUNTIME</title>
<path fill="none" stroke="#444444" stroke-opacity="0.333333" d="M909.865,-335.74C887.364,-403.788 825.96,-589.486 799.094,-670.735"/>
<polygon fill="#444444" fill-opacity="0.333333" stroke="#444444" stroke-opacity="0.333333" points="795.659,-669.976 795.842,-680.57 802.305,-672.174 795.659,-669.976"/>
</g>
<!-- httpd&#45;filesystem&#45;&gt;BASE&#45;RUNTIME -->
<g id="edge31" class="edge"><title>httpd&#45;filesystem&#45;&gt;BASE&#45;RUNTIME</title>
<path fill="none" stroke="#444444" stroke-opacity="0.333333" d="M1008.7,-158.513C971.8,-249.921 846.102,-561.32 801.816,-671.033"/>
<polygon fill="#444444" fill-opacity="0.333333" stroke="#444444" stroke-opacity="0.333333" points="798.531,-669.821 798.033,-680.404 805.022,-672.441 798.531,-669.821"/>
</g>
<!-- apr&#45;util&#45;&gt;BASE&#45;RUNTIME -->
<g id="edge32" class="edge"><title>apr&#45;util&#45;&gt;BASE&#45;RUNTIME</title>
<path fill="none" stroke="#444444" stroke-opacity="0.333333" d="M564.131,-357.354C605.248,-422.582 713.863,-594.885 762.307,-671.736"/>
<polygon fill="#444444" fill-opacity="0.333333" stroke="#444444" stroke-opacity="0.333333" points="759.615,-674.028 767.908,-680.621 765.537,-670.295 759.615,-674.028"/>
</g>
<!-- apr&#45;util&#45;&gt;apr -->
<g id="edge33" class="edge"><title>apr&#45;util&#45;&gt;apr</title>
<path fill="none" stroke="#444444" stroke-opacity="0.333333" d="M547.47,-305.765C546.764,-266.838 545.428,-193.139 544.629,-149.105"/>
<polygon fill="#444444" fill-opacity="0.333333" stroke="#444444" stroke-opacity="0.333333" points="548.124,-148.788 544.443,-138.854 541.125,-148.915 548.124,-148.788"/>
</g>
<!-- libcomps&#45;&gt;BASE&#45;RUNTIME -->
<g id="edge43" class="edge"><title>libcomps&#45;&gt;BASE&#45;RUNTIME</title>
<path fill="none" stroke="#444444" stroke-opacity="0.333333" d="M463.328,-1293.41C509.962,-1209.1 701.23,-863.32 765.24,-747.599"/>
<polygon fill="#444444" fill-opacity="0.333333" stroke="#444444" stroke-opacity="0.333333" points="768.377,-749.158 770.155,-738.714 762.252,-745.77 768.377,-749.158"/>
</g>
<!-- rpm&#45;ostree&#45;&gt;BASE&#45;RUNTIME -->
<g id="edge44" class="edge"><title>rpm&#45;ostree&#45;&gt;BASE&#45;RUNTIME</title>
<path fill="none" stroke="#444444" stroke-opacity="0.333333" d="M1256.49,-673.617C1179.33,-679.532 1060.44,-688.647 961.508,-696.232"/>
<polygon fill="#444444" fill-opacity="0.333333" stroke="#444444" stroke-opacity="0.333333" points="961.091,-692.753 951.388,-697.008 961.626,-699.733 961.091,-692.753"/>
</g>
<!-- rpm&#45;ostree&#45;&gt;ostree&#45;libs -->
<g id="edge45" class="edge"><title>rpm&#45;ostree&#45;&gt;ostree&#45;libs</title>
<path fill="none" stroke="#444444" stroke-opacity="0.333333" d="M1358.89,-686.04C1391.77,-714.257 1454.29,-767.909 1491.04,-799.436"/>
<polygon fill="#444444" fill-opacity="0.333333" stroke="#444444" stroke-opacity="0.333333" points="1489.04,-802.333 1498.91,-806.188 1493.6,-797.02 1489.04,-802.333"/>
</g>
<!-- rpm&#45;ostree&#45;&gt;ostree -->
<g id="edge46" class="edge"><title>rpm&#45;ostree&#45;&gt;ostree</title>
<path fill="none" stroke="#444444" stroke-opacity="0.333333" d="M1418.09,-664.335C1473.3,-662.222 1544.9,-659.482 1593.12,-657.637"/>
<polygon fill="#444444" fill-opacity="0.333333" stroke="#444444" stroke-opacity="0.333333" points="1593.48,-661.126 1603.34,-657.246 1593.21,-654.131 1593.48,-661.126"/>
</g>
<!-- rpm&#45;ostree&#45;&gt;bubblewrap -->
<g id="edge47" class="edge"><title>rpm&#45;ostree&#45;&gt;bubblewrap</title>
<path fill="none" stroke="#444444" stroke-opacity="0.333333" d="M1313.53,-648.822C1283.9,-625.529 1233.08,-585.577 1200.4,-559.894"/>
<polygon fill="#444444" fill-opacity="0.333333" stroke="#444444" stroke-opacity="0.333333" points="1202.54,-557.119 1192.51,-553.691 1198.21,-562.622 1202.54,-557.119"/>
</g>
<!-- rpm&#45;ostree&#45;&gt;json&#45;glib -->
<g id="edge48" class="edge"><title>rpm&#45;ostree&#45;&gt;json&#45;glib</title>
<path fill="none" stroke="#444444" stroke-opacity="0.333333" d="M1335.02,-648.929C1329.36,-600.814 1314.13,-471.513 1307.35,-413.865"/>
<polygon fill="#444444" fill-opacity="0.333333" stroke="#444444" stroke-opacity="0.333333" points="1310.79,-413.175 1306.14,-403.653 1303.84,-413.994 1310.79,-413.175"/>
</g>
<!-- libreport&#45;filesystem&#45;&gt;BASE&#45;RUNTIME -->
<g id="edge49" class="edge"><title>libreport&#45;filesystem&#45;&gt;BASE&#45;RUNTIME</title>
<path fill="none" stroke="#444444" stroke-opacity="0.333333" d="M404.272,-1081.72C466.75,-1020.86 666.009,-826.767 749.189,-745.741"/>
<polygon fill="#444444" fill-opacity="0.333333" stroke="#444444" stroke-opacity="0.333333" points="751.676,-748.205 756.397,-738.721 746.791,-743.191 751.676,-748.205"/>
</g>
<!-- ostree&#45;libs&#45;&gt;BASE&#45;RUNTIME -->
<g id="edge50" class="edge"><title>ostree&#45;libs&#45;&gt;BASE&#45;RUNTIME</title>
<path fill="none" stroke="#444444" stroke-opacity="0.333333" d="M1450.31,-813.403C1339.08,-796.029 1118.04,-761.502 961.579,-737.062"/>
<polygon fill="#444444" fill-opacity="0.333333" stroke="#444444" stroke-opacity="0.333333" points="961.789,-733.552 951.368,-735.467 960.708,-740.468 961.789,-733.552"/>
</g>
<!-- ostree&#45;libs&#45;&gt;libsoup -->
<g id="edge51" class="edge"><title>ostree&#45;libs&#45;&gt;libsoup</title>
<path fill="none" stroke="#444444" stroke-opacity="0.333333" d="M1589.66,-828.275C1681.5,-833.53 1841.45,-842.68 1927.15,-847.583"/>
<polygon fill="#444444" fill-opacity="0.333333" stroke="#444444" stroke-opacity="0.333333" points="1927.04,-851.082 1937.22,-848.159 1927.44,-844.094 1927.04,-851.082"/>
</g>
<!-- ostree&#45;&gt;BASE&#45;RUNTIME -->
<g id="edge52" class="edge"><title>ostree&#45;&gt;BASE&#45;RUNTIME</title>
<path fill="none" stroke="#444444" stroke-opacity="0.333333" d="M1603.34,-658.309C1487.48,-665.592 1165.15,-685.852 961.666,-698.642"/>
<polygon fill="#444444" fill-opacity="0.333333" stroke="#444444" stroke-opacity="0.333333" points="961.225,-695.163 951.464,-699.283 961.664,-702.149 961.225,-695.163"/>
</g>
<!-- ostree&#45;&gt;ostree&#45;libs -->
<g id="edge53" class="edge"><title>ostree&#45;&gt;ostree&#45;libs</title>
<path fill="none" stroke="#444444" stroke-opacity="0.333333" d="M1633.05,-673.644C1610.65,-703.499 1565.78,-763.287 1539.81,-797.89"/>
<polygon fill="#444444" fill-opacity="0.333333" stroke="#444444" stroke-opacity="0.333333" points="1536.85,-796.012 1533.64,-806.111 1542.44,-800.213 1536.85,-796.012"/>
</g>
<!-- ostree&#45;&gt;libsoup -->
<g id="edge54" class="edge"><title>ostree&#45;&gt;libsoup</title>
<path fill="none" stroke="#444444" stroke-opacity="0.333333" d="M1677.86,-673.615C1739.45,-709.135 1876.46,-788.143 1944.84,-827.579"/>
<polygon fill="#444444" fill-opacity="0.333333" stroke="#444444" stroke-opacity="0.333333" points="1943.21,-830.681 1953.63,-832.644 1946.71,-824.617 1943.21,-830.681"/>
</g>
<!-- ostree&#45;&gt;glib&#45;networking -->
<g id="edge55" class="edge"><title>ostree&#45;&gt;glib&#45;networking</title>
<path fill="none" stroke="#444444" stroke-opacity="0.333333" d="M1689.85,-645.309C1782.53,-623.279 2001.76,-571.168 2123.85,-542.147"/>
<polygon fill="#444444" fill-opacity="0.333333" stroke="#444444" stroke-opacity="0.333333" points="2124.99,-545.474 2133.91,-539.756 2123.37,-538.663 2124.99,-545.474"/>
</g>
<!-- bubblewrap&#45;&gt;BASE&#45;RUNTIME -->
<g id="edge56" class="edge"><title>bubblewrap&#45;&gt;BASE&#45;RUNTIME</title>
<path fill="none" stroke="#444444" stroke-opacity="0.333333" d="M1129.57,-553.736C1065.82,-582.688 940.075,-639.795 859.737,-676.282"/>
<polygon fill="#444444" fill-opacity="0.333333" stroke="#444444" stroke-opacity="0.333333" points="857.83,-673.304 850.172,-680.626 860.724,-679.677 857.83,-673.304"/>
</g>
<!-- json&#45;glib&#45;&gt;BASE&#45;RUNTIME -->
<g id="edge57" class="edge"><title>json&#45;glib&#45;&gt;BASE&#45;RUNTIME</title>
<path fill="none" stroke="#444444" stroke-opacity="0.333333" d="M1275.05,-403.576C1191.8,-455.707 950.716,-606.667 841.341,-675.155"/>
<polygon fill="#444444" fill-opacity="0.333333" stroke="#444444" stroke-opacity="0.333333" points="839.369,-672.26 832.751,-680.534 843.084,-678.193 839.369,-672.26"/>
</g>
<!-- nginx -->
<g id="node1" class="node"><title>nginx</title>
<text text-anchor="middle" x="144.48" y="-741" font-family="monospace" font-size="40.00" fill="green">nginx</text>
</g>
<!-- BASE&#45;RUNTIME -->
<g id="node2" class="node"><title>BASE&#45;RUNTIME</title>
<text text-anchor="middle" x="786.22" y="-702.17" font-family="monospace" font-size="30.00" fill="#666666">BASE&#45;RUNTIME</text>
</g>
<!-- gperftools&#45;libs -->
<g id="node3" class="node"><title>gperftools&#45;libs</title>
<text text-anchor="middle" x="182.73" y="-557" font-family="monospace" font-size="25.00">gperftools&#45;libs</text>
</g>
<!-- nginx&#45;mimetypes -->
<g id="node4" class="node"><title>nginx&#45;mimetypes</title>
<text text-anchor="middle" x="171.12" y="-944.8" font-family="monospace" font-size="25.00">nginx&#45;mimetypes</text>
</g>
<!-- nginx&#45;filesystem -->
<g id="node5" class="node"><title>nginx&#45;filesystem</title>
<text text-anchor="middle" x="316.22" y="-815.28" font-family="monospace" font-size="25.00">nginx&#45;filesystem</text>
</g>
<!-- libunwind -->
<g id="node6" class="node"><title>libunwind</title>
<text text-anchor="middle" x="218" y="-388.21" font-family="monospace" font-size="20.00" fill="#003380">libunwind</text>
</g>
<!-- dnf -->
<g id="node7" class="node"><title>dnf</title>
<text text-anchor="middle" x="869.99" y="-1345.8" font-family="monospace" font-size="40.00" fill="green">dnf</text>
</g>
<!-- python3&#45;dnf -->
<g id="node8" class="node"><title>python3&#45;dnf</title>
<text text-anchor="middle" x="910.33" y="-1133.7" font-family="monospace" font-size="25.00">python3&#45;dnf</text>
</g>
<!-- python3&#45;libcomps -->
<g id="node9" class="node"><title>python3&#45;libcomps</title>
<text text-anchor="middle" x="675.96" y="-1284.8" font-family="monospace" font-size="20.00" fill="#003380">python3&#45;libcomps</text>
</g>
<!-- python3&#45;hawkey -->
<g id="node10" class="node"><title>python3&#45;hawkey</title>
<text text-anchor="middle" x="1154.6" y="-901.99" font-family="monospace" font-size="20.00" fill="#003380">python3&#45;hawkey</text>
</g>
<!-- deltarpm -->
<g id="node11" class="node"><title>deltarpm</title>
<text text-anchor="middle" x="1076" y="-1289.8" font-family="monospace" font-size="20.00" fill="#003380">deltarpm</text>
</g>
<!-- python3&#45;iniparse -->
<g id="node12" class="node"><title>python3&#45;iniparse</title>
<text text-anchor="middle" x="1195.1" y="-1124.6" font-family="monospace" font-size="20.00" fill="#003380">python3&#45;iniparse</text>
</g>
<!-- dnf&#45;conf -->
<g id="node13" class="node"><title>dnf&#45;conf</title>
<text text-anchor="middle" x="625.62" y="-1065.6" font-family="monospace" font-size="20.00" fill="#003380">dnf&#45;conf</text>
</g>
<!-- httpd -->
<g id="node14" class="node"><title>httpd</title>
<text text-anchor="middle" x="725.4" y="-182.62" font-family="monospace" font-size="40.00" fill="green">httpd</text>
</g>
<!-- generic&#45;logos&#45;httpd -->
<g id="node15" class="node"><title>generic&#45;logos&#45;httpd</title>
<text text-anchor="middle" x="825.59" y="-19.456" font-family="monospace" font-size="25.00">generic&#45;logos&#45;httpd</text>
</g>
<!-- httpd&#45;tools -->
<g id="node16" class="node"><title>httpd&#45;tools</title>
<text text-anchor="middle" x="426.63" y="-213.91" font-family="monospace" font-size="25.00">httpd&#45;tools</text>
</g>
<!-- apr -->
<g id="node17" class="node"><title>apr</title>
<text text-anchor="middle" x="543.98" y="-107.32" font-family="monospace" font-size="25.00">apr</text>
</g>
<!-- mailcap -->
<g id="node18" class="node"><title>mailcap</title>
<text text-anchor="middle" x="918.33" y="-304.14" font-family="monospace" font-size="25.00">mailcap</text>
</g>
<!-- httpd&#45;filesystem -->
<g id="node19" class="node"><title>httpd&#45;filesystem</title>
<text text-anchor="middle" x="1019" y="-126.99" font-family="monospace" font-size="25.00">httpd&#45;filesystem</text>
</g>
<!-- apr&#45;util -->
<g id="node20" class="node"><title>apr&#45;util</title>
<text text-anchor="middle" x="547.94" y="-325.67" font-family="monospace" font-size="25.00">apr&#45;util</text>
</g>
<!-- libcomps -->
<g id="node21" class="node"><title>libcomps</title>
<text text-anchor="middle" x="452.99" y="-1308.3" font-family="monospace" font-size="16.00" fill="#0055d4">libcomps</text>
</g>
<!-- rpm&#45;ostree -->
<g id="node22" class="node"><title>rpm&#45;ostree</title>
<text text-anchor="middle" x="1337.2" y="-663.63" font-family="monospace" font-size="16.00" fill="#0055d4">rpm&#45;ostree</text>
</g>
<!-- libreport&#45;filesystem -->
<g id="node23" class="node"><title>libreport&#45;filesystem</title>
<text text-anchor="middle" x="385.2" y="-1096.5" font-family="monospace" font-size="16.00" fill="#0055d4">libreport&#45;filesystem</text>
</g>
<!-- ostree&#45;libs -->
<g id="node24" class="node"><title>ostree&#45;libs</title>
<text text-anchor="middle" x="1520" y="-820.59" font-family="monospace" font-size="14.00" fill="#2a7fff">ostree&#45;libs</text>
</g>
<!-- ostree -->
<g id="node25" class="node"><title>ostree</title>
<text text-anchor="middle" x="1646.6" y="-651.89" font-family="monospace" font-size="14.00" fill="#2a7fff">ostree</text>
</g>
<!-- bubblewrap -->
<g id="node26" class="node"><title>bubblewrap</title>
<text text-anchor="middle" x="1169.5" y="-531.9" font-family="monospace" font-size="14.00" fill="#2a7fff">bubblewrap</text>
</g>
<!-- json&#45;glib -->
<g id="node27" class="node"><title>json&#45;glib</title>
<text text-anchor="middle" x="1304" y="-381.75" font-family="monospace" font-size="14.00" fill="#2a7fff">json&#45;glib</text>
</g>
<!-- libsoup -->
<g id="node28" class="node"><title>libsoup</title>
<text text-anchor="middle" x="1985.3" y="-847.21" font-family="monospace" font-size="14.00">libsoup</text>
</g>
<!-- glib&#45;networking -->
<g id="node29" class="node"><title>glib&#45;networking</title>
<text text-anchor="middle" x="2209.7" y="-518.04" font-family="monospace" font-size="14.00">glib&#45;networking</text>
</g>
</g>
<script type="text/javascript"><![CDATA[


  document.addEventListener('click', function(e) {
      e = e || window.event;
      var target = e.target || e.srcElement,
          text = target.textContent || text.innerText;   

          // reset all strokes
          var nodes = document.getElementsByClassName("edge");
          for (index = 0, len = nodes.length; index < len; ++index) {
            var title = nodes[index].childNodes[0].innerHTML.split("-&gt;");
              id = nodes[index].id;
              document.getElementById(id).childNodes[2].setAttribute("stroke-width", "1");
              document.getElementById(id).childNodes[2].setAttribute("stroke-opacity", "0.5");
              document.getElementById(id).childNodes[2].setAttribute("stroke", "#444444");
              document.getElementById(id).childNodes[4].setAttribute("stroke-width", "1");
              document.getElementById(id).childNodes[4].setAttribute("stroke-opacity", "0.5");
              document.getElementById(id).childNodes[4].setAttribute("stroke", "#444444");
            }
            // reset text highlight
            pkgs = document.getElementsByClassName("node");
            for (index2 = 0, len2 = pkgs.length; index2 < len2; ++index2) {
                target_id = pkgs[index2].id;
                document.getElementById(target_id).childNodes[2].setAttribute("font-weight", "normal");
            }

          // highlight deps
          var nodes = document.getElementsByClassName("edge");
          for (index = 0, len = nodes.length; index < len; ++index) {
            var title = nodes[index].childNodes[0].innerHTML.split("-&gt;");
            if (title[0] == text) {
              id = nodes[index].id;
              document.getElementById(id).childNodes[2].setAttribute("stroke-width", "5");
              document.getElementById(id).childNodes[2].setAttribute("stroke-opacity", "1");
              document.getElementById(id).childNodes[2].setAttribute("stroke", "#aa3333");
              document.getElementById(id).childNodes[4].setAttribute("stroke-width", "5");
              document.getElementById(id).childNodes[4].setAttribute("stroke-opacity", "1");
              document.getElementById(id).childNodes[4].setAttribute("stroke", "#aa3333");

            }
            if (title[1] == text) {
              id = nodes[index].id;
              document.getElementById(id).childNodes[2].setAttribute("stroke-width", "3");
              document.getElementById(id).childNodes[2].setAttribute("stroke-opacity", "0.7");
              document.getElementById(id).childNodes[2].setAttribute("stroke", "#333377");
              document.getElementById(id).childNodes[4].setAttribute("stroke-width", "3");
              document.getElementById(id).childNodes[4].setAttribute("stroke-opacity", "0.7");
              document.getElementById(id).childNodes[4].setAttribute("stroke", "#333377");
            }

            if (title[0] == text || title[1] == text) {
              pkgs = document.getElementsByClassName("node");
              for (index2 = 0, len2 = pkgs.length; index2 < len2; ++index2) {
                var pkg_name = pkgs[index2].childNodes[0].innerHTML;
                if (pkg_name == title[0] || pkg_name == title[1]) {
                  target_id = pkgs[index2].id;
                  document.getElementById(target_id).childNodes[2].setAttribute("font-weight", "bold");
                }
              }
            }
          }


  }, false);


]]></script>
</svg>
