<?xml version="1.0" encoding="UTF-8" standalone="no"?>
<!DOCTYPE svg PUBLIC "-//W3C//DTD SVG 1.1//EN"
 "http://www.w3.org/Graphics/SVG/1.1/DTD/svg11.dtd">
<!-- Generated by graphviz version 2.38.0 (20140413.2041)
 -->
<!-- Title: G Pages: 1 -->
<svg width="1993pt" height="1616pt"
 viewBox="0.00 0.00 1993.09 1616.03" xmlns="http://www.w3.org/2000/svg" xmlns:xlink="http://www.w3.org/1999/xlink">
<g id="graph0" class="graph" transform="scale(1 1) rotate(0) translate(130.003 1385.18)">
<title>G</title>
<polygon fill="#dae2ff" stroke="none" points="-130.003,230.855 -130.003,-1385.18 1863.08,-1385.18 1863.08,230.855 -130.003,230.855"/>
<polygon fill="#fbb4ae" stroke="#fbb4ae" points="681.222,-45.5197 675.127,-4.97093 651.435,124.975 683.6,156.449 885.974,215.828 892.681,218.083 914.61,225.93 916.92,226.855 927.536,224.635 947.057,220.933 970.66,217.843 984.463,216.577 1005.63,215.461 1004.7,45.6319 998.974,-24.0607 991.624,-19.1686 991.624,-19.1686 998.974,-24.0607 999.711,-25.0992 1000.37,-25.335 1009.74,-25.335 1009.77,-25.3482 1016.74,-25.3482 1017.28,-25.1576 1017.28,-25.1576 1016.74,-25.3482 1009.77,-25.3482 1009.74,-25.335 1000.37,-25.335 999.711,-25.0992 998.974,-24.0607 1004.7,45.6319 1005.63,215.461 1025.36,215.194 1028.26,215.324 1054.09,206.149 1084.67,197.349 1083.88,161.88 1078.82,55.8698 1069.69,-25.2046 1063.38,-25.2046 1056.72,47.1044 1056.72,47.1044 1063.38,-25.2046 1069.69,-25.2046 1078.82,55.8698 1083.88,161.88 1084.67,197.349 1174.39,177.599 1247.82,190.581 1269.38,194.914 1296.99,201.793 1303.21,203.492 1294.19,-20.0129 1284.28,-23.7606 1281.47,-26.8139 1284.36,-30.1379 1284.36,-30.1379 1281.47,-26.8139 1284.28,-23.7606 1294.19,-20.0129 1303.21,203.492 1308.65,205.105 1310.55,205.715 1328.99,212.519 1333.46,211.368 1383,199.731 1465.09,142.891 1564.74,23.8893 1600.87,-16.861 1595.01,-22.9106 1569.68,-47.2856 1553.59,-61.5967 1545.03,-68.8869 1539.65,-73.272 1537.53,-75.119 1524.63,-85.3603 1515.65,-92.1478 1502.2,-101.804 1493.45,-107.756 1493.45,-107.756 1502.2,-101.804 1515.65,-92.1478 1524.63,-85.3603 1537.53,-75.119 1539.65,-73.272 1545.03,-68.8869 1553.59,-61.5967 1569.68,-47.2856 1595.01,-22.9106 1600.87,-16.861 1613.45,-17.9105 1613.92,-17.9416 1617.42,-18.0492 1639.41,-25.0155 1638.49,-84.1818 1638.49,-84.1818 1639.41,-25.0155 1729.46,-50.0149 1859.08,-224.763 1851.06,-290.99 1841.16,-458.519 1818.43,-488.077 1731.65,-569.645 1738.83,-616.786 1713.82,-758.42 1550.58,-758.42 1509.3,-751.417 1499.94,-756.431 1498.36,-758.336 1491.27,-758.336 1491.12,-758.391 1483.65,-758.391 1477.18,-807.485 1471.29,-758.757 1464.1,-758.757 1463.31,-758.471 1454.54,-764.741 1444.9,-764.741 1436.38,-758.744 1436.14,-758.744 1435.83,-758.857 1426.9,-758.857 1426.08,-758.563 1418.34,-758.563 1418.09,-758.653 1418.09,-758.653 1418.34,-758.563 1426.08,-758.563 1426.9,-758.857 1435.83,-758.857 1436.14,-758.744 1436.38,-758.744 1444.9,-764.741 1454.54,-764.741 1463.31,-758.471 1464.1,-758.757 1471.29,-758.757 1477.18,-807.485 1483.65,-758.391 1491.12,-758.391 1491.27,-758.336 1498.36,-758.336 1499.66,-759.922 1499.66,-759.922 1498.36,-758.336 1499.94,-756.431 1509.3,-751.417 1550.58,-758.42 1713.82,-758.42 1704.45,-842.445 1649.88,-931.576 1588.15,-996.584 1584.96,-1013.68 1581.2,-1037.43 1514.18,-1149.51 1358.91,-1227.33 1351.82,-1231.08 1334.02,-1237.25 1326.77,-1234.02 1327.91,-1048.68 1322.29,-978.369 1318.53,-975.255 1318.53,-969.494 1322.41,-966.163 1322.41,-966.163 1318.53,-969.494 1318.53,-975.255 1322.29,-978.369 1327.91,-1048.68 1326.77,-1234.02 1300.83,-1223.81 1103.98,-1151.48 1118.41,-1121.05 1146.09,-1071.04 1165.99,-1039.22 1165.43,-1010.7 1165.43,-1010.7 1165.99,-1039.22 1146.09,-1071.04 1118.41,-1121.05 1119.05,-978.417 1120.12,-960.295 1119.4,-882.191 1129.99,-882.191 1137.72,-876.587 1144.52,-952.871 1149.32,-876.159 1149.28,-876.145 1149.28,-876.145 1149.32,-876.159 1144.52,-952.871 1137.72,-876.587 1129.99,-882.191 1119.4,-882.191 1120.12,-960.295 1119.05,-978.417 1118.41,-1121.05 1103.98,-1151.48 1086.39,-1153.02 1085.49,-1153.11 1051.36,-1158 871.858,-1130.56 863.498,-1112.42 763.155,-884.416 755.424,-867.777 750.549,-857.806 698.097,-838.688 530.028,-638.45 533.532,-564.601 536.575,-519.536 536.66,-516.246 772.675,-508.645 781.398,-398.326 783.545,-338.528 783.732,-315.989 801.786,-518.441 807.517,-518.441 809.092,-517.941 817.706,-517.941 828.919,-373.431 829.72,-402.543 837.97,-516.382 836.182,-518.742 836.353,-518.959 846.504,-525.603 846.504,-525.603 836.353,-518.959 836.182,-518.742 837.97,-516.382 846.75,-510.853 854.393,-510.853 854.393,-510.853 846.75,-510.853 837.97,-516.382 829.72,-402.543 828.919,-373.431 817.706,-517.941 809.092,-517.941 807.517,-518.441 801.786,-518.441 783.732,-315.989 783.545,-338.528 781.398,-398.326 772.675,-508.645 536.66,-516.246 536.713,-505.56 541.821,-391.394 543.38,-367.081 714.209,-244.783 690.731,-116.009 685.126,-78.7147 681.222,-45.5197 681.222,-45.5197"/>
<polygon fill="#fed9a6" stroke="#fed9a6" points="501.298,-1130.38 510.794,-1134.86 510.794,-1134.86 501.298,-1130.38 499.373,-1268.59 501.939,-1375.49 510.428,-1376.95 530.188,-1381.18 531.817,-1380.27 562.862,-1364.6 790.922,-1255.62 862.369,-1144.74 871.858,-1130.56 863.498,-1112.42 763.155,-884.416 755.424,-867.777 750.549,-857.806 698.097,-838.688 679.863,-850.502 380.531,-861.491 371.926,-868.082 369.977,-867.381 362.675,-867.381 361.672,-867.733 354.508,-867.733 354.093,-867.881 343.467,-1028.2 344.316,-867.881 344.215,-867.844 335.724,-867.844 333.007,-936.57 324.738,-867.857 318.368,-867.857 317.198,-867.438 311.864,-867.438 308.119,-863.507 299.571,-860.541 299.571,-860.541 308.119,-863.507 311.864,-867.438 317.198,-867.438 318.368,-867.857 324.738,-867.857 333.007,-936.57 335.724,-867.844 344.215,-867.844 344.316,-867.881 343.467,-1028.2 354.093,-867.881 354.508,-867.733 361.672,-867.733 362.675,-867.381 369.977,-867.381 371.926,-868.082 380.531,-861.491 679.863,-850.502 698.097,-838.688 530.028,-638.45 533.532,-564.601 536.575,-519.536 536.66,-516.246 536.713,-505.56 541.821,-391.394 543.38,-367.081 714.209,-244.783 690.731,-116.009 685.126,-78.7147 681.222,-45.5197 675.127,-4.97093 651.435,124.975 487.219,137.035 462.189,139.391 460.834,139.546 456.161,140.178 454.46,-97.4999 446.192,-97.4999 445.964,-97.4172 445.964,-97.4172 446.192,-97.4999 454.46,-97.4999 456.161,140.178 443.93,142.083 428.582,145.43 405.632,144.611 394.863,144.868 374.315,145.766 344.653,148.831 341.33,149.24 332.662,150.478 331.176,150.749 313.234,145.859 318.534,-97.2478 319.055,-97.4332 326.6,-97.4332 326.6,-97.4332 319.055,-97.4332 318.534,-97.2478 313.234,145.859 311.987,145.545 302.679,143.398 89.0417,42.6166 80.6424,43.1824 90.2843,-213.618 99.2739,-218.185 94.4781,33.3408 116.607,-2.84918 114.896,-89.8448 117.315,-220.412 125.133,-220.412 130.064,-156.948 136.308,-220.328 144.009,-220.328 144.745,-220.589 152.047,-220.589 160.488,-120.514 160.488,-120.514 152.047,-220.589 144.745,-220.589 144.009,-220.328 136.308,-220.328 130.064,-156.948 125.133,-220.412 117.315,-220.412 114.896,-89.8448 116.607,-2.84918 94.4781,33.3408 99.2739,-218.185 90.2843,-213.618 80.6424,43.1824 1.38383,49.9513 -98.9845,-108.078 -126.003,-196.452 -120.704,-220.64 -86.3278,-442.088 -59.0414,-455.989 -47.8335,-473.545 -8.89722,-542.555 68.0933,-686.132 8.41085,-831.379 9.6935,-867.69 7.53156,-947.706 107.932,-1119.06 185.445,-1161.23 214.53,-1132.77 218.953,-1128.6 236.679,-1110.37 243.573,-1103.82 257.458,-1091.64 283.708,-1069.6 281.609,-1012.94 281.609,-1012.94 283.708,-1069.6 257.458,-1091.64 243.573,-1103.82 236.679,-1110.37 218.953,-1128.6 214.53,-1132.77 185.445,-1161.23 217.6,-1242.6 448.677,-1367.62 456.527,-1370.37 462.629,-1370.89 484.469,-1373.24 501.939,-1375.49 499.373,-1268.59 501.298,-1130.38 501.298,-1130.38"/>
<polyline fill="none" stroke="#000000" points="1174.39,177.599 1084.67,197.349 1054.09,206.149 1028.26,215.324 1025.36,215.194 1005.63,215.461 984.463,216.577 970.66,217.843 947.057,220.933 927.536,224.635 916.92,226.855 914.61,225.93 892.681,218.083 885.974,215.828 683.6,156.449 651.435,124.975 675.127,-4.97093 681.222,-45.5197 685.126,-78.7147 690.731,-116.009 714.209,-244.783 543.38,-367.081 541.821,-391.394 536.713,-505.56 536.66,-516.246 536.575,-519.536 533.532,-564.601 530.028,-638.45 698.097,-838.688 750.549,-857.806 755.424,-867.777 763.155,-884.416 863.498,-1112.42 871.858,-1130.56 1051.36,-1158 1085.49,-1153.11 1086.39,-1153.02 1103.98,-1151.48 1300.83,-1223.81 1326.77,-1234.02 1334.02,-1237.25 1351.82,-1231.08 1358.91,-1227.33 1514.18,-1149.51 1581.2,-1037.43 1584.96,-1013.68 1588.15,-996.584 1649.88,-931.576 1704.45,-842.445 1713.82,-758.42 1738.83,-616.786 1731.65,-569.645 1818.43,-488.077 1841.16,-458.519 1851.06,-290.99 1859.08,-224.763 1729.46,-50.0149 1639.41,-25.0155 1617.42,-18.0492 1613.92,-17.9416 1613.45,-17.9105 1600.87,-16.861 1564.74,23.8893 1465.09,142.891 1383,199.731 1333.46,211.368 1328.99,212.519 1310.55,205.715 1308.65,205.105 1303.21,203.492 1296.99,201.793 1269.38,194.914 1247.82,190.581 1174.39,177.599 "/>
<polyline fill="none" stroke="#000000" points="8.41085,-831.379 9.6935,-867.69 7.53156,-947.706 107.932,-1119.06 185.445,-1161.23 217.6,-1242.6 448.677,-1367.62 456.527,-1370.37 462.629,-1370.89 484.469,-1373.24 501.939,-1375.49 510.428,-1376.95 530.188,-1381.18 531.817,-1380.27 562.862,-1364.6 790.922,-1255.62 862.369,-1144.74 871.858,-1130.56 863.498,-1112.42 763.155,-884.416 755.424,-867.777 750.549,-857.806 698.097,-838.688 530.028,-638.45 533.532,-564.601 536.575,-519.536 536.66,-516.246 536.713,-505.56 541.821,-391.394 543.38,-367.081 714.209,-244.783 690.731,-116.009 685.126,-78.7147 681.222,-45.5197 675.127,-4.97093 651.435,124.975 487.219,137.035 462.189,139.391 460.834,139.546 456.161,140.178 443.93,142.083 428.582,145.43 405.632,144.611 394.863,144.868 374.315,145.766 344.653,148.831 341.33,149.24 332.662,150.478 331.176,150.749 313.234,145.859 311.987,145.545 302.679,143.398 89.0417,42.6166 80.6424,43.1824 1.38383,49.9513 -98.9845,-108.078 -126.003,-196.452 -120.704,-220.64 -86.3278,-442.088 -59.0414,-455.989 -47.8335,-473.545 -8.89722,-542.555 68.0933,-686.132 8.41085,-831.379 "/>
<!-- httpd&#45;&gt;BASE&#45;RUNTIME -->
<g id="edge1" class="edge"><title>httpd&#45;&gt;BASE&#45;RUNTIME</title>
<path fill="none" stroke="#444444" stroke-opacity="0.333333" d="M1176.11,-476.023C1131.57,-481.832 1077.36,-488.9 1026.07,-495.588"/>
<polygon fill="#444444" fill-opacity="0.333333" stroke="#444444" stroke-opacity="0.333333" points="1025.32,-492.156 1015.86,-496.92 1026.23,-499.097 1025.32,-492.156"/>
</g>
<!-- httpd&#45;&gt;generic&#45;logos&#45;httpd -->
<g id="edge2" class="edge"><title>httpd&#45;&gt;generic&#45;logos&#45;httpd</title>
<path fill="none" stroke="#444444" stroke-opacity="0.333333" d="M1248.85,-426.015C1194.09,-342.372 1062.21,-140.956 1009.2,-60.0026"/>
<polygon fill="#444444" fill-opacity="0.333333" stroke="#444444" stroke-opacity="0.333333" points="1011.84,-57.6422 1003.43,-51.1933 1005.98,-61.4767 1011.84,-57.6422"/>
</g>
<!-- httpd&#45;&gt;httpd&#45;tools -->
<g id="edge3" class="edge"><title>httpd&#45;&gt;httpd&#45;tools</title>
<path fill="none" stroke="#444444" stroke-opacity="0.333333" d="M1295.48,-500.422C1329.86,-557.898 1395.54,-667.709 1429.04,-723.711"/>
<polygon fill="#444444" fill-opacity="0.333333" stroke="#444444" stroke-opacity="0.333333" points="1426.19,-725.76 1434.32,-732.546 1432.19,-722.167 1426.19,-725.76"/>
</g>
<!-- httpd&#45;&gt;apr -->
<g id="edge4" class="edge"><title>httpd&#45;&gt;apr</title>
<path fill="none" stroke="#444444" stroke-opacity="0.333333" d="M1277.3,-500.354C1287.5,-594.714 1314.38,-843.406 1324.43,-936.412"/>
<polygon fill="#444444" fill-opacity="0.333333" stroke="#444444" stroke-opacity="0.333333" points="1320.96,-936.888 1325.52,-946.454 1327.92,-936.136 1320.96,-936.888"/>
</g>
<!-- httpd&#45;&gt;mailcap -->
<g id="edge5" class="edge"><title>httpd&#45;&gt;mailcap</title>
<path fill="none" stroke="#444444" stroke-opacity="0.333333" d="M1275.1,-426.162C1279.1,-343.353 1288.72,-144.657 1292.66,-63.0695"/>
<polygon fill="#444444" fill-opacity="0.333333" stroke="#444444" stroke-opacity="0.333333" points="1296.17,-62.9668 1293.16,-52.8094 1289.18,-62.6285 1296.17,-62.9668"/>
</g>
<!-- httpd&#45;&gt;httpd&#45;filesystem -->
<g id="edge6" class="edge"><title>httpd&#45;&gt;httpd&#45;filesystem</title>
<path fill="none" stroke="#444444" stroke-opacity="0.333333" d="M1333.8,-426.163C1384.42,-395.046 1455.8,-351.168 1503.35,-321.939"/>
<polygon fill="#444444" fill-opacity="0.333333" stroke="#444444" stroke-opacity="0.333333" points="1505.26,-324.877 1511.94,-316.658 1501.59,-318.913 1505.26,-324.877"/>
</g>
<!-- httpd&#45;&gt;apr&#45;util -->
<g id="edge7" class="edge"><title>httpd&#45;&gt;apr&#45;util</title>
<path fill="none" stroke="#444444" stroke-opacity="0.333333" d="M1259.81,-500.709C1231.26,-579.812 1165.03,-763.284 1137.1,-840.673"/>
<polygon fill="#444444" fill-opacity="0.333333" stroke="#444444" stroke-opacity="0.333333" points="1133.67,-839.842 1133.57,-850.436 1140.26,-842.219 1133.67,-839.842"/>
</g>
<!-- generic&#45;logos&#45;httpd&#45;&gt;BASE&#45;RUNTIME -->
<g id="edge8" class="edge"><title>generic&#45;logos&#45;httpd&#45;&gt;BASE&#45;RUNTIME</title>
<path fill="none" stroke="#444444" stroke-opacity="0.333333" d="M979.472,-51.2669C957.13,-132.397 888.227,-382.604 861.536,-479.526"/>
<polygon fill="#444444" fill-opacity="0.333333" stroke="#444444" stroke-opacity="0.333333" points="858.146,-478.656 858.865,-489.226 864.895,-480.514 858.146,-478.656"/>
</g>
<!-- httpd&#45;tools&#45;&gt;BASE&#45;RUNTIME -->
<g id="edge9" class="edge"><title>httpd&#45;tools&#45;&gt;BASE&#45;RUNTIME</title>
<path fill="none" stroke="#444444" stroke-opacity="0.333333" d="M1385.98,-732.852C1276.66,-689.05 1053.69,-599.718 932.929,-551.337"/>
<polygon fill="#444444" fill-opacity="0.333333" stroke="#444444" stroke-opacity="0.333333" points="933.932,-547.968 923.348,-547.498 931.329,-554.466 933.932,-547.968"/>
</g>
<!-- httpd&#45;tools&#45;&gt;apr -->
<g id="edge10" class="edge"><title>httpd&#45;tools&#45;&gt;apr</title>
<path fill="none" stroke="#444444" stroke-opacity="0.333333" d="M1435.14,-784.206C1413.33,-822.588 1372.28,-894.818 1347.9,-937.704"/>
<polygon fill="#444444" fill-opacity="0.333333" stroke="#444444" stroke-opacity="0.333333" points="1344.72,-936.222 1342.82,-946.646 1350.8,-939.681 1344.72,-936.222"/>
</g>
<!-- httpd&#45;tools&#45;&gt;apr&#45;util -->
<g id="edge11" class="edge"><title>httpd&#45;tools&#45;&gt;apr&#45;util</title>
<path fill="none" stroke="#444444" stroke-opacity="0.333333" d="M1379.17,-783.959C1327.75,-802.551 1258.05,-827.757 1204.53,-847.109"/>
<polygon fill="#444444" fill-opacity="0.333333" stroke="#444444" stroke-opacity="0.333333" points="1203.29,-843.837 1195.07,-850.529 1205.67,-850.42 1203.29,-843.837"/>
</g>
<!-- apr&#45;&gt;BASE&#45;RUNTIME -->
<g id="edge12" class="edge"><title>apr&#45;&gt;BASE&#45;RUNTIME</title>
<path fill="none" stroke="#444444" stroke-opacity="0.333333" d="M1301.26,-946.494C1220.68,-869.922 982.014,-643.114 888.761,-554.495"/>
<polygon fill="#444444" fill-opacity="0.333333" stroke="#444444" stroke-opacity="0.333333" points="891.17,-551.957 881.51,-547.605 886.348,-557.031 891.17,-551.957"/>
</g>
<!-- mailcap&#45;&gt;BASE&#45;RUNTIME -->
<g id="edge13" class="edge"><title>mailcap&#45;&gt;BASE&#45;RUNTIME</title>
<path fill="none" stroke="#444444" stroke-opacity="0.333333" d="M1271.18,-52.894C1197.66,-134.313 969.849,-386.615 884.003,-481.69"/>
<polygon fill="#444444" fill-opacity="0.333333" stroke="#444444" stroke-opacity="0.333333" points="881.21,-479.56 877.106,-489.328 886.406,-484.251 881.21,-479.56"/>
</g>
<!-- httpd&#45;filesystem&#45;&gt;BASE&#45;RUNTIME -->
<g id="edge14" class="edge"><title>httpd&#45;filesystem&#45;&gt;BASE&#45;RUNTIME</title>
<path fill="none" stroke="#444444" stroke-opacity="0.333333" d="M1474.78,-316.529C1346.03,-358.192 1091.06,-440.697 950.182,-486.287"/>
<polygon fill="#444444" fill-opacity="0.333333" stroke="#444444" stroke-opacity="0.333333" points="949.091,-482.961 940.655,-489.37 951.246,-489.621 949.091,-482.961"/>
</g>
<!-- apr&#45;util&#45;&gt;BASE&#45;RUNTIME -->
<g id="edge15" class="edge"><title>apr&#45;util&#45;&gt;BASE&#45;RUNTIME</title>
<path fill="none" stroke="#444444" stroke-opacity="0.333333" d="M1104.63,-850.397C1056.93,-788.008 934.924,-628.438 879.268,-555.646"/>
<polygon fill="#444444" fill-opacity="0.333333" stroke="#444444" stroke-opacity="0.333333" points="881.991,-553.446 873.137,-547.627 876.43,-557.697 881.991,-553.446"/>
</g>
<!-- apr&#45;util&#45;&gt;apr -->
<g id="edge16" class="edge"><title>apr&#45;util&#45;&gt;apr</title>
<path fill="none" stroke="#444444" stroke-opacity="0.333333" d="M1178.7,-901.739C1208.42,-915.732 1245.08,-932.998 1274.67,-946.934"/>
<polygon fill="#444444" fill-opacity="0.333333" stroke="#444444" stroke-opacity="0.333333" points="1273.47,-950.24 1284.01,-951.334 1276.46,-943.907 1273.47,-950.24"/>
</g>
<!-- nginx&#45;&gt;BASE&#45;RUNTIME -->
<g id="edge17" class="edge"><title>nginx&#45;&gt;BASE&#45;RUNTIME</title>
<path fill="none" stroke="#444444" stroke-opacity="0.333333" d="M351.419,-496.684C438.979,-500.498 569.814,-506.198 675.604,-510.807"/>
<polygon fill="#444444" fill-opacity="0.333333" stroke="#444444" stroke-opacity="0.333333" points="675.619,-514.311 685.762,-511.249 675.923,-507.317 675.619,-514.311"/>
</g>
<!-- nginx&#45;&gt;gperftools&#45;libs -->
<g id="edge18" class="edge"><title>nginx&#45;&gt;gperftools&#45;libs</title>
<path fill="none" stroke="#444444" stroke-opacity="0.333333" d="M258.676,-529.456C267.319,-601.563 286.318,-760.054 294.882,-831.501"/>
<polygon fill="#444444" fill-opacity="0.333333" stroke="#444444" stroke-opacity="0.333333" points="291.45,-832.281 296.116,-841.793 298.401,-831.448 291.45,-832.281"/>
</g>
<!-- nginx&#45;&gt;nginx&#45;mimetypes -->
<g id="edge19" class="edge"><title>nginx&#45;&gt;nginx&#45;mimetypes</title>
<path fill="none" stroke="#444444" stroke-opacity="0.333333" d="M242.857,-455.226C226.809,-402.748 197.737,-307.679 181.978,-256.148"/>
<polygon fill="#444444" fill-opacity="0.333333" stroke="#444444" stroke-opacity="0.333333" points="185.283,-254.987 179.012,-246.448 178.589,-257.034 185.283,-254.987"/>
</g>
<!-- nginx&#45;&gt;nginx&#45;filesystem -->
<g id="edge20" class="edge"><title>nginx&#45;&gt;nginx&#45;filesystem</title>
<path fill="none" stroke="#444444" stroke-opacity="0.333333" d="M267.528,-455.265C294.683,-379.278 356.213,-207.1 382.829,-132.621"/>
<polygon fill="#444444" fill-opacity="0.333333" stroke="#444444" stroke-opacity="0.333333" points="386.276,-133.375 386.345,-122.78 379.684,-131.019 386.276,-133.375"/>
</g>
<!-- gperftools&#45;libs&#45;&gt;BASE&#45;RUNTIME -->
<g id="edge21" class="edge"><title>gperftools&#45;libs&#45;&gt;BASE&#45;RUNTIME</title>
<path fill="none" stroke="#444444" stroke-opacity="0.333333" d="M339.78,-842.009C437.403,-780.198 685.532,-623.093 796.151,-553.054"/>
<polygon fill="#444444" fill-opacity="0.333333" stroke="#444444" stroke-opacity="0.333333" points="798.253,-555.866 804.83,-547.559 794.509,-549.951 798.253,-555.866"/>
</g>
<!-- gperftools&#45;libs&#45;&gt;libunwind -->
<g id="edge22" class="edge"><title>gperftools&#45;libs&#45;&gt;libunwind</title>
<path fill="none" stroke="#444444" stroke-opacity="0.333333" d="M320.301,-893.661C360.042,-942.622 445.779,-1048.25 487.389,-1099.51"/>
<polygon fill="#444444" fill-opacity="0.333333" stroke="#444444" stroke-opacity="0.333333" points="484.893,-1101.99 493.913,-1107.55 490.328,-1097.58 484.893,-1101.99"/>
</g>
<!-- nginx&#45;mimetypes&#45;&gt;BASE&#45;RUNTIME -->
<g id="edge23" class="edge"><title>nginx&#45;mimetypes&#45;&gt;BASE&#45;RUNTIME</title>
<path fill="none" stroke="#444444" stroke-opacity="0.333333" d="M229.365,-246.159C352.336,-300.037 638.363,-425.355 775.224,-485.319"/>
<polygon fill="#444444" fill-opacity="0.333333" stroke="#444444" stroke-opacity="0.333333" points="773.854,-488.54 784.418,-489.347 776.663,-482.128 773.854,-488.54"/>
</g>
<!-- nginx&#45;mimetypes&#45;&gt;nginx&#45;filesystem -->
<g id="edge24" class="edge"><title>nginx&#45;mimetypes&#45;&gt;nginx&#45;filesystem</title>
<path fill="none" stroke="#444444" stroke-opacity="0.333333" d="M217.61,-195.061C253.259,-175.447 302.574,-148.314 340.239,-127.59"/>
<polygon fill="#444444" fill-opacity="0.333333" stroke="#444444" stroke-opacity="0.333333" points="341.986,-130.624 349.06,-122.737 338.611,-124.491 341.986,-130.624"/>
</g>
<!-- nginx&#45;filesystem&#45;&gt;BASE&#45;RUNTIME -->
<g id="edge25" class="edge"><title>nginx&#45;filesystem&#45;&gt;BASE&#45;RUNTIME</title>
<path fill="none" stroke="#444444" stroke-opacity="0.333333" d="M423.288,-122.908C501.148,-194.941 721.563,-398.858 811.686,-482.235"/>
<polygon fill="#444444" fill-opacity="0.333333" stroke="#444444" stroke-opacity="0.333333" points="809.51,-484.99 819.227,-489.212 814.263,-479.851 809.51,-484.99"/>
</g>
<!-- libunwind&#45;&gt;BASE&#45;RUNTIME -->
<g id="edge26" class="edge"><title>libunwind&#45;&gt;BASE&#45;RUNTIME</title>
<path fill="none" stroke="#444444" stroke-opacity="0.333333" d="M522.697,-1107.6C572.24,-1018.64 765.189,-672.194 829.688,-556.383"/>
<polygon fill="#444444" fill-opacity="0.333333" stroke="#444444" stroke-opacity="0.333333" points="832.833,-557.93 834.641,-547.491 826.717,-554.524 832.833,-557.93"/>
</g>
<!-- httpd -->
<g id="node1" class="node"><title>httpd</title>
<text text-anchor="middle" x="1273.3" y="-453.35" font-family="monospace" font-size="40.00" fill="green">httpd</text>
</g>
<!-- BASE&#45;RUNTIME -->
<g id="node2" class="node"><title>BASE&#45;RUNTIME</title>
<text text-anchor="middle" x="850.82" y="-510.94" font-family="monospace" font-size="30.00" fill="#666666">BASE&#45;RUNTIME</text>
</g>
<!-- generic&#45;logos&#45;httpd -->
<g id="node3" class="node"><title>generic&#45;logos&#45;httpd</title>
<text text-anchor="middle" x="986.58" y="-19.456" font-family="monospace" font-size="25.00">generic&#45;logos&#45;httpd</text>
</g>
<!-- httpd&#45;tools -->
<g id="node4" class="node"><title>httpd&#45;tools</title>
<text text-anchor="middle" x="1449.8" y="-752.42" font-family="monospace" font-size="25.00">httpd&#45;tools</text>
</g>
<!-- apr -->
<g id="node5" class="node"><title>apr</title>
<text text-anchor="middle" x="1328.3" y="-966.19" font-family="monospace" font-size="25.00">apr</text>
</g>
<!-- mailcap -->
<g id="node6" class="node"><title>mailcap</title>
<text text-anchor="middle" x="1294.4" y="-21.173" font-family="monospace" font-size="25.00">mailcap</text>
</g>
<!-- httpd&#45;filesystem -->
<g id="node7" class="node"><title>httpd&#45;filesystem</title>
<text text-anchor="middle" x="1553.7" y="-284.99" font-family="monospace" font-size="25.00">httpd&#45;filesystem</text>
</g>
<!-- apr&#45;util -->
<g id="node8" class="node"><title>apr&#45;util</title>
<text text-anchor="middle" x="1124.3" y="-870.12" font-family="monospace" font-size="25.00">apr&#45;util</text>
</g>
<!-- nginx -->
<g id="node9" class="node"><title>nginx</title>
<text text-anchor="middle" x="254.24" y="-482.45" font-family="monospace" font-size="40.00" fill="green">nginx</text>
</g>
<!-- gperftools&#45;libs -->
<g id="node10" class="node"><title>gperftools&#45;libs</title>
<text text-anchor="middle" x="299.22" y="-861.69" font-family="monospace" font-size="25.00">gperftools&#45;libs</text>
</g>
<!-- nginx&#45;mimetypes -->
<g id="node11" class="node"><title>nginx&#45;mimetypes</title>
<text text-anchor="middle" x="171.12" y="-214.64" font-family="monospace" font-size="25.00">nginx&#45;mimetypes</text>
</g>
<!-- nginx&#45;filesystem -->
<g id="node12" class="node"><title>nginx&#45;filesystem</title>
<text text-anchor="middle" x="395.49" y="-91.191" font-family="monospace" font-size="25.00">nginx&#45;filesystem</text>
</g>
<!-- libunwind -->
<g id="node13" class="node"><title>libunwind</title>
<text text-anchor="middle" x="511" y="-1123.6" font-family="monospace" font-size="20.00" fill="#003380">libunwind</text>
</g>
</g>
</svg>
