<?xml version="1.0" encoding="UTF-8" standalone="no"?>
<!DOCTYPE svg PUBLIC "-//W3C//DTD SVG 1.1//EN"
 "http://www.w3.org/Graphics/SVG/1.1/DTD/svg11.dtd">
<!-- Generated by graphviz version 2.38.0 (20140413.2041)
 -->
<!-- Title: G Pages: 1 -->
<svg width="1980pt" height="1870pt"
 viewBox="0.00 0.00 1979.70 1870.00" xmlns="http://www.w3.org/2000/svg" xmlns:xlink="http://www.w3.org/1999/xlink">
<g id="graph0" class="graph" transform="scale(1 1) rotate(0) translate(204.806 1633.18)">
<title>G</title>
<polygon fill="#dae2ff" stroke="none" points="-204.806,236.824 -204.806,-1633.18 1774.9,-1633.18 1774.9,236.824 -204.806,236.824"/>
<polygon fill="#fed9a6" stroke="#fed9a6" points="559.411,-636.822 576.752,-699.99 583.617,-730.7 652.359,-941.072 662.183,-938.58 697.078,-930.279 696.009,-820.816 698.75,-660.174 698.75,-660.174 696.009,-820.816 697.078,-930.279 710.671,-927.483 725.421,-924.923 736.891,-923.3 751.683,-921.445 772.936,-919.464 774.099,-919.374 801.078,-918.591 804.559,-918.602 807.132,-918.526 816.149,-918.404 819.438,-715.819 825.613,-659.6 827.134,-659.6 831.174,-664.963 831.174,-664.963 827.134,-659.6 825.613,-659.6 819.438,-715.819 816.149,-918.404 823.843,-918.546 839.892,-918.319 852.868,-918.552 880.192,-917.256 968.596,-910.175 921.037,-659.64 921.034,-658.249 1002.36,-639.367 1006.58,-634.773 1009.2,-633.723 1014.43,-748.222 1015.74,-892.254 1031.4,-885.813 1041.3,-882.102 1043.75,-789.4 1044.65,-772.179 1055.77,-637.264 1062.3,-639.121 1069.64,-636.951 1069.64,-636.951 1062.3,-639.121 1055.77,-637.264 1044.65,-772.179 1043.75,-789.4 1041.3,-882.102 1031.4,-885.813 1015.74,-892.254 1014.43,-748.222 1009.2,-633.723 1006.58,-634.773 1002.36,-639.367 921.034,-658.249 921.037,-659.64 968.596,-910.175 973.812,-911.338 1023.1,-1066.34 1027.94,-1083.37 1047.63,-1162.23 1054.22,-1185.42 1097.29,-1320.86 1110.85,-1322.98 1196.34,-1312.94 1209.63,-1311.61 1214.24,-1311.23 1224.31,-1310.74 1240.01,-1310.26 1241.37,-1234.96 1240.59,-1137.01 1235.44,-1075.19 1237.18,-1074.53 1232.95,-1026.27 1235.28,-867.661 1248.1,-874.453 1262.7,-881.435 1267.93,-883.8 1282.69,-890.095 1297.51,-895.279 1305.69,-897.929 1321.49,-902.641 1323.01,-903.054 1340.52,-906.927 1403.87,-919.3 1404.33,-756.687 1375.69,-750.81 1243.39,-750.81 1284.85,-632.04 1188.91,-632.04 1188.91,-632.04 1284.85,-632.04 1243.39,-750.81 1375.69,-750.81 1404.33,-756.687 1403.87,-919.3 1340.52,-906.927 1323.01,-903.054 1321.49,-902.641 1305.69,-897.929 1297.51,-895.279 1282.69,-890.095 1267.93,-883.8 1262.7,-881.435 1248.1,-874.453 1235.28,-867.661 1232.95,-1026.27 1237.18,-1074.53 1235.44,-1075.19 1240.59,-1137.01 1241.37,-1234.96 1240.01,-1310.26 1272.15,-1310.93 1259.18,-1078.04 1267.21,-1080.93 1267.21,-1080.93 1259.18,-1078.04 1272.15,-1310.93 1273.82,-1310.99 1288.21,-1312.29 1299.21,-1312 1306.25,-1312.05 1307.54,-1312.08 1323.47,-1312.74 1325.23,-1136.52 1325.23,-1136.52 1323.47,-1312.74 1349.24,-1314.7 1442.9,-1323.43 1527.5,-1236.07 1564.04,-1134.09 1576.02,-1103.04 1590.49,-1011.06 1713.33,-926.487 1770.9,-764.417 1769.8,-750.81 1763.13,-554.813 1703.02,-496.774 1533.15,-540.336 1535.95,-745.085 1528.51,-749.538 1526.19,-692.197 1532.28,-540.541 1500.59,-546.731 1497.82,-547.101 1488.99,-750.464 1481.46,-750.464 1481.32,-750.27 1474.02,-745.231 1466.45,-745.231 1459,-750.549 1458.84,-750.795 1458.85,-750.817 1466.07,-756.038 1466.07,-756.038 1458.85,-750.817 1458.84,-750.795 1459,-750.549 1466.45,-745.231 1458.47,-550.656 1455.63,-550.804 1443.88,-550.932 1432.1,-551.31 1431.12,-551.301 1428.16,-551.338 1420.09,-551.106 1406.88,-551.286 1402.52,-551.167 1389.38,-551.363 1387.52,-413.803 1381.88,-351.757 1381.88,-351.757 1387.52,-413.803 1389.38,-551.363 1402.52,-551.167 1406.88,-551.286 1420.09,-551.106 1428.16,-551.338 1431.12,-551.301 1430.75,-351.736 1423.4,-351.736 1419.19,-420.899 1414.02,-351.697 1413.82,-351.697 1407.14,-356.571 1407.14,-356.571 1413.82,-351.697 1414.02,-351.697 1419.19,-420.899 1423.4,-351.736 1430.75,-351.736 1431.12,-551.301 1432.1,-551.31 1443.88,-550.932 1455.63,-550.804 1458.47,-550.656 1466.45,-745.231 1474.02,-745.231 1481.32,-750.27 1481.46,-750.464 1488.99,-750.464 1497.82,-547.101 1500.59,-546.731 1532.28,-540.541 1526.19,-692.197 1528.51,-749.538 1535.95,-745.085 1533.15,-540.336 1703.02,-496.774 1701.65,-478.369 1687.08,-412.135 1664.13,-295.803 1643.52,-176.284 1519.02,-70.142 1432.63,-75.0577 1411.17,-75.3099 1401.55,-75.1331 1371.81,-73.6904 1144.21,137.046 1119.75,136.929 1104.16,137.081 1091.65,131.523 1082.08,127.609 1062.4,120.236 1052.42,116.847 885.157,62.9145 898.185,-93.1476 901.276,-151.912 901.645,-169.61 902.872,-182.668 908.93,-382.34 985.962,-391.055 1014.72,-393.826 1031.2,-394.856 1055,-395.135 1056.37,-233.301 1052.71,-166.36 1052.71,-166.36 1056.37,-233.301 1055,-395.135 1031.2,-394.856 1014.72,-393.826 985.962,-391.055 908.93,-382.34 881.775,-397.31 841.034,-404.965 822.438,-407.833 799.442,-410.605 789.001,-411.334 773.607,-412.149 766.19,-412.291 746.825,-412.988 746.192,-412.968 738.39,-412.851 722.643,-412.35 717.078,-412.359 706.219,-412.741 703.211,-412.644 687.53,-412.924 684.816,-412.881 673.072,-412.89 654.76,-413.519 637.914,-414.661 624.805,-415.989 597.807,-419.628 486.373,-436.497 559.411,-636.822 559.411,-636.822"/>
<polygon fill="#bbd7d9" stroke="#bbd7d9" points="338.944,213.474 358.635,214.152 370.544,215.012 372.418,-13.5595 364.419,-13.5595 359.332,-18.405 364.025,-22.8551 364.025,-22.8551 359.332,-18.405 364.419,-13.5595 372.418,-13.5595 370.544,215.012 379.868,215.861 394.934,217.518 407.008,219.073 500.193,232.824 626.428,85.0999 629.327,84.2604 649.485,79.1178 660.848,76.6119 685.46,72.0322 700.652,69.9932 726.713,67.3939 730.754,67.0609 732.973,66.9164 753.146,66.6446 871.539,67.0895 885.157,62.9145 898.185,-93.1476 901.276,-151.912 901.645,-169.61 902.872,-182.668 908.93,-382.34 881.775,-397.31 841.034,-404.965 822.438,-407.833 799.442,-410.605 789.001,-411.334 773.607,-412.149 766.19,-412.291 746.825,-412.988 746.192,-412.968 738.39,-412.851 722.643,-412.35 717.078,-412.359 706.219,-412.741 703.211,-412.644 687.53,-412.924 684.816,-412.881 673.072,-412.89 654.76,-413.519 637.914,-414.661 624.805,-415.989 597.807,-419.628 486.373,-436.497 474.532,-433.533 447.814,-426.074 440.602,-423.959 437.757,-423.084 427.531,-419.647 420.204,-417.079 405.278,-411.635 399.089,-409.289 378.994,-401.097 373.682,-398.781 345.196,-385.949 321.016,-374.036 256.275,-374.777 189.343,-264.251 93.7181,-20.2766 93.6536,-18.385 88.3495,54.9435 201.824,169.662 272.787,213.659 337.177,213.446 338.944,213.474 338.944,213.474"/>
<polygon fill="#fbb4ae" stroke="#fbb4ae" points="37.8686,-878.885 37.2731,-859.838 37.2731,-859.838 37.8686,-878.885 45.8675,-751.616 52.9836,-754.547 61.1198,-751.159 62.6016,-749.408 60.6424,-746.984 60.6424,-746.984 62.6016,-749.408 61.1198,-751.159 52.9836,-754.547 45.8675,-751.616 37.8686,-878.885 37.848,-1078.07 47.7368,-1082.53 74.4419,-1095.35 88.7632,-1102.43 146.154,-1131.57 232.221,-1076.16 341.955,-1055.18 347.787,-833.521 346.288,-736.543 354.695,-732.061 355.743,-730.797 354.308,-729.035 354.308,-729.035 355.743,-730.797 361.782,-730.797 362.32,-730.607 369.032,-730.607 369.3,-730.513 376.231,-730.513 376.862,-730.284 376.862,-730.284 376.231,-730.513 369.3,-730.513 369.032,-730.607 362.32,-730.607 361.782,-730.797 355.743,-730.797 354.695,-732.061 346.288,-736.543 347.787,-833.521 341.955,-1055.18 360.87,-1052.04 381.012,-1048.96 384.286,-1048.5 409.482,-1045.92 418.332,-1045.35 449.792,-1044.14 463.081,-1044.13 470.504,-1043.83 503.568,-1043.36 511.665,-1042.93 512.638,-1042.87 523.355,-1041.88 652.359,-941.072 583.617,-730.7 576.752,-699.99 559.411,-636.822 486.373,-436.497 474.532,-433.533 472.131,-510.77 472.131,-510.77 474.532,-433.533 447.814,-426.074 440.602,-423.959 437.757,-423.084 427.531,-419.647 420.204,-417.079 405.278,-411.635 399.089,-409.289 378.994,-401.097 373.682,-398.781 345.196,-385.949 321.016,-374.036 256.275,-374.777 189.145,-440.894 91.8093,-476.538 60.3893,-487.534 33.1339,-495.714 -62.1656,-519.546 -165.365,-609.458 -193.235,-658.229 -192.918,-749.19 -200.806,-954.651 -197.16,-961.893 -119.729,-1013.54 37.848,-1078.07 37.8686,-878.885 37.8686,-878.885"/>
<polygon fill="#d8d6da" stroke="#d8d6da" points="146.686,-1432.01 135.134,-1395.37 127.413,-1372.05 132.381,-1316.13 146.154,-1131.57 232.221,-1076.16 341.955,-1055.18 360.87,-1052.04 381.012,-1048.96 384.286,-1048.5 409.482,-1045.92 418.332,-1045.35 449.792,-1044.14 463.081,-1044.13 470.504,-1043.83 503.568,-1043.36 511.665,-1042.93 512.638,-1042.87 523.355,-1041.88 548.231,-1078.98 551.147,-1082.94 570.766,-1107.98 589.714,-1131.36 590.504,-1132.3 590.809,-1132.65 590.809,-1132.65 590.504,-1132.3 589.714,-1131.36 570.766,-1107.98 551.147,-1082.94 548.231,-1078.98 523.355,-1041.88 652.359,-941.072 662.183,-938.58 697.078,-930.279 710.671,-927.483 725.421,-924.923 736.891,-923.3 751.683,-921.445 772.936,-919.464 774.099,-919.374 801.078,-918.591 804.559,-918.602 807.132,-918.526 816.149,-918.404 823.843,-918.546 839.892,-918.319 852.868,-918.552 880.192,-917.256 968.596,-910.175 973.812,-911.338 1023.1,-1066.34 1027.94,-1083.37 1047.63,-1162.23 878.994,-1168.55 872.608,-1173.73 870.705,-1173.73 870.022,-1173.47 863.64,-1173.47 863.64,-1173.47 870.022,-1173.47 870.705,-1173.73 872.608,-1173.73 878.994,-1168.55 1047.63,-1162.23 1054.22,-1185.42 1097.29,-1320.86 872.816,-1455.53 866.746,-1459.42 864.761,-1464.24 818.841,-1543.29 594.835,-1596.65 576.449,-1602.04 559.51,-1607.93 556.593,-1608.3 541.788,-1610.68 527.282,-1613.24 528.679,-1440.46 525.009,-1357.82 533.466,-1361.44 541.1,-1358.33 542.675,-1356.4 548.688,-1356.4 555.809,-1555.96 556.952,-1356.21 557.057,-1356.16 557.057,-1356.16 556.952,-1356.21 555.809,-1555.96 548.688,-1356.4 542.675,-1356.4 541.08,-1354.22 541.08,-1354.22 542.675,-1356.4 541.1,-1358.33 533.466,-1361.44 525.009,-1357.82 528.679,-1440.46 527.282,-1613.24 519.203,-1614.94 497.389,-1619.87 489.231,-1622.12 466.42,-1629.18 458.586,-1626.88 374.568,-1604.99 373.292,-1604.31 146.686,-1432.01 146.686,-1432.01"/>
<polyline fill="none" stroke="#000000" points="1082.08,127.609 1062.4,120.236 1052.42,116.847 885.157,62.9145 898.185,-93.1476 901.276,-151.912 901.645,-169.61 902.872,-182.668 908.93,-382.34 881.775,-397.31 841.034,-404.965 822.438,-407.833 799.442,-410.605 789.001,-411.334 773.607,-412.149 766.19,-412.291 746.825,-412.988 746.192,-412.968 738.39,-412.851 722.643,-412.35 717.078,-412.359 706.219,-412.741 703.211,-412.644 687.53,-412.924 684.816,-412.881 673.072,-412.89 654.76,-413.519 637.914,-414.661 624.805,-415.989 597.807,-419.628 486.373,-436.497 559.411,-636.822 576.752,-699.99 583.617,-730.7 652.359,-941.072 662.183,-938.58 697.078,-930.279 710.671,-927.483 725.421,-924.923 736.891,-923.3 751.683,-921.445 772.936,-919.464 774.099,-919.374 801.078,-918.591 804.559,-918.602 807.132,-918.526 816.149,-918.404 823.843,-918.546 839.892,-918.319 852.868,-918.552 880.192,-917.256 968.596,-910.175 973.812,-911.338 1023.1,-1066.34 1027.94,-1083.37 1047.63,-1162.23 1054.22,-1185.42 1097.29,-1320.86 1110.85,-1322.98 1196.34,-1312.94 1209.63,-1311.61 1214.24,-1311.23 1224.31,-1310.74 1240.01,-1310.26 1272.15,-1310.93 1273.82,-1310.99 1288.21,-1312.29 1299.21,-1312 1306.25,-1312.05 1307.54,-1312.08 1323.47,-1312.74 1349.24,-1314.7 1442.9,-1323.43 1527.5,-1236.07 1564.04,-1134.09 1576.02,-1103.04 1590.49,-1011.06 1713.33,-926.487 1770.9,-764.417 1769.8,-750.81 1763.13,-554.813 1703.02,-496.774 1701.65,-478.369 1687.08,-412.135 1664.13,-295.803 1643.52,-176.284 1519.02,-70.142 1432.63,-75.0577 1411.17,-75.3099 1401.55,-75.1331 1371.81,-73.6904 1144.21,137.046 1119.75,136.929 1104.16,137.081 1091.65,131.523 1082.08,127.609 "/>
<polyline fill="none" stroke="#000000" points="673.072,-412.89 654.76,-413.519 637.914,-414.661 624.805,-415.989 597.807,-419.628 486.373,-436.497 474.532,-433.533 447.814,-426.074 440.602,-423.959 437.757,-423.084 427.531,-419.647 420.204,-417.079 405.278,-411.635 399.089,-409.289 378.994,-401.097 373.682,-398.781 345.196,-385.949 321.016,-374.036 256.275,-374.777 189.343,-264.251 93.7181,-20.2766 93.6536,-18.385 88.3495,54.9435 201.824,169.662 272.787,213.659 337.177,213.446 338.944,213.474 358.635,214.152 370.544,215.012 379.868,215.861 394.934,217.518 407.008,219.073 500.193,232.824 626.428,85.0999 629.327,84.2604 649.485,79.1178 660.848,76.6119 685.46,72.0322 700.652,69.9932 726.713,67.3939 730.754,67.0609 732.973,66.9164 753.146,66.6446 871.539,67.0895 885.157,62.9145 898.185,-93.1476 901.276,-151.912 901.645,-169.61 902.872,-182.668 908.93,-382.34 881.775,-397.31 841.034,-404.965 822.438,-407.833 799.442,-410.605 789.001,-411.334 773.607,-412.149 766.19,-412.291 746.825,-412.988 746.192,-412.968 738.39,-412.851 722.643,-412.35 717.078,-412.359 706.219,-412.741 703.211,-412.644 687.53,-412.924 684.816,-412.881 673.072,-412.89 "/>
<polyline fill="none" stroke="#000000" points="409.482,-1045.92 418.332,-1045.35 449.792,-1044.14 463.081,-1044.13 470.504,-1043.83 503.568,-1043.36 511.665,-1042.93 512.638,-1042.87 523.355,-1041.88 652.359,-941.072 583.617,-730.7 576.752,-699.99 559.411,-636.822 486.373,-436.497 474.532,-433.533 447.814,-426.074 440.602,-423.959 437.757,-423.084 427.531,-419.647 420.204,-417.079 405.278,-411.635 399.089,-409.289 378.994,-401.097 373.682,-398.781 345.196,-385.949 321.016,-374.036 256.275,-374.777 189.145,-440.894 91.8093,-476.538 60.3893,-487.534 33.1339,-495.714 -62.1656,-519.546 -165.365,-609.458 -193.235,-658.229 -192.918,-749.19 -200.806,-954.651 -197.16,-961.893 -119.729,-1013.54 37.848,-1078.07 47.7368,-1082.53 74.4419,-1095.35 88.7632,-1102.43 146.154,-1131.57 232.221,-1076.16 341.955,-1055.18 360.87,-1052.04 381.012,-1048.96 384.286,-1048.5 409.482,-1045.92 "/>
<polyline fill="none" stroke="#000000" points="839.892,-918.319 852.868,-918.552 880.192,-917.256 968.596,-910.175 973.812,-911.338 1023.1,-1066.34 1027.94,-1083.37 1047.63,-1162.23 1054.22,-1185.42 1097.29,-1320.86 872.816,-1455.53 866.746,-1459.42 864.761,-1464.24 818.841,-1543.29 594.835,-1596.65 576.449,-1602.04 559.51,-1607.93 556.593,-1608.3 541.788,-1610.68 527.282,-1613.24 519.203,-1614.94 497.389,-1619.87 489.231,-1622.12 466.42,-1629.18 458.586,-1626.88 374.568,-1604.99 373.292,-1604.31 146.686,-1432.01 135.134,-1395.37 127.413,-1372.05 132.381,-1316.13 146.154,-1131.57 232.221,-1076.16 341.955,-1055.18 360.87,-1052.04 381.012,-1048.96 384.286,-1048.5 409.482,-1045.92 418.332,-1045.35 449.792,-1044.14 463.081,-1044.13 470.504,-1043.83 503.568,-1043.36 511.665,-1042.93 512.638,-1042.87 523.355,-1041.88 652.359,-941.072 662.183,-938.58 697.078,-930.279 710.671,-927.483 725.421,-924.923 736.891,-923.3 751.683,-921.445 772.936,-919.464 774.099,-919.374 801.078,-918.591 804.559,-918.602 807.132,-918.526 816.149,-918.404 823.843,-918.546 839.892,-918.319 "/>
<!-- dnf&#45;&gt;BASE&#45;RUNTIME -->
<g id="edge1" class="edge"><title>dnf&#45;&gt;BASE&#45;RUNTIME</title>
<path fill="none" stroke="#444444" stroke-opacity="0.333333" d="M1057.03,-190.208C998.092,-283.75 844.379,-527.727 785.083,-621.844"/>
<polygon fill="#444444" fill-opacity="0.333333" stroke="#444444" stroke-opacity="0.333333" points="782.015,-620.147 779.646,-630.474 787.938,-623.879 782.015,-620.147"/>
</g>
<!-- dnf&#45;&gt;python3&#45;dnf -->
<g id="edge2" class="edge"><title>dnf&#45;&gt;python3&#45;dnf</title>
<path fill="none" stroke="#444444" stroke-opacity="0.333333" d="M1079.12,-190.145C1075.78,-280.038 1067.3,-508.173 1064.02,-596.423"/>
<polygon fill="#444444" fill-opacity="0.333333" stroke="#444444" stroke-opacity="0.333333" points="1060.52,-596.35 1063.65,-606.474 1067.52,-596.61 1060.52,-596.35"/>
</g>
<!-- python3&#45;dnf&#45;&gt;BASE&#45;RUNTIME -->
<g id="edge3" class="edge"><title>python3&#45;dnf&#45;&gt;BASE&#45;RUNTIME</title>
<path fill="none" stroke="#444444" stroke-opacity="0.333333" d="M933.992,-643.825C933.832,-643.84 933.672,-643.854 933.512,-643.869"/>
<polygon fill="#444444" fill-opacity="0.333333" stroke="#444444" stroke-opacity="0.333333" points="935.928,-640.133 926.289,-644.53 936.566,-647.104 935.928,-640.133"/>
</g>
<!-- python3&#45;dnf&#45;&gt;python3&#45;pygpgme -->
<g id="edge4" class="edge"><title>python3&#45;dnf&#45;&gt;python3&#45;pygpgme</title>
<path fill="none" stroke="#444444" stroke-opacity="0.333333" d="M1150.35,-657.592C1220.78,-678.126 1319,-706.759 1387.94,-726.857"/>
<polygon fill="#444444" fill-opacity="0.333333" stroke="#444444" stroke-opacity="0.333333" points="1387.31,-730.32 1397.89,-729.759 1389.27,-723.6 1387.31,-730.32"/>
</g>
<!-- python3&#45;dnf&#45;&gt;python3&#45;libcomps -->
<g id="edge5" class="edge"><title>python3&#45;dnf&#45;&gt;python3&#45;libcomps</title>
<path fill="none" stroke="#444444" stroke-opacity="0.333333" d="M1041.71,-606.519C976.159,-526.809 775.488,-282.802 706.213,-198.566"/>
<polygon fill="#444444" fill-opacity="0.333333" stroke="#444444" stroke-opacity="0.333333" points="708.795,-196.195 699.74,-190.694 703.388,-200.641 708.795,-196.195"/>
</g>
<!-- python3&#45;dnf&#45;&gt;python3&#45;hawkey -->
<g id="edge6" class="edge"><title>python3&#45;dnf&#45;&gt;python3&#45;hawkey</title>
<path fill="none" stroke="#444444" stroke-opacity="0.333333" d="M934.118,-651.414C823.309,-668.111 663.599,-692.175 549.238,-709.407"/>
<polygon fill="#444444" fill-opacity="0.333333" stroke="#444444" stroke-opacity="0.333333" points="548.376,-705.997 539.01,-710.948 549.419,-712.919 548.376,-705.997"/>
</g>
<!-- python3&#45;dnf&#45;&gt;deltarpm -->
<g id="edge7" class="edge"><title>python3&#45;dnf&#45;&gt;deltarpm</title>
<path fill="none" stroke="#444444" stroke-opacity="0.333333" d="M1093.78,-606.387C1157.63,-553.694 1303.07,-433.66 1369.09,-379.173"/>
<polygon fill="#444444" fill-opacity="0.333333" stroke="#444444" stroke-opacity="0.333333" points="1371.63,-381.617 1377.11,-372.553 1367.17,-376.218 1371.63,-381.617"/>
</g>
<!-- python3&#45;dnf&#45;&gt;python3&#45;iniparse -->
<g id="edge8" class="edge"><title>python3&#45;dnf&#45;&gt;python3&#45;iniparse</title>
<path fill="none" stroke="#444444" stroke-opacity="0.333333" d="M1074.59,-657.764C1110.09,-734.575 1215.23,-962.031 1253.37,-1044.56"/>
<polygon fill="#444444" fill-opacity="0.333333" stroke="#444444" stroke-opacity="0.333333" points="1250.31,-1046.27 1257.68,-1053.88 1256.67,-1043.34 1250.31,-1046.27"/>
</g>
<!-- python3&#45;dnf&#45;&gt;dnf&#45;conf -->
<g id="edge9" class="edge"><title>python3&#45;dnf&#45;&gt;dnf&#45;conf</title>
<path fill="none" stroke="#444444" stroke-opacity="0.333333" d="M1052.24,-657.801C1015.82,-747.553 894.574,-1046.28 855.274,-1143.11"/>
<polygon fill="#444444" fill-opacity="0.333333" stroke="#444444" stroke-opacity="0.333333" points="851.934,-1142.04 851.416,-1152.62 858.42,-1144.67 851.934,-1142.04"/>
</g>
<!-- python3&#45;pygpgme&#45;&gt;BASE&#45;RUNTIME -->
<g id="edge10" class="edge"><title>python3&#45;pygpgme&#45;&gt;BASE&#45;RUNTIME</title>
<path fill="none" stroke="#444444" stroke-opacity="0.333333" d="M1330.48,-732.852C1217.6,-718.333 1058.04,-697.81 936.562,-682.186"/>
<polygon fill="#444444" fill-opacity="0.333333" stroke="#444444" stroke-opacity="0.333333" points="936.774,-678.685 926.409,-680.88 935.881,-685.627 936.774,-678.685"/>
</g>
<!-- python3&#45;libcomps&#45;&gt;BASE&#45;RUNTIME -->
<g id="edge11" class="edge"><title>python3&#45;libcomps&#45;&gt;BASE&#45;RUNTIME</title>
<path fill="none" stroke="#444444" stroke-opacity="0.333333" d="M685.789,-190.666C697.879,-265.786 739.02,-521.395 754.923,-620.203"/>
<polygon fill="#444444" fill-opacity="0.333333" stroke="#444444" stroke-opacity="0.333333" points="751.513,-621.046 756.558,-630.363 758.424,-619.934 751.513,-621.046"/>
</g>
<!-- python3&#45;libcomps&#45;&gt;libcomps -->
<g id="edge12" class="edge"><title>python3&#45;libcomps&#45;&gt;libcomps</title>
<path fill="none" stroke="#444444" stroke-opacity="0.333333" d="M638.709,-148.583C580.284,-120.465 477.053,-70.7824 416.408,-41.5959"/>
<polygon fill="#444444" fill-opacity="0.333333" stroke="#444444" stroke-opacity="0.333333" points="417.583,-38.277 407.054,-37.0941 414.547,-44.5845 417.583,-38.277"/>
</g>
<!-- python3&#45;hawkey&#45;&gt;BASE&#45;RUNTIME -->
<g id="edge13" class="edge"><title>python3&#45;hawkey&#45;&gt;BASE&#45;RUNTIME</title>
<path fill="none" stroke="#444444" stroke-opacity="0.333333" d="M512.502,-709.668C542.195,-703.697 575.167,-697.066 607.137,-690.637"/>
<polygon fill="#444444" fill-opacity="0.333333" stroke="#444444" stroke-opacity="0.333333" points="607.909,-694.052 617.022,-688.649 606.529,-687.189 607.909,-694.052"/>
</g>
<!-- python3&#45;hawkey&#45;&gt;hawkey -->
<g id="edge14" class="edge"><title>python3&#45;hawkey&#45;&gt;hawkey</title>
<path fill="none" stroke="#444444" stroke-opacity="0.333333" d="M276.781,-737.532C222.01,-740.386 160.911,-743.569 116.417,-745.888"/>
<polygon fill="#444444" fill-opacity="0.333333" stroke="#444444" stroke-opacity="0.333333" points="116.137,-742.397 106.333,-746.413 116.501,-749.388 116.137,-742.397"/>
</g>
<!-- deltarpm&#45;&gt;BASE&#45;RUNTIME -->
<g id="edge15" class="edge"><title>deltarpm&#45;&gt;BASE&#45;RUNTIME</title>
<path fill="none" stroke="#444444" stroke-opacity="0.333333" d="M1358.96,-372.419C1249.55,-424.994 963.787,-562.32 830.984,-626.139"/>
<polygon fill="#444444" fill-opacity="0.333333" stroke="#444444" stroke-opacity="0.333333" points="829.188,-623.118 821.691,-630.604 832.22,-629.428 829.188,-623.118"/>
</g>
<!-- python3&#45;iniparse&#45;&gt;BASE&#45;RUNTIME -->
<g id="edge16" class="edge"><title>python3&#45;iniparse&#45;&gt;BASE&#45;RUNTIME</title>
<path fill="none" stroke="#444444" stroke-opacity="0.333333" d="M1241.61,-1053.74C1160.01,-986.794 906.918,-779.138 804.724,-695.292"/>
<polygon fill="#444444" fill-opacity="0.333333" stroke="#444444" stroke-opacity="0.333333" points="806.71,-692.395 796.759,-688.758 802.27,-697.806 806.71,-692.395"/>
</g>
<!-- dnf&#45;conf&#45;&gt;BASE&#45;RUNTIME -->
<g id="edge17" class="edge"><title>dnf&#45;conf&#45;&gt;BASE&#45;RUNTIME</title>
<path fill="none" stroke="#444444" stroke-opacity="0.333333" d="M839.509,-1152.59C827.116,-1074.5 783.748,-801.263 767.489,-698.824"/>
<polygon fill="#444444" fill-opacity="0.333333" stroke="#444444" stroke-opacity="0.333333" points="770.937,-698.217 765.912,-688.889 764.023,-699.314 770.937,-698.217"/>
</g>
<!-- dnf&#45;conf&#45;&gt;libreport&#45;filesystem -->
<g id="edge18" class="edge"><title>dnf&#45;conf&#45;&gt;libreport&#45;filesystem</title>
<path fill="none" stroke="#444444" stroke-opacity="0.333333" d="M807.039,-1194.78C749.047,-1228.9 634.961,-1296.04 573.964,-1331.93"/>
<polygon fill="#444444" fill-opacity="0.333333" stroke="#444444" stroke-opacity="0.333333" points="571.848,-1329.11 565.005,-1337.2 575.398,-1335.15 571.848,-1329.11"/>
</g>
<!-- libcomps&#45;&gt;BASE&#45;RUNTIME -->
<g id="edge19" class="edge"><title>libcomps&#45;&gt;BASE&#45;RUNTIME</title>
<path fill="none" stroke="#444444" stroke-opacity="0.333333" d="M379.732,-37.2293C433.983,-125.73 663.936,-500.857 738.107,-621.853"/>
<polygon fill="#444444" fill-opacity="0.333333" stroke="#444444" stroke-opacity="0.333333" points="735.167,-623.755 743.377,-630.451 741.135,-620.096 735.167,-623.755"/>
</g>
<!-- hawkey&#45;&gt;BASE&#45;RUNTIME -->
<g id="edge20" class="edge"><title>hawkey&#45;&gt;BASE&#45;RUNTIME</title>
<path fill="none" stroke="#444444" stroke-opacity="0.333333" d="M106.266,-742.459C206.682,-729.762 428.115,-701.764 585.683,-681.841"/>
<polygon fill="#444444" fill-opacity="0.333333" stroke="#444444" stroke-opacity="0.333333" points="586.485,-685.268 595.967,-680.541 585.607,-678.323 586.485,-685.268"/>
</g>
<!-- libreport&#45;filesystem&#45;&gt;BASE&#45;RUNTIME -->
<g id="edge21" class="edge"><title>libreport&#45;filesystem&#45;&gt;BASE&#45;RUNTIME</title>
<path fill="none" stroke="#444444" stroke-opacity="0.333333" d="M539.33,-1337.28C569.841,-1244.12 706.12,-828.027 748.59,-698.356"/>
<polygon fill="#444444" fill-opacity="0.333333" stroke="#444444" stroke-opacity="0.333333" points="751.928,-699.408 751.714,-688.816 745.276,-697.229 751.928,-699.408"/>
</g>
<!-- dnf -->
<g id="node1" class="node"><title>dnf</title>
<text text-anchor="middle" x="1080.5" y="-142.95" font-family="monospace" font-size="40.00" fill="green">dnf</text>
</g>
<!-- BASE&#45;RUNTIME -->
<g id="node2" class="node"><title>BASE&#45;RUNTIME</title>
<text text-anchor="middle" x="761.27" y="-652.14" font-family="monospace" font-size="30.00" fill="#666666">BASE&#45;RUNTIME</text>
</g>
<!-- python3&#45;dnf -->
<g id="node3" class="node"><title>python3&#45;dnf</title>
<text text-anchor="middle" x="1062.7" y="-626.04" font-family="monospace" font-size="25.00">python3&#45;dnf</text>
</g>
<!-- python3&#45;pygpgme -->
<g id="node4" class="node"><title>python3&#45;pygpgme</title>
<text text-anchor="middle" x="1470.1" y="-745.81" font-family="monospace" font-size="20.00" fill="#003380">python3&#45;pygpgme</text>
</g>
<!-- python3&#45;libcomps -->
<g id="node5" class="node"><title>python3&#45;libcomps</title>
<text text-anchor="middle" x="682.4" y="-164.61" font-family="monospace" font-size="20.00" fill="#003380">python3&#45;libcomps</text>
</g>
<!-- python3&#45;hawkey -->
<g id="node6" class="node"><title>python3&#45;hawkey</title>
<text text-anchor="middle" x="407.92" y="-725.7" font-family="monospace" font-size="20.00" fill="#003380">python3&#45;hawkey</text>
</g>
<!-- deltarpm -->
<g id="node7" class="node"><title>deltarpm</title>
<text text-anchor="middle" x="1402.8" y="-346.35" font-family="monospace" font-size="20.00" fill="#003380">deltarpm</text>
</g>
<!-- python3&#45;iniparse -->
<g id="node8" class="node"><title>python3&#45;iniparse</title>
<text text-anchor="middle" x="1267.4" y="-1069.9" font-family="monospace" font-size="20.00" fill="#003380">python3&#45;iniparse</text>
</g>
<!-- dnf&#45;conf -->
<g id="node9" class="node"><title>dnf&#45;conf</title>
<text text-anchor="middle" x="842.86" y="-1168.7" font-family="monospace" font-size="20.00" fill="#003380">dnf&#45;conf</text>
</g>
<!-- libcomps -->
<g id="node10" class="node"><title>libcomps</title>
<text text-anchor="middle" x="368.18" y="-14.585" font-family="monospace" font-size="16.00" fill="#0055d4">libcomps</text>
</g>
<!-- hawkey -->
<g id="node11" class="node"><title>hawkey</title>
<text text-anchor="middle" x="53.033" y="-745.39" font-family="monospace" font-size="16.00" fill="#0055d4">hawkey</text>
</g>
<!-- libreport&#45;filesystem -->
<g id="node12" class="node"><title>libreport&#45;filesystem</title>
<text text-anchor="middle" x="533.23" y="-1352.1" font-family="monospace" font-size="16.00" fill="#0055d4">libreport&#45;filesystem</text>
</g>
</g>
</svg>
