<?xml version="1.0" encoding="UTF-8" standalone="no"?>
<!DOCTYPE svg PUBLIC "-//W3C//DTD SVG 1.1//EN"
 "http://www.w3.org/Graphics/SVG/1.1/DTD/svg11.dtd">
<!-- Generated by graphviz version 2.38.0 (20140413.2041)
 -->
<!-- Title: G Pages: 1 -->
<svg width="1842pt" height="985pt"
 viewBox="0.00 0.00 1841.61 984.64" xmlns="http://www.w3.org/2000/svg" xmlns:xlink="http://www.w3.org/1999/xlink">
<g id="graph0" class="graph" transform="scale(1 1) rotate(0) translate(81.7397 881.738)">
<title>G</title>
<polygon fill="#dae2ff" stroke="none" points="-81.7397,102.906 -81.7397,-881.738 1759.87,-881.738 1759.87,102.906 -81.7397,102.906"/>
<polygon fill="#fed9a6" stroke="#fed9a6" points="1102.48,-17.5627 1102.18,-10.1048 1104.09,44.2549 1061.01,69.6743 1027.42,81.0143 1006.38,82.6279 987.867,84.5515 985.089,84.9899 982.677,84.4808 969.279,82.0229 967.194,81.6987 966.442,81.6026 956.508,80.8806 945.165,80.3696 947.168,4.09162 944.189,-19.6059 952.299,-24.704 952.628,-25.0241 949.53,-28.2556 945.697,-30.5909 938.992,-32.0048 935.447,-31.3018 935.447,-31.3018 938.992,-32.0048 945.697,-30.5909 949.53,-28.2556 952.628,-25.0241 952.299,-24.704 944.189,-19.6059 940.435,-18.8587 934.15,-20.1554 930.471,-22.3564 927.272,14.0466 923.173,-25.5685 921.006,-25.5685 920.436,-25.4536 920.436,-25.4536 921.006,-25.5685 923.173,-25.5685 927.272,14.0466 930.471,-22.3564 934.15,-20.1554 940.435,-18.8587 944.189,-19.6059 947.168,4.09162 945.165,80.3696 937.126,80.452 927.795,81.0631 912.896,82.8624 907.025,83.8935 909.364,-25.5626 904.39,-25.5626 903.887,-25.6664 898.293,-25.6664 897.285,-25.4604 894.968,-25.4604 894.826,-25.4316 894.826,-25.4316 894.968,-25.4604 897.285,-25.4604 898.293,-25.6664 903.887,-25.6664 904.39,-25.5626 909.364,-25.5626 907.025,83.8935 905.667,84.1692 891.324,87.8812 879.971,91.4468 858.121,98.9059 839.986,89.7434 760.061,26.0876 735.222,36.9126 723.975,39.6789 663.698,42.9433 648.626,44.1923 637.361,45.7698 631.642,47.0632 621.056,44.8795 621.962,-34.3677 618.087,-61.5591 625.894,-58.1443 629.21,-58.1443 635.527,-60.9188 640.443,-65.2801 641.155,-65.2801 640.97,-172.399 649.173,-171.415 649.173,-171.415 640.97,-172.399 641.155,-65.2801 640.443,-65.2801 636.564,-68.4656 636.564,-68.4656 640.443,-65.2801 635.527,-60.9188 629.21,-58.1443 625.894,-58.1443 618.087,-61.5591 621.962,-34.3677 621.056,44.8795 612.383,43.5929 595.618,42.074 561.438,40.9573 555.919,38.3018 484.267,-22.9342 472.991,-32.1288 476.381,-63.1974 476.991,-77.1919 478.266,-90.3631 493.189,-108.17 558.533,-190.253 563.462,-196.124 557.576,-219.459 552.674,-244.32 543.161,-286.797 578.947,-285.051 649.508,-286.326 668.931,-289.954 672.861,-287.411 677.284,-310.387 678.75,-339.749 679.628,-339.316 690.245,-334.79 698.476,-331.863 700.808,-331.201 707.53,-330.224 714.659,-329.683 715.155,-278.336 715.866,-278.21 718.772,-278.21 722.869,-320.974 722.909,-329.573 731.865,-329.461 734.229,-329.597 740.846,-329.006 743.081,-329.119 745.49,-329.066 746.355,-329.107 751.998,-284.98 745.984,-284.98 740.889,-283.112 733.719,-277.825 734.346,-277.173 741.748,-271.873 745.112,-270.716 745.112,-270.716 741.748,-271.873 734.346,-277.173 733.719,-277.825 740.889,-283.112 745.984,-284.98 751.998,-284.98 746.355,-329.107 745.49,-329.066 743.081,-329.119 740.846,-329.006 734.229,-329.597 731.865,-329.461 722.909,-329.573 722.869,-320.974 718.772,-278.21 715.866,-278.21 715.155,-278.336 714.659,-329.683 707.53,-330.224 700.808,-331.201 698.476,-331.863 690.245,-334.79 679.628,-339.316 678.75,-339.749 677.284,-310.387 672.861,-287.411 668.931,-289.954 649.508,-286.326 578.947,-285.051 543.161,-286.797 541.054,-293.266 579.987,-377.901 588.822,-396.046 592.395,-394.179 602.346,-388.456 602.346,-388.456 592.395,-394.179 588.822,-396.046 588.864,-405.378 593.635,-477.763 665.094,-552.533 698.291,-549.359 722.82,-506.517 723.268,-419.094 720.535,-389.657 720.535,-389.657 723.268,-419.094 722.82,-506.517 728.984,-496.837 740.238,-480.125 746.193,-472.827 757.737,-457.643 761.687,-452.869 758.112,-385.398 763.543,-385.398 763.543,-385.398 758.112,-385.398 761.687,-452.869 764.331,-449.947 771.18,-443.658 778.456,-435.443 785.405,-429.318 789.538,-426.171 793.824,-423.411 798.57,-419.711 800.397,-418.551 826.08,-405.643 831.602,-402.11 840.576,-395.138 843.146,-392.82 843.487,-392.586 846.818,-389.952 849.443,-387.589 863.112,-373.687 865.241,-371.079 870.336,-365.354 872.397,-363.371 878.395,-356.62 881.188,-353.241 881.781,-352.473 896.973,-346.196 901.176,-344.143 927.632,-330.204 936.132,-331.079 939.066,-331.456 942.911,-332.046 943.047,-332.074 947.091,-333.005 953.835,-334.732 963.061,-319.194 976.545,-299.145 993.29,-272.105 1001.39,-257.435 1011.53,-232.689 964.698,-222.347 960.651,-217.561 958.523,-216.381 957.273,-215.153 954.805,-213.842 952.012,-211.477 949.982,-211.477 947.865,-209.131 944.23,-206.518 938.433,-204.378 932.129,-204.378 928.912,-205.521 925.305,-177.848 920.489,-211.401 919.122,-210.325 914.59,-176.806 914.343,-129.346 919.075,-124.114 925.339,-117.675 921.78,-114.58 862.799,-116.763 858.208,-116.231 858.208,-116.231 862.799,-116.763 921.78,-114.58 925.339,-117.675 919.075,-124.114 914.343,-129.346 914.59,-176.806 919.122,-210.325 920.489,-211.401 925.305,-177.848 928.912,-205.521 932.129,-204.378 938.433,-204.378 944.23,-206.518 947.865,-209.131 949.982,-211.477 952.012,-211.477 954.805,-213.842 957.273,-215.153 958.523,-216.381 960.651,-217.561 964.698,-222.347 1011.53,-232.689 1020.21,-214.967 1027.42,-202.1 1049.26,-173.7 1043.61,-146.699 1038.55,-128.681 1101.95,-51.3608 1101.96,-48.449 1102.64,-34.9183 1102.48,-17.5627 1102.48,-17.5627"/>
<polygon fill="#d8d6da" stroke="#d8d6da" points="759.213,-819.213 755.479,-819.676 722.319,-824.672 669.093,-803.634 662.729,-796.735 632.343,-733.045 624.694,-718.056 611.954,-694.57 619.162,-675.009 634.187,-631.016 639.39,-616.865 657.987,-569.6 665.094,-552.533 698.291,-549.359 722.82,-506.517 728.984,-496.837 740.238,-480.125 746.193,-472.827 757.737,-457.643 761.687,-452.869 764.331,-449.947 771.18,-443.658 778.456,-435.443 785.405,-429.318 789.538,-426.171 793.824,-423.411 798.57,-419.711 800.397,-418.551 826.08,-405.643 831.602,-402.11 840.576,-395.138 843.146,-392.82 843.487,-392.586 846.818,-389.952 849.443,-387.589 863.112,-373.687 862.809,-384.218 858.226,-437.883 854.338,-440.713 853.224,-442.126 853.628,-442.626 858.735,-446.388 858.735,-446.388 853.628,-442.626 853.224,-442.126 854.338,-440.713 858.226,-437.883 864.258,-436.356 869.001,-437.54 874.66,-441.94 873.777,-443.102 877.918,-481.702 879.014,-547.991 886.152,-441.906 889.135,-441.906 889.877,-442.094 897.401,-532.53 897.559,-542.126 960.2,-504.067 964.474,-482.493 964.474,-482.493 960.2,-504.067 897.559,-542.126 897.401,-532.53 889.877,-442.094 889.135,-441.906 886.152,-441.906 879.014,-547.991 877.918,-481.702 873.777,-443.102 874.66,-441.94 869.001,-437.54 864.258,-436.356 858.226,-437.883 862.809,-384.218 863.112,-373.687 865.241,-371.079 870.336,-365.354 872.397,-363.371 878.395,-356.62 881.188,-353.241 881.781,-352.473 896.973,-346.196 901.176,-344.143 927.632,-330.204 936.132,-331.079 939.066,-331.456 942.911,-332.046 943.047,-332.074 947.091,-333.005 953.835,-334.732 963.061,-319.194 976.545,-299.145 993.29,-272.105 1001.39,-257.435 1011.53,-232.689 1020.21,-214.967 1027.42,-202.1 1049.26,-173.7 1043.61,-146.699 1038.55,-128.681 1101.95,-51.3608 1131.57,-69.9394 1148.95,-80.0344 1164.6,-86.807 1170.53,-88.7808 1172.17,-124.966 1170.21,-155.519 1165.32,-154.062 1165.32,-154.062 1170.21,-155.519 1172.17,-124.966 1170.53,-88.7808 1188.6,-93.0517 1207.88,-94.7519 1224.57,-97.8249 1237.58,-102.074 1244.45,-104.966 1253.21,-109.076 1274.54,-121.108 1274.32,-126.075 1271.22,-130.378 1267.13,-136.555 1255.77,-150.243 1246.77,-159.317 1242.93,-162.803 1236.4,-168.087 1202.91,-204.792 1191.86,-215.027 1190.99,-215.737 1181.79,-225.153 1186.85,-238.89 1194.55,-264.296 1182.25,-264.305 1182.25,-264.305 1194.55,-264.296 1198.89,-274.987 1211.1,-299.039 1206.97,-302.339 1199.27,-307.627 1189.98,-313.49 1136.03,-344.42 1128.33,-349.26 1113.9,-359.936 1105.06,-367.412 1103.29,-369.006 1102.24,-370.007 1110.73,-379.502 1119.35,-389.801 1156.42,-445.498 1178.23,-474.708 1187.89,-486.636 1190.35,-489.862 1186.89,-494.375 1146.49,-551.058 1128.22,-574.811 1128.65,-590.766 1127.64,-591.725 1117.95,-600.024 1113.22,-604.663 1108.07,-609.152 1023.61,-678.336 1022.33,-639.981 1022.33,-639.981 1023.61,-678.336 1012.75,-688.425 1011.2,-689.941 1006.22,-694.223 996.701,-702.855 999.353,-627.207 997.628,-590.01 1003.49,-591.708 1008.22,-590.424 1012.73,-586.788 1008.19,-583.128 1003.48,-581.855 1003.48,-581.855 1008.19,-583.128 1012.73,-586.788 1008.22,-590.424 1003.49,-591.708 997.628,-590.01 999.353,-627.207 996.701,-702.855 994.658,-704.892 975.636,-725.734 970.345,-731.766 959.958,-743.075 947.657,-741.029 942.9,-744.525 841.825,-822.251 838.218,-824.244 797.843,-819.612 789.986,-818.919 789.6,-818.896 779.457,-818.54 774.998,-818.502 768.886,-818.611 765.695,-818.753 759.213,-819.213 759.213,-819.213"/>
<polygon fill="#fbb4ae" stroke="#fbb4ae" points="1614.43,-84.0722 1616.93,-85.9972 1678.91,-131.594 1709.38,-175.054 1708.48,-201.297 1708.46,-215.251 1712.21,-272.966 1755.87,-329.181 1755.47,-339.997 1751.5,-347.149 1624.23,-345.658 1618.84,-350.15 1619.84,-280.997 1614.98,-281.007 1613.35,-216.86 1608.91,-213.468 1607.15,-210.45 1603.81,-210.45 1600.49,-161.551 1597.79,-207.038 1593.15,-205.737 1587.69,-207.302 1583.56,-210.782 1580.95,-180.376 1576.69,-207.96 1572.73,-204.608 1567.98,-105.628 1540.2,-157.204 1494.33,-162.039 1484.51,-159.265 1479.48,-108.279 1478.44,-85.1449 1476.27,-86.4802 1475.63,-86.8387 1462.03,-93.8558 1457.84,-95.8022 1457.84,-95.8022 1462.03,-93.8558 1475.63,-86.8387 1476.27,-86.4802 1478.44,-85.1449 1479.48,-108.279 1484.51,-159.265 1494.33,-162.039 1540.2,-157.204 1567.98,-105.628 1572.73,-204.608 1576.69,-207.96 1580.95,-180.376 1583.56,-210.782 1587.69,-207.302 1593.15,-205.737 1597.79,-207.038 1602.23,-210.909 1601.8,-211.524 1598.73,-213.953 1592.98,-215.551 1587.39,-214 1583.59,-210.974 1583.51,-210.863 1578.29,-210.863 1578.22,-210.843 1576.35,-211.695 1572.32,-216.139 1511.77,-228.365 1494.66,-260.13 1481.81,-258.076 1479.05,-257.811 1470.6,-257.27 1458.87,-256.893 1456.49,-310.974 1451.39,-346.672 1450.37,-347.405 1447.8,-347.405 1446.73,-347.724 1442.23,-347.724 1438,-411.409 1435.98,-351.068 1439.98,-347.328 1436.73,-344.573 1430.65,-342.766 1424.74,-344.51 1421.01,-347.671 1420.04,-347.383 1420.04,-347.383 1421.01,-347.671 1424.74,-344.51 1430.65,-342.766 1436.73,-344.573 1439.98,-347.328 1435.98,-351.068 1438,-411.409 1442.23,-347.724 1446.73,-347.724 1447.8,-347.405 1450.37,-347.405 1451.39,-346.672 1456.49,-310.974 1458.87,-256.893 1470.6,-257.27 1479.05,-257.811 1481.81,-258.076 1494.66,-260.13 1511.77,-228.365 1572.32,-216.139 1576.35,-211.695 1578.22,-210.843 1578.29,-210.863 1583.51,-210.863 1583.59,-210.974 1587.39,-214 1592.98,-215.551 1598.73,-213.953 1601.8,-211.524 1602.23,-210.909 1597.79,-207.038 1600.49,-161.551 1603.81,-210.45 1607.15,-210.45 1608.91,-213.468 1613.35,-216.86 1614.98,-281.007 1619.84,-280.997 1618.84,-350.15 1618.43,-350.842 1617.44,-351.631 1613.75,-351.631 1613.48,-351.551 1608.43,-351.551 1607.38,-351.861 1606.61,-351.861 1602.88,-348.598 1602.88,-348.598 1606.61,-351.861 1603.24,-354.776 1597.08,-356.676 1597.29,-409.004 1596.77,-418.838 1592.88,-418.859 1592.31,-485.898 1593,-486.102 1591,-515.071 1585.34,-486.24 1583.67,-486.24 1582.14,-484.555 1582.14,-484.555 1583.67,-486.24 1582.46,-487.541 1576.3,-490.997 1571.6,-490.997 1566.62,-488.236 1564.86,-486.211 1560.86,-486.211 1560.9,-544.585 1554.64,-486.454 1551.41,-486.454 1544.18,-549.129 1545.22,-488.546 1539.76,-492.562 1515.61,-489.025 1481.26,-488.757 1481.58,-498.922 1485.66,-527.298 1485.66,-527.298 1481.58,-498.922 1481.26,-488.757 1515.61,-489.025 1539.76,-492.562 1545.22,-488.546 1544.18,-549.129 1551.41,-486.454 1554.64,-486.454 1560.9,-544.585 1560.86,-486.211 1564.86,-486.211 1566.62,-488.236 1571.6,-490.997 1576.3,-490.997 1582.46,-487.541 1583.67,-486.24 1585.34,-486.24 1591,-515.071 1593,-486.102 1592.31,-485.898 1592.88,-418.859 1596.77,-418.838 1597.29,-409.004 1597.08,-356.676 1603.24,-354.776 1606.61,-351.861 1607.38,-351.861 1608.43,-351.551 1613.48,-351.551 1613.75,-351.631 1617.44,-351.631 1618.43,-350.842 1618.84,-350.15 1624.23,-345.658 1751.5,-347.149 1747.83,-354.177 1712,-432.123 1714.88,-454.812 1722.22,-501.472 1721.46,-502.591 1682.31,-567.913 1647.23,-597.762 1646.94,-599.246 1639.1,-654.236 1634.12,-699.047 1628.36,-707.485 1618.4,-717.328 1577,-743.985 1575.52,-746.358 1574.94,-747.186 1494.75,-807.313 1461.35,-817.214 1452.6,-820.015 1452.72,-723.536 1449.27,-690.171 1451.68,-689.463 1453.78,-689.463 1455.2,-687.346 1460.21,-683.693 1463.71,-642.139 1502.02,-668.377 1502.02,-668.377 1463.71,-642.139 1460.21,-683.693 1455.2,-687.346 1453.78,-689.463 1451.68,-689.463 1449.27,-690.171 1452.72,-723.536 1452.6,-820.015 1451.87,-820.284 1437.19,-826.041 1435.73,-825.789 1419.3,-823.666 1417.93,-823.546 1414.04,-823.286 1413.42,-823.258 1410.7,-774.977 1403.37,-693.672 1407.69,-689.877 1403.76,-686.509 1398.55,-685.033 1393.56,-686.42 1393.44,-599.125 1398.44,-598.897 1397.89,-588.758 1396.57,-512.563 1402.08,-512.563 1408.29,-508.953 1409.02,-508.16 1408.51,-507.601 1401.8,-503.573 1401.8,-503.573 1408.51,-507.601 1409.02,-508.16 1408.29,-508.953 1402.08,-512.563 1396.57,-512.563 1397.89,-588.758 1398.44,-598.897 1393.44,-599.125 1393.56,-686.42 1398.55,-685.033 1403.76,-686.509 1407.69,-689.877 1403.37,-693.672 1398.72,-694.962 1393.88,-693.612 1389.49,-689.815 1388.77,-689.815 1386.41,-747.948 1386.95,-794.034 1386.58,-793.511 1372.91,-775.477 1363.36,-763.715 1352.55,-753.261 1352.53,-753.24 1342.68,-742.357 1339.07,-739.218 1339.07,-739.218 1342.68,-742.357 1352.53,-753.24 1352.55,-753.261 1363.36,-763.715 1372.91,-775.477 1386.58,-793.511 1386.95,-794.034 1386.41,-747.948 1388.77,-689.815 1389.49,-689.815 1393.88,-693.612 1398.72,-694.962 1403.37,-693.672 1410.7,-774.977 1413.42,-823.258 1404.17,-823.215 1388.48,-831.578 1372.14,-838.369 1294.72,-855.178 1294.59,-844.47 1294.59,-844.47 1294.72,-855.178 1291.05,-856.192 1276.48,-860.658 1267.69,-863.872 1266.69,-789.571 1269.31,-753.32 1273.64,-752.081 1277.93,-748.052 1273.99,-744.497 1269.22,-743.134 1269.22,-743.134 1273.99,-744.497 1277.93,-748.052 1273.64,-752.081 1269.31,-753.32 1266.69,-789.571 1267.69,-863.872 1257.72,-868.11 1243.63,-874.517 1237.69,-877.738 1150.76,-817.541 1146.83,-817.165 1139.34,-815.219 1139.21,-805.152 1143.36,-705.06 1141.03,-701.668 1142.02,-700.909 1143.51,-698.455 1148.26,-695.034 1147.33,-606.86 1221.48,-665.509 1237.77,-664.659 1242.2,-664.766 1246.75,-664.54 1249.89,-664.504 1252.24,-620.432 1257.61,-584.031 1260.23,-581.705 1256.19,-577.836 1251.37,-576.375 1251.37,-576.375 1256.19,-577.836 1260.23,-581.705 1257.61,-584.031 1252.24,-620.432 1249.89,-664.504 1246.75,-664.54 1242.2,-664.766 1237.77,-664.659 1237.43,-637.01 1237.43,-637.01 1237.77,-664.659 1221.48,-665.509 1147.33,-606.86 1148.26,-695.034 1143.51,-698.455 1142.02,-700.909 1141.03,-701.668 1143.36,-705.06 1139.21,-805.152 1139.34,-815.219 1125.92,-812.764 1116.18,-811.236 1103.25,-810.206 1096.35,-809.833 984.732,-767.208 959.958,-743.075 970.345,-731.766 975.636,-725.734 994.658,-704.892 996.701,-702.855 1006.22,-694.223 1011.2,-689.941 1012.75,-688.425 1023.61,-678.336 1108.07,-609.152 1113.22,-604.663 1117.95,-600.024 1127.64,-591.725 1128.65,-590.766 1128.22,-574.811 1146.49,-551.058 1186.89,-494.375 1190.35,-489.862 1187.89,-486.636 1178.23,-474.708 1156.42,-445.498 1119.35,-389.801 1110.73,-379.502 1102.24,-370.007 1103.29,-369.006 1105.06,-367.412 1113.9,-359.936 1128.33,-349.26 1136.03,-344.42 1189.98,-313.49 1199.27,-307.627 1199.57,-383.882 1203.17,-387.158 1203.54,-387.158 1204.38,-386.946 1204.38,-386.946 1203.54,-387.158 1203.17,-387.158 1199.57,-383.882 1199.27,-307.627 1206.97,-302.339 1211.1,-299.039 1198.89,-274.987 1194.55,-264.296 1186.85,-238.89 1181.79,-225.153 1190.99,-215.737 1191.86,-215.027 1202.91,-204.792 1236.4,-168.087 1242.93,-162.803 1246.77,-159.317 1255.77,-150.243 1267.13,-136.555 1271.22,-130.378 1274.32,-126.075 1274.54,-121.108 1253.21,-109.076 1244.45,-104.966 1237.58,-102.074 1224.57,-97.8249 1207.88,-94.7519 1188.6,-93.0517 1170.53,-88.7808 1164.6,-86.807 1148.95,-80.0344 1131.57,-69.9394 1101.95,-51.3608 1101.96,-48.449 1102.64,-34.9183 1191.09,-32.5654 1207.49,-35.6259 1213.98,-30.9982 1214.97,-29.5805 1216.61,-29.5805 1222.83,-62.6909 1223.76,-30.4716 1229.32,-33.8215 1233.82,-33.8215 1233.82,-33.8215 1229.32,-33.8215 1223.76,-30.4716 1222.83,-62.6909 1216.61,-29.5805 1214.97,-29.5805 1213.98,-30.9982 1207.49,-35.6259 1191.09,-32.5654 1102.64,-34.9183 1102.48,-17.5627 1102.18,-10.1048 1104.09,44.2549 1195.16,94.7202 1198.36,94.8975 1218.31,96.4657 1219.55,96.6196 1229.53,91.2329 1237.76,87.2797 1253.79,81.0031 1253.3,35.1448 1253.3,35.1448 1253.79,81.0031 1265.71,77.0421 1315.33,55.6358 1340.45,56.8359 1342.7,57.0074 1353.11,58.0972 1362.49,59.3461 1370.56,60.8788 1384.88,64.4112 1400.55,69.6118 1398.73,4.18939 1394.14,-45.0618 1390.45,-45.0618 1389.11,-45.449 1385.93,-45.449 1384.68,-43.9804 1378.71,-40.4467 1374.45,-40.4467 1374.45,-40.4467 1378.71,-40.4467 1384.68,-43.9804 1385.93,-45.449 1389.11,-45.449 1393.19,-105.369 1392.15,-105.482 1392.67,-140.705 1388.95,-165.64 1385.22,-165.64 1384.74,-165.506 1381.46,-165.506 1381.46,-165.506 1384.74,-165.506 1385.22,-165.64 1384.55,-204.415 1378.35,-199.511 1376.53,-198.357 1371.35,-195.833 1363.47,-193.152 1358.97,-192.324 1358.94,-168.857 1353.88,-172.283 1337.51,-169.929 1313.63,-171.83 1309.85,-168.862 1309.53,-168.571 1299.34,-158.185 1298.27,-191.387 1294.22,-214.013 1289.75,-216.445 1288.31,-217.996 1286.29,-217.996 1281.95,-195.322 1277.66,-218.289 1275.04,-218.289 1275.04,-218.289 1277.66,-218.289 1281.95,-195.322 1286.29,-217.996 1288.31,-217.996 1290.41,-220.446 1294.51,-222.737 1294.51,-222.737 1290.41,-220.446 1288.31,-217.996 1289.75,-216.445 1294.22,-214.013 1298.27,-191.387 1299.34,-158.185 1309.53,-168.571 1309.85,-168.862 1313.63,-171.83 1337.51,-169.929 1353.88,-172.283 1358.94,-168.857 1358.97,-192.324 1363.47,-193.152 1371.35,-195.833 1376.53,-198.357 1378.35,-199.511 1384.55,-204.415 1392.61,-212.045 1394.71,-214.331 1352.83,-212.108 1346.57,-217.326 1349.33,-192.166 1339.73,-190.384 1338.66,-190.029 1328.97,-185.262 1326.78,-183.876 1326.78,-183.876 1328.97,-185.262 1338.66,-190.029 1339.73,-190.384 1349.33,-192.166 1346.57,-217.326 1352.83,-212.108 1394.71,-214.331 1392.61,-212.045 1384.55,-204.415 1385.22,-165.64 1388.95,-165.64 1392.67,-140.705 1392.15,-105.482 1393.19,-105.369 1389.11,-45.449 1390.45,-45.0618 1394.14,-45.0618 1398.73,4.18939 1400.55,69.6118 1400.92,69.7526 1406.8,72.2056 1414.07,70.8089 1415.86,70.5102 1459.69,52.0607 1471.39,42.2118 1501.71,9.74265 1502.14,9.09203 1522.23,-43.0677 1525.08,-49.3823 1525.89,-51.036 1579.75,-82.3009 1584.3,-82.7453 1590.36,-83.0753 1600.15,-83.1858 1603.48,-83.0798 1606.98,-82.8922 1614.43,-84.0722 1614.43,-84.0722"/>
<polygon fill="#bbd7d9" stroke="#bbd7d9" points="42.5583,-179.764 27.3317,-187.196 -29.5852,-213.158 -77.7397,-271.726 -76.9532,-276.402 -70.7475,-332.17 -69.0556,-352.959 -39.1584,-404.798 -39.6197,-412.313 -41.478,-433.677 -27.8894,-455.434 41.3872,-581.666 42.103,-582.063 49.0156,-615.849 57.5995,-664.302 58.9759,-666.379 104.937,-745.317 123.693,-752.742 173.96,-756.063 173.996,-754.61 173.306,-733.416 173.634,-652.848 174.246,-651.836 179.066,-654.792 179.066,-654.792 174.246,-651.836 173.634,-652.848 173.306,-733.416 173.996,-754.61 173.96,-756.063 197.507,-760.302 229.517,-767.865 232.519,-767.591 304.308,-814.631 308.846,-816.872 331.206,-810.31 336.168,-808.989 342.24,-807.538 344.376,-737.928 348.439,-704.248 352.681,-705.371 357.376,-704.094 357.376,-704.094 352.681,-705.371 348.439,-704.248 344.376,-737.928 342.24,-807.538 357.613,-804.704 361.577,-804.083 381.443,-802.603 373.084,-706.901 391.168,-702.452 429.851,-700.27 459.2,-700.27 464.684,-705.384 464.684,-705.384 459.2,-700.27 429.851,-700.27 391.168,-702.452 373.084,-706.901 381.443,-802.603 396.316,-801.905 456.855,-770.546 483.731,-725.91 488.471,-724.379 499.137,-721.24 611.954,-694.57 619.162,-675.009 634.187,-631.016 639.39,-616.865 657.987,-569.6 665.094,-552.533 593.635,-477.763 588.864,-405.378 588.822,-396.046 579.987,-377.901 541.054,-293.266 543.161,-286.797 552.674,-244.32 557.576,-219.459 563.462,-196.124 558.533,-190.253 493.189,-108.17 478.266,-90.3631 476.991,-77.1919 476.381,-63.1974 472.991,-32.1288 395.103,18.1748 364.928,13.815 347.281,11.7552 347.282,11.3092 345.52,-57.1699 341.079,-91.6179 342.347,-91.986 347.399,-91.986 348.275,-172.121 342.316,-176.23 330.48,-185.676 415.951,-204.316 419.372,-150.832 421.825,-206.348 420.07,-207.955 421.322,-212.913 421.419,-212.999 421.419,-212.999 421.322,-212.913 420.07,-207.955 421.825,-206.348 419.372,-150.832 415.951,-204.316 330.48,-185.676 342.316,-176.23 348.275,-172.121 347.399,-91.986 342.347,-91.986 341.079,-91.6179 345.52,-57.1699 347.282,11.3092 347.281,11.7552 334.368,11.3348 332.022,11.3243 329.611,-66.214 332.839,-91.2437 325.654,-86.9102 321.713,-86.9102 316.126,-90.1125 314.489,-92.0102 315.921,-93.586 320.664,-96.2064 326.638,-96.2064 326.638,-96.2064 320.664,-96.2064 315.921,-93.586 314.489,-92.0102 316.126,-90.1125 321.713,-86.9102 325.654,-86.9102 332.839,-91.2437 329.611,-66.214 332.022,11.3243 313.194,12.2966 299.932,14.4704 287.911,16.778 281.041,18.4781 266.649,20.9455 251.697,22.0012 194.054,-7.71844 177.015,-44.5274 173.075,-46.8454 177.699,-167.336 178.394,-168.309 177.668,-171.798 183.435,-175.375 187.823,-175.375 193.356,-171.984 193.957,-172.432 196.518,-173.167 199.255,-176.188 293.773,-194.042 305.046,-208.569 304.132,-215.731 298.619,-219.655 298.757,-238.332 296.609,-333.541 296.997,-333.648 302.137,-333.648 302.317,-333.599 306.274,-333.599 307.707,-333.998 312.098,-333.998 312.172,-334.018 316.01,-334.018 323.12,-379.443 322.423,-333.716 322.423,-333.716 323.12,-379.443 325.275,-404.528 327.821,-401.937 328.432,-401.415 328.432,-401.415 327.821,-401.937 325.275,-404.528 323.12,-379.443 316.01,-334.018 312.172,-334.018 312.098,-333.998 307.707,-333.998 306.274,-333.599 302.317,-333.599 302.137,-333.648 296.997,-333.648 296.609,-333.541 298.757,-238.332 298.619,-219.655 304.132,-215.731 305.046,-208.569 293.773,-194.042 199.255,-176.188 196.518,-173.167 193.957,-172.432 193.356,-171.984 187.823,-175.375 183.435,-175.375 177.668,-171.798 178.394,-168.309 177.699,-167.336 173.075,-46.8454 165.727,-50.9369 105.272,-82.6803 88.3232,-91.8666 63.4494,-136.887 59.7216,-154.904 54.8828,-173.075 51.6409,-175.055 42.5583,-179.764 41.2605,-292.726 43.2098,-295.677 45.1066,-295.677 51.6845,-339.322 52.6112,-326.941 51.2992,-295.51 51.2992,-295.51 52.6112,-326.941 58.421,-296.59 60.792,-298.476 67.8258,-300.552 71.796,-299.478 71.796,-299.478 67.8258,-300.552 60.792,-298.476 64.8525,-319.765 65.7524,-369.782 74.728,-368.966 87.1758,-368.845 87.6695,-368.82 88.9275,-368.648 86.5758,-327.756 86.5758,-327.756 88.9275,-368.648 87.6695,-368.82 90.3025,-406.825 96.2915,-441.4 99.0914,-441.4 102.674,-410.978 106.726,-441.536 109.047,-441.536 114.631,-414.566 116.743,-438.309 121.822,-436.812 126.997,-438.3 127.206,-365.927 127.736,-365.806 139.831,-362.547 145.91,-345.642 199.521,-337.707 209.396,-340.329 214.238,-337.624 216.955,-404.603 218.57,-405.594 227.506,-411.596 231.064,-414.184 238.91,-420.804 240.875,-381.277 246.393,-334.18 249.964,-334.18 254.469,-412.475 255.79,-334.104 259.811,-334.104 261.793,-333.528 262.336,-332.73 265.445,-330.26 270.629,-328.826 270.629,-328.826 265.445,-330.26 262.336,-332.73 261.793,-333.528 259.811,-334.104 255.79,-334.104 254.469,-412.475 249.964,-334.18 246.393,-334.18 240.875,-381.277 238.91,-420.804 231.064,-414.184 227.506,-411.596 218.57,-405.594 216.955,-404.603 214.238,-337.624 209.396,-340.329 207.424,-399.288 163.551,-377.388 149.084,-369.262 150.2,-402.6 150.2,-402.6 149.084,-369.262 144.835,-366.376 142.903,-441.581 144.493,-442.051 147.203,-442.051 151.987,-475.343 153.589,-524.011 161.326,-517.038 168.205,-511.327 230.588,-526.358 233.304,-529.284 235.631,-530.08 237.081,-448.413 244.23,-441.473 244.687,-458.667 247.239,-496.099 246.121,-530.598 245.329,-531.537 247.491,-534.157 251.292,-536.248 251.292,-536.248 247.491,-534.157 245.329,-531.537 246.121,-530.598 247.239,-496.099 244.687,-458.667 244.23,-441.473 237.081,-448.413 235.631,-530.08 233.304,-529.284 230.588,-526.358 168.205,-511.327 161.326,-517.038 153.589,-524.011 151.987,-475.343 147.203,-442.051 144.493,-442.051 142.903,-441.581 144.835,-366.376 149.084,-369.262 163.551,-377.388 207.424,-399.288 209.396,-340.329 199.521,-337.707 145.91,-345.642 139.831,-362.547 127.736,-365.806 127.206,-365.927 126.997,-438.3 121.822,-436.812 116.743,-438.309 114.631,-414.566 109.047,-441.536 106.726,-441.536 102.674,-410.978 99.0914,-441.4 96.2915,-441.4 90.3025,-406.825 87.6695,-368.82 87.1758,-368.845 74.728,-368.966 65.7524,-369.782 64.8525,-319.765 60.792,-298.476 58.421,-296.59 52.6112,-326.941 51.6845,-339.322 45.1066,-295.677 43.2098,-295.677 41.2605,-292.726 42.5583,-179.764 42.5583,-179.764"/>
<polyline fill="none" stroke="#000000" points="839.986,89.7434 760.061,26.0876 735.222,36.9126 723.975,39.6789 663.698,42.9433 648.626,44.1923 637.361,45.7698 631.642,47.0632 621.056,44.8795 612.383,43.5929 595.618,42.074 561.438,40.9573 555.919,38.3018 484.267,-22.9342 472.991,-32.1288 476.381,-63.1974 476.991,-77.1919 478.266,-90.3631 493.189,-108.17 558.533,-190.253 563.462,-196.124 557.576,-219.459 552.674,-244.32 543.161,-286.797 541.054,-293.266 579.987,-377.901 588.822,-396.046 588.864,-405.378 593.635,-477.763 665.094,-552.533 698.291,-549.359 722.82,-506.517 728.984,-496.837 740.238,-480.125 746.193,-472.827 757.737,-457.643 761.687,-452.869 764.331,-449.947 771.18,-443.658 778.456,-435.443 785.405,-429.318 789.538,-426.171 793.824,-423.411 798.57,-419.711 800.397,-418.551 826.08,-405.643 831.602,-402.11 840.576,-395.138 843.146,-392.82 843.487,-392.586 846.818,-389.952 849.443,-387.589 863.112,-373.687 865.241,-371.079 870.336,-365.354 872.397,-363.371 878.395,-356.62 881.188,-353.241 881.781,-352.473 896.973,-346.196 901.176,-344.143 927.632,-330.204 936.132,-331.079 939.066,-331.456 942.911,-332.046 943.047,-332.074 947.091,-333.005 953.835,-334.732 963.061,-319.194 976.545,-299.145 993.29,-272.105 1001.39,-257.435 1011.53,-232.689 1020.21,-214.967 1027.42,-202.1 1049.26,-173.7 1043.61,-146.699 1038.55,-128.681 1101.95,-51.3608 1101.96,-48.449 1102.64,-34.9183 1102.48,-17.5627 1102.18,-10.1048 1104.09,44.2549 1061.01,69.6743 1027.42,81.0143 1006.38,82.6279 987.867,84.5515 985.089,84.9899 982.677,84.4808 969.279,82.0229 967.194,81.6987 966.442,81.6026 956.508,80.8806 945.165,80.3696 937.126,80.452 927.795,81.0631 912.896,82.8624 907.025,83.8935 905.667,84.1692 891.324,87.8812 879.971,91.4468 858.121,98.9059 839.986,89.7434 "/>
<polyline fill="none" stroke="#000000" points="1102.24,-370.007 1110.73,-379.502 1119.35,-389.801 1156.42,-445.498 1178.23,-474.708 1187.89,-486.636 1190.35,-489.862 1186.89,-494.375 1146.49,-551.058 1128.22,-574.811 1128.65,-590.766 1127.64,-591.725 1117.95,-600.024 1113.22,-604.663 1108.07,-609.152 1023.61,-678.336 1012.75,-688.425 1011.2,-689.941 1006.22,-694.223 996.701,-702.855 994.658,-704.892 975.636,-725.734 970.345,-731.766 959.958,-743.075 947.657,-741.029 942.9,-744.525 841.825,-822.251 838.218,-824.244 797.843,-819.612 789.986,-818.919 789.6,-818.896 779.457,-818.54 774.998,-818.502 768.886,-818.611 765.695,-818.753 759.213,-819.213 755.479,-819.676 722.319,-824.672 669.093,-803.634 662.729,-796.735 632.343,-733.045 624.694,-718.056 611.954,-694.57 619.162,-675.009 634.187,-631.016 639.39,-616.865 657.987,-569.6 665.094,-552.533 698.291,-549.359 722.82,-506.517 728.984,-496.837 740.238,-480.125 746.193,-472.827 757.737,-457.643 761.687,-452.869 764.331,-449.947 771.18,-443.658 778.456,-435.443 785.405,-429.318 789.538,-426.171 793.824,-423.411 798.57,-419.711 800.397,-418.551 826.08,-405.643 831.602,-402.11 840.576,-395.138 843.146,-392.82 843.487,-392.586 846.818,-389.952 849.443,-387.589 863.112,-373.687 865.241,-371.079 870.336,-365.354 872.397,-363.371 878.395,-356.62 881.188,-353.241 881.781,-352.473 896.973,-346.196 901.176,-344.143 927.632,-330.204 936.132,-331.079 939.066,-331.456 942.911,-332.046 943.047,-332.074 947.091,-333.005 953.835,-334.732 963.061,-319.194 976.545,-299.145 993.29,-272.105 1001.39,-257.435 1011.53,-232.689 1020.21,-214.967 1027.42,-202.1 1049.26,-173.7 1043.61,-146.699 1038.55,-128.681 1101.95,-51.3608 1131.57,-69.9394 1148.95,-80.0344 1164.6,-86.807 1170.53,-88.7808 1188.6,-93.0517 1207.88,-94.7519 1224.57,-97.8249 1237.58,-102.074 1244.45,-104.966 1253.21,-109.076 1274.54,-121.108 1274.32,-126.075 1271.22,-130.378 1267.13,-136.555 1255.77,-150.243 1246.77,-159.317 1242.93,-162.803 1236.4,-168.087 1202.91,-204.792 1191.86,-215.027 1190.99,-215.737 1181.79,-225.153 1186.85,-238.89 1194.55,-264.296 1198.89,-274.987 1211.1,-299.039 1206.97,-302.339 1199.27,-307.627 1189.98,-313.49 1136.03,-344.42 1128.33,-349.26 1113.9,-359.936 1105.06,-367.412 1103.29,-369.006 1102.24,-370.007 "/>
<polyline fill="none" stroke="#000000" points="1186.89,-494.375 1190.35,-489.862 1187.89,-486.636 1178.23,-474.708 1156.42,-445.498 1119.35,-389.801 1110.73,-379.502 1102.24,-370.007 1103.29,-369.006 1105.06,-367.412 1113.9,-359.936 1128.33,-349.26 1136.03,-344.42 1189.98,-313.49 1199.27,-307.627 1206.97,-302.339 1211.1,-299.039 1198.89,-274.987 1194.55,-264.296 1186.85,-238.89 1181.79,-225.153 1190.99,-215.737 1191.86,-215.027 1202.91,-204.792 1236.4,-168.087 1242.93,-162.803 1246.77,-159.317 1255.77,-150.243 1267.13,-136.555 1271.22,-130.378 1274.32,-126.075 1274.54,-121.108 1253.21,-109.076 1244.45,-104.966 1237.58,-102.074 1224.57,-97.8249 1207.88,-94.7519 1188.6,-93.0517 1170.53,-88.7808 1164.6,-86.807 1148.95,-80.0344 1131.57,-69.9394 1101.95,-51.3608 1101.96,-48.449 1102.64,-34.9183 1102.48,-17.5627 1102.18,-10.1048 1104.09,44.2549 1195.16,94.7202 1198.36,94.8975 1218.31,96.4657 1219.55,96.6196 1229.53,91.2329 1237.76,87.2797 1253.79,81.0031 1265.71,77.0421 1315.33,55.6358 1340.45,56.8359 1342.7,57.0074 1353.11,58.0972 1362.49,59.3461 1370.56,60.8788 1384.88,64.4112 1400.55,69.6118 1400.92,69.7526 1406.8,72.2056 1414.07,70.8089 1415.86,70.5102 1459.69,52.0607 1471.39,42.2118 1501.71,9.74265 1502.14,9.09203 1522.23,-43.0677 1525.08,-49.3823 1525.89,-51.036 1579.75,-82.3009 1584.3,-82.7453 1590.36,-83.0753 1600.15,-83.1858 1603.48,-83.0798 1606.98,-82.8922 1614.43,-84.0722 1616.93,-85.9972 1678.91,-131.594 1709.38,-175.054 1708.48,-201.297 1708.46,-215.251 1712.21,-272.966 1755.87,-329.181 1755.47,-339.997 1751.5,-347.149 1747.83,-354.177 1712,-432.123 1714.88,-454.812 1722.22,-501.472 1721.46,-502.591 1682.31,-567.913 1647.23,-597.762 1646.94,-599.246 1639.1,-654.236 1634.12,-699.047 1628.36,-707.485 1618.4,-717.328 1577,-743.985 1575.52,-746.358 1574.94,-747.186 1494.75,-807.313 1461.35,-817.214 1452.6,-820.015 1451.87,-820.284 1437.19,-826.041 1435.73,-825.789 1419.3,-823.666 1417.93,-823.546 1414.04,-823.286 1413.42,-823.258 1404.17,-823.215 1388.48,-831.578 1372.14,-838.369 1294.72,-855.178 1291.05,-856.192 1276.48,-860.658 1267.69,-863.872 1257.72,-868.11 1243.63,-874.517 1237.69,-877.738 1150.76,-817.541 1146.83,-817.165 1139.34,-815.219 1125.92,-812.764 1116.18,-811.236 1103.25,-810.206 1096.35,-809.833 984.732,-767.208 959.958,-743.075 970.345,-731.766 975.636,-725.734 994.658,-704.892 996.701,-702.855 1006.22,-694.223 1011.2,-689.941 1012.75,-688.425 1023.61,-678.336 1108.07,-609.152 1113.22,-604.663 1117.95,-600.024 1127.64,-591.725 1128.65,-590.766 1128.22,-574.811 1146.49,-551.058 1186.89,-494.375 "/>
<polyline fill="none" stroke="#000000" points="541.054,-293.266 579.987,-377.901 588.822,-396.046 588.864,-405.378 593.635,-477.763 665.094,-552.533 657.987,-569.6 639.39,-616.865 634.187,-631.016 619.162,-675.009 611.954,-694.57 499.137,-721.24 488.471,-724.379 483.731,-725.91 456.855,-770.546 396.316,-801.905 381.443,-802.603 361.577,-804.083 357.613,-804.704 342.24,-807.538 336.168,-808.989 331.206,-810.31 308.846,-816.872 304.308,-814.631 232.519,-767.591 229.517,-767.865 197.507,-760.302 173.96,-756.063 123.693,-752.742 104.937,-745.317 58.9759,-666.379 57.5995,-664.302 49.0156,-615.849 42.103,-582.063 41.3872,-581.666 -27.8894,-455.434 -41.478,-433.677 -39.6197,-412.313 -39.1584,-404.798 -69.0556,-352.959 -70.7475,-332.17 -76.9532,-276.402 -77.7397,-271.726 -29.5852,-213.158 27.3317,-187.196 42.5583,-179.764 51.6409,-175.055 54.8828,-173.075 59.7216,-154.904 63.4494,-136.887 88.3232,-91.8666 105.272,-82.6803 165.727,-50.9369 173.075,-46.8454 177.015,-44.5274 194.054,-7.71844 251.697,22.0012 266.649,20.9455 281.041,18.4781 287.911,16.778 299.932,14.4704 313.194,12.2966 332.022,11.3243 334.368,11.3348 347.281,11.7552 364.928,13.815 395.103,18.1748 472.991,-32.1288 476.381,-63.1974 476.991,-77.1919 478.266,-90.3631 493.189,-108.17 558.533,-190.253 563.462,-196.124 557.576,-219.459 552.674,-244.32 543.161,-286.797 541.054,-293.266 "/>
<!-- nginx&#45;&gt;BASE&#45;RUNTIME -->
<g id="edge1" class="edge"><title>nginx&#45;&gt;BASE&#45;RUNTIME</title>
<path fill="none" stroke="#444444" stroke-opacity="0.333333" d="M785.435,-164.971C778.065,-187.499 768.669,-216.22 761.196,-239.063"/>
<polygon fill="#444444" fill-opacity="0.333333" stroke="#444444" stroke-opacity="0.333333" points="757.8,-238.187 758.017,-248.779 764.453,-240.363 757.8,-238.187"/>
</g>
<!-- nginx&#45;&gt;PERL -->
<g id="edge2" class="edge"><title>nginx&#45;&gt;PERL</title>
<path fill="none" stroke="#444444" stroke-opacity="0.333333" d="M858.947,-165.013C865.484,-168.968 872.115,-172.979 878.599,-176.903"/>
<polygon fill="#444444" fill-opacity="0.333333" stroke="#444444" stroke-opacity="0.333333" points="876.962,-180.003 887.33,-182.184 880.586,-174.013 876.962,-180.003"/>
</g>
<!-- nginx&#45;&gt;GeoIP -->
<g id="edge3" class="edge"><title>nginx&#45;&gt;GeoIP</title>
<path fill="none" stroke="#444444" stroke-opacity="0.333333" d="M700.164,-91.7288C700.007,-91.6703 699.849,-91.6118 699.691,-91.5534"/>
<polygon fill="#444444" fill-opacity="0.333333" stroke="#444444" stroke-opacity="0.333333" points="703.244,-89.1388 692.651,-88.9405 700.809,-95.7014 703.244,-89.1388"/>
</g>
<!-- nginx&#45;&gt;gperftools -->
<g id="edge4" class="edge"><title>nginx&#45;&gt;gperftools</title>
<path fill="none" stroke="#444444" stroke-opacity="0.333333" d="M849.357,-90.6128C864.639,-79.6156 881.212,-67.6896 895.95,-57.0832"/>
<polygon fill="#444444" fill-opacity="0.333333" stroke="#444444" stroke-opacity="0.333333" points="898.32,-59.6898 904.393,-51.0078 894.232,-54.008 898.32,-59.6898"/>
</g>
<!-- nginx&#45;&gt;libxslt -->
<g id="edge5" class="edge"><title>nginx&#45;&gt;libxslt</title>
<path fill="none" stroke="#444444" stroke-opacity="0.333333" d="M792.196,-164.947C785.243,-212.909 773.208,-295.916 766.344,-343.264"/>
<polygon fill="#444444" fill-opacity="0.333333" stroke="#444444" stroke-opacity="0.333333" points="762.851,-342.966 764.88,-353.365 769.778,-343.97 762.851,-342.966"/>
</g>
<!-- GeoIP&#45;&gt;BASE&#45;RUNTIME -->
<g id="edge6" class="edge"><title>GeoIP&#45;&gt;BASE&#45;RUNTIME</title>
<path fill="none" stroke="#444444" stroke-opacity="0.333333" d="M642.163,-90.4997C663.271,-127.712 702.48,-196.834 726.93,-239.938"/>
<polygon fill="#444444" fill-opacity="0.333333" stroke="#444444" stroke-opacity="0.333333" points="723.933,-241.749 731.911,-248.72 730.021,-238.295 723.933,-241.749"/>
</g>
<!-- gperftools&#45;&gt;PERL -->
<g id="edge7" class="edge"><title>gperftools&#45;&gt;PERL</title>
<path fill="none" stroke="#444444" stroke-opacity="0.333333" d="M939.312,-51.3149C938.599,-82.6543 937.391,-135.777 936.563,-172.176"/>
<polygon fill="#444444" fill-opacity="0.333333" stroke="#444444" stroke-opacity="0.333333" points="933.058,-172.352 936.33,-182.429 940.056,-172.511 933.058,-172.352"/>
</g>
<!-- gperftools&#45;&gt;libunwind -->
<g id="edge8" class="edge"><title>gperftools&#45;&gt;libunwind</title>
<path fill="none" stroke="#444444" stroke-opacity="0.333333" d="M955.9,-51.1264C984.294,-96.6799 1043.33,-191.401 1073.49,-239.788"/>
<polygon fill="#444444" fill-opacity="0.333333" stroke="#444444" stroke-opacity="0.333333" points="1070.69,-241.905 1078.95,-248.54 1076.63,-238.202 1070.69,-241.905"/>
</g>
<!-- libxslt&#45;&gt;BASE&#45;RUNTIME -->
<g id="edge9" class="edge"><title>libxslt&#45;&gt;BASE&#45;RUNTIME</title>
<path fill="none" stroke="#444444" stroke-opacity="0.333333" d="M757.953,-353.563C756.567,-342.497 754.913,-329.291 753.378,-317.033"/>
<polygon fill="#444444" fill-opacity="0.333333" stroke="#444444" stroke-opacity="0.333333" points="756.84,-316.516 752.125,-307.029 749.894,-317.386 756.84,-316.516"/>
</g>
<!-- libxslt&#45;&gt;automake -->
<g id="edge10" class="edge"><title>libxslt&#45;&gt;automake</title>
<path fill="none" stroke="#444444" stroke-opacity="0.333333" d="M847.693,-380.586C931.065,-382.027 1056.67,-384.198 1141.26,-385.66"/>
<polygon fill="#444444" fill-opacity="0.333333" stroke="#444444" stroke-opacity="0.333333" points="1141.31,-389.161 1151.37,-385.835 1141.43,-382.162 1141.31,-389.161"/>
</g>
<!-- libxslt&#45;&gt;autoconf -->
<g id="edge11" class="edge"><title>libxslt&#45;&gt;autoconf</title>
<path fill="none" stroke="#444444" stroke-opacity="0.333333" d="M803.032,-404.674C808.943,-408.284 815.028,-412.002 820.962,-415.627"/>
<polygon fill="#444444" fill-opacity="0.333333" stroke="#444444" stroke-opacity="0.333333" points="819.152,-418.622 829.51,-420.848 822.801,-412.649 819.152,-418.622"/>
</g>
<!-- libxslt&#45;&gt;python2 -->
<g id="edge12" class="edge"><title>libxslt&#45;&gt;python2</title>
<path fill="none" stroke="#444444" stroke-opacity="0.333333" d="M674.594,-384.007C622.363,-386.974 556.222,-390.731 504.913,-393.646"/>
<polygon fill="#444444" fill-opacity="0.333333" stroke="#444444" stroke-opacity="0.333333" points="504.643,-390.156 494.857,-394.217 505.04,-397.144 504.643,-390.156"/>
</g>
<!-- libunwind&#45;&gt;automake -->
<g id="edge13" class="edge"><title>libunwind&#45;&gt;automake</title>
<path fill="none" stroke="#444444" stroke-opacity="0.333333" d="M1117.02,-290.661C1139.78,-309.854 1173.57,-338.359 1198.55,-359.427"/>
<polygon fill="#444444" fill-opacity="0.333333" stroke="#444444" stroke-opacity="0.333333" points="1196.42,-362.212 1206.32,-365.985 1200.94,-356.862 1196.42,-362.212"/>
</g>
<!-- libunwind&#45;&gt;autoconf -->
<g id="edge14" class="edge"><title>libunwind&#45;&gt;autoconf</title>
<path fill="none" stroke="#444444" stroke-opacity="0.333333" d="M1064.15,-290.773C1022.84,-321.999 945.508,-380.462 900.048,-414.829"/>
<polygon fill="#444444" fill-opacity="0.333333" stroke="#444444" stroke-opacity="0.333333" points="897.813,-412.131 891.947,-420.953 902.034,-417.715 897.813,-412.131"/>
</g>
<!-- libunwind&#45;&gt;libtool -->
<g id="edge15" class="edge"><title>libunwind&#45;&gt;libtool</title>
<path fill="none" stroke="#444444" stroke-opacity="0.333333" d="M1106,-248.567C1117.7,-230.841 1134.49,-205.38 1147.19,-186.13"/>
<polygon fill="#444444" fill-opacity="0.333333" stroke="#444444" stroke-opacity="0.333333" points="1150.12,-188.048 1152.71,-177.773 1144.28,-184.193 1150.12,-188.048"/>
</g>
<!-- automake&#45;&gt;BASE&#45;RUNTIME -->
<g id="edge16" class="edge"><title>automake&#45;&gt;BASE&#45;RUNTIME</title>
<path fill="none" stroke="#444444" stroke-opacity="0.333333" d="M1151.47,-369.112C1079.57,-352.844 972.439,-328.604 886.703,-309.205"/>
<polygon fill="#444444" fill-opacity="0.333333" stroke="#444444" stroke-opacity="0.333333" points="887.415,-305.778 876.889,-306.984 885.87,-312.605 887.415,-305.778"/>
</g>
<!-- automake&#45;&gt;PERL -->
<g id="edge17" class="edge"><title>automake&#45;&gt;PERL</title>
<path fill="none" stroke="#444444" stroke-opacity="0.333333" d="M1196.11,-366.19C1145.9,-336.353 1053.41,-281.394 993.243,-245.641"/>
<polygon fill="#444444" fill-opacity="0.333333" stroke="#444444" stroke-opacity="0.333333" points="994.994,-242.611 984.609,-240.511 991.418,-248.628 994.994,-242.611"/>
</g>
<!-- automake&#45;&gt;automake -->
<g id="edge18" class="edge"><title>automake&#45;&gt;automake</title>
<path fill="none" stroke="#444444" stroke-opacity="0.333333" d="M1311.86,-393.172C1322.47,-392.157 1329.5,-390.173 1329.5,-387.22 1329.5,-385.374 1326.75,-383.907 1322.1,-382.818"/>
<polygon fill="#444444" fill-opacity="0.333333" stroke="#444444" stroke-opacity="0.333333" points="1322.27,-379.304 1311.86,-381.268 1321.22,-386.225 1322.27,-379.304"/>
</g>
<!-- automake&#45;&gt;autoconf -->
<g id="edge19" class="edge"><title>automake&#45;&gt;autoconf</title>
<path fill="none" stroke="#444444" stroke-opacity="0.333333" d="M1151.33,-399.172C1093.23,-407.833 1014.62,-419.553 954.327,-428.542"/>
<polygon fill="#444444" fill-opacity="0.333333" stroke="#444444" stroke-opacity="0.333333" points="953.809,-425.08 944.435,-430.016 954.842,-432.004 953.809,-425.08"/>
</g>
<!-- automake&#45;&gt;libtool -->
<g id="edge20" class="edge"><title>automake&#45;&gt;libtool</title>
<path fill="none" stroke="#444444" stroke-opacity="0.333333" d="M1225.37,-366.158C1213.4,-325.018 1186.91,-233.953 1173.39,-187.478"/>
<polygon fill="#444444" fill-opacity="0.333333" stroke="#444444" stroke-opacity="0.333333" points="1176.71,-186.364 1170.55,-177.74 1169.99,-188.319 1176.71,-186.364"/>
</g>
<!-- automake&#45;&gt;emacs -->
<g id="edge21" class="edge"><title>automake&#45;&gt;emacs</title>
<path fill="none" stroke="#444444" stroke-opacity="0.333333" d="M1207.05,-408.577C1164.58,-445.667 1077.4,-521.809 1031.97,-561.486"/>
<polygon fill="#444444" fill-opacity="0.333333" stroke="#444444" stroke-opacity="0.333333" points="1029.49,-559.008 1024.26,-568.222 1034.09,-564.28 1029.49,-559.008"/>
</g>
<!-- automake&#45;&gt;help2man -->
<g id="edge22" class="edge"><title>automake&#45;&gt;help2man</title>
<path fill="none" stroke="#444444" stroke-opacity="0.333333" d="M1188.27,-408.413C1165,-419.817 1136.27,-433.9 1112.44,-445.584"/>
<polygon fill="#444444" fill-opacity="0.333333" stroke="#444444" stroke-opacity="0.333333" points="1110.66,-442.555 1103.23,-450.099 1113.75,-448.84 1110.66,-442.555"/>
</g>
<!-- automake&#45;&gt;expect -->
<g id="edge23" class="edge"><title>automake&#45;&gt;expect</title>
<path fill="none" stroke="#444444" stroke-opacity="0.333333" d="M1260.73,-408.272C1289.82,-429.229 1334.46,-461.377 1365.16,-483.494"/>
<polygon fill="#444444" fill-opacity="0.333333" stroke="#444444" stroke-opacity="0.333333" points="1363.27,-486.444 1373.43,-489.448 1367.36,-480.764 1363.27,-486.444"/>
</g>
<!-- automake&#45;&gt;texinfo -->
<g id="edge24" class="edge"><title>automake&#45;&gt;texinfo</title>
<path fill="none" stroke="#444444" stroke-opacity="0.333333" d="M1311.66,-371.349C1327.8,-368.153 1344.65,-364.817 1360.42,-361.694"/>
<polygon fill="#444444" fill-opacity="0.333333" stroke="#444444" stroke-opacity="0.333333" points="1361.48,-365.052 1370.61,-359.677 1360.12,-358.186 1361.48,-365.052"/>
</g>
<!-- automake&#45;&gt;dejagnu -->
<g id="edge25" class="edge"><title>automake&#45;&gt;dejagnu</title>
<path fill="none" stroke="#444444" stroke-opacity="0.333333" d="M1311.73,-379.451C1376.05,-373.224 1465.4,-364.572 1526.9,-358.617"/>
<polygon fill="#444444" fill-opacity="0.333333" stroke="#444444" stroke-opacity="0.333333" points="1527.29,-362.096 1536.91,-357.648 1526.62,-355.129 1527.29,-362.096"/>
</g>
<!-- automake&#45;&gt;imake -->
<g id="edge26" class="edge"><title>automake&#45;&gt;imake</title>
<path fill="none" stroke="#444444" stroke-opacity="0.333333" d="M1274.75,-366.091C1342.99,-332.748 1475.15,-268.179 1545.78,-233.668"/>
<polygon fill="#444444" fill-opacity="0.333333" stroke="#444444" stroke-opacity="0.333333" points="1547.47,-236.742 1554.91,-229.207 1544.39,-230.453 1547.47,-236.742"/>
</g>
<!-- automake&#45;&gt;python&#45;virtualenv -->
<g id="edge27" class="edge"><title>automake&#45;&gt;python&#45;virtualenv</title>
<path fill="none" stroke="#444444" stroke-opacity="0.333333" d="M1243.26,-408.509C1272.89,-462.17 1350.62,-602.921 1383.58,-662.601"/>
<polygon fill="#444444" fill-opacity="0.333333" stroke="#444444" stroke-opacity="0.333333" points="1380.57,-664.396 1388.47,-671.458 1386.7,-661.012 1380.57,-664.396"/>
</g>
<!-- automake&#45;&gt;sharutils -->
<g id="edge28" class="edge"><title>automake&#45;&gt;sharutils</title>
<path fill="none" stroke="#444444" stroke-opacity="0.333333" d="M1304.55,-408.317C1362.13,-424.944 1442.06,-448.028 1499.9,-464.732"/>
<polygon fill="#444444" fill-opacity="0.333333" stroke="#444444" stroke-opacity="0.333333" points="1499.13,-468.152 1509.71,-467.564 1501.08,-461.427 1499.13,-468.152"/>
</g>
<!-- automake&#45;&gt;vala -->
<g id="edge29" class="edge"><title>automake&#45;&gt;vala</title>
<path fill="none" stroke="#444444" stroke-opacity="0.333333" d="M1233.62,-408.366C1237.14,-443.384 1244.18,-513.451 1248.13,-552.82"/>
<polygon fill="#444444" fill-opacity="0.333333" stroke="#444444" stroke-opacity="0.333333" points="1244.66,-553.224 1249.14,-562.824 1251.62,-552.524 1244.66,-553.224"/>
</g>
<!-- automake&#45;&gt;lzip -->
<g id="edge30" class="edge"><title>automake&#45;&gt;lzip</title>
<path fill="none" stroke="#444444" stroke-opacity="0.333333" d="M1257.8,-408.345C1310.97,-451.046 1431.01,-547.451 1488.06,-593.267"/>
<polygon fill="#444444" fill-opacity="0.333333" stroke="#444444" stroke-opacity="0.333333" points="1486.01,-596.115 1496,-599.648 1490.4,-590.657 1486.01,-596.115"/>
</g>
<!-- automake&#45;&gt;python&#45;docutils -->
<g id="edge31" class="edge"><title>automake&#45;&gt;python&#45;docutils</title>
<path fill="none" stroke="#444444" stroke-opacity="0.333333" d="M1239.75,-366.175C1251.56,-336.049 1273.32,-280.551 1286.55,-246.797"/>
<polygon fill="#444444" fill-opacity="0.333333" stroke="#444444" stroke-opacity="0.333333" points="1289.97,-247.659 1290.36,-237.071 1283.46,-245.104 1289.97,-247.659"/>
</g>
<!-- automake&#45;&gt;ncompress -->
<g id="edge32" class="edge"><title>automake&#45;&gt;ncompress</title>
<path fill="none" stroke="#444444" stroke-opacity="0.333333" d="M1240.47,-366.083C1265.5,-307.067 1336.17,-140.479 1364.57,-73.5484"/>
<polygon fill="#444444" fill-opacity="0.333333" stroke="#444444" stroke-opacity="0.333333" points="1367.91,-74.6294 1368.6,-64.0567 1361.47,-71.8956 1367.91,-74.6294"/>
</g>
<!-- automake&#45;&gt;java&#45;1.8.0&#45;openjdk -->
<g id="edge33" class="edge"><title>automake&#45;&gt;java&#45;1.8.0&#45;openjdk</title>
<path fill="none" stroke="#444444" stroke-opacity="0.333333" d="M1249.48,-365.991C1283.91,-325.337 1359.06,-236.597 1396.65,-192.207"/>
<polygon fill="#444444" fill-opacity="0.333333" stroke="#444444" stroke-opacity="0.333333" points="1399.43,-194.35 1403.22,-184.457 1394.08,-189.826 1399.43,-194.35"/>
</g>
<!-- automake&#45;&gt;cscope -->
<g id="edge34" class="edge"><title>automake&#45;&gt;cscope</title>
<path fill="none" stroke="#444444" stroke-opacity="0.333333" d="M1231.5,-366.157C1231.5,-305.109 1231.5,-127.98 1231.5,-58.0355"/>
<polygon fill="#444444" fill-opacity="0.333333" stroke="#444444" stroke-opacity="0.333333" points="1235,-57.7642 1231.5,-47.7642 1228,-57.7643 1235,-57.7642"/>
</g>
<!-- automake&#45;&gt;bison -->
<g id="edge35" class="edge"><title>automake&#45;&gt;bison</title>
<path fill="none" stroke="#444444" stroke-opacity="0.333333" d="M1224.53,-408.323C1206.38,-463.326 1157.61,-611.106 1137.09,-673.263"/>
<polygon fill="#444444" fill-opacity="0.333333" stroke="#444444" stroke-opacity="0.333333" points="1133.75,-672.224 1133.94,-682.817 1140.4,-674.418 1133.75,-672.224"/>
</g>
<!-- automake&#45;&gt;texlive -->
<g id="edge36" class="edge"><title>automake&#45;&gt;texlive</title>
<path fill="none" stroke="#444444" stroke-opacity="0.333333" d="M1233.71,-408.456C1240.1,-470.005 1258.65,-648.585 1265.97,-719.104"/>
<polygon fill="#444444" fill-opacity="0.333333" stroke="#444444" stroke-opacity="0.333333" points="1262.53,-719.874 1267.05,-729.459 1269.5,-719.151 1262.53,-719.874"/>
</g>
<!-- autoconf&#45;&gt;BASE&#45;RUNTIME -->
<g id="edge37" class="edge"><title>autoconf&#45;&gt;BASE&#45;RUNTIME</title>
<path fill="none" stroke="#444444" stroke-opacity="0.333333" d="M849.239,-420.878C830.48,-394.264 797.906,-348.052 774.88,-315.385"/>
<polygon fill="#444444" fill-opacity="0.333333" stroke="#444444" stroke-opacity="0.333333" points="777.575,-313.132 768.953,-306.975 771.853,-317.165 777.575,-313.132"/>
</g>
<!-- autoconf&#45;&gt;PERL -->
<g id="edge38" class="edge"><title>autoconf&#45;&gt;PERL</title>
<path fill="none" stroke="#444444" stroke-opacity="0.333333" d="M870.723,-420.713C882.763,-381.916 908.443,-299.165 923.657,-250.141"/>
<polygon fill="#444444" fill-opacity="0.333333" stroke="#444444" stroke-opacity="0.333333" points="927.023,-251.102 926.644,-240.514 920.338,-249.027 927.023,-251.102"/>
</g>
<!-- autoconf&#45;&gt;emacs -->
<g id="edge39" class="edge"><title>autoconf&#45;&gt;emacs</title>
<path fill="none" stroke="#444444" stroke-opacity="0.333333" d="M884.314,-463.045C909.07,-488.856 951.029,-532.604 977.853,-560.571"/>
<polygon fill="#444444" fill-opacity="0.333333" stroke="#444444" stroke-opacity="0.333333" points="975.543,-563.219 984.991,-568.013 980.595,-558.373 975.543,-563.219"/>
</g>
<!-- autoconf&#45;&gt;help2man -->
<g id="edge40" class="edge"><title>autoconf&#45;&gt;help2man</title>
<path fill="none" stroke="#444444" stroke-opacity="0.333333" d="M944.21,-452.619C958.582,-454.527 973.538,-456.512 987.834,-458.409"/>
<polygon fill="#444444" fill-opacity="0.333333" stroke="#444444" stroke-opacity="0.333333" points="987.736,-461.927 998.11,-459.773 988.657,-454.987 987.736,-461.927"/>
</g>
<!-- autoconf&#45;&gt;erlang -->
<g id="edge41" class="edge"><title>autoconf&#45;&gt;erlang</title>
<path fill="none" stroke="#444444" stroke-opacity="0.333333" d="M856.9,-463.429C840.739,-511.417 801.653,-627.476 783.539,-681.263"/>
<polygon fill="#444444" fill-opacity="0.333333" stroke="#444444" stroke-opacity="0.333333" points="780.185,-680.258 780.31,-690.852 786.819,-682.492 780.185,-680.258"/>
</g>
<!-- python2&#45;&gt;BASE&#45;RUNTIME -->
<g id="edge42" class="edge"><title>python2&#45;&gt;BASE&#45;RUNTIME</title>
<path fill="none" stroke="#444444" stroke-opacity="0.333333" d="M480.347,-377.179C530.12,-358.756 603.15,-331.723 660.43,-310.521"/>
<polygon fill="#444444" fill-opacity="0.333333" stroke="#444444" stroke-opacity="0.333333" points="661.68,-313.791 669.844,-307.037 659.25,-307.226 661.68,-313.791"/>
</g>
<!-- python2&#45;&gt;autoconf -->
<g id="edge43" class="edge"><title>python2&#45;&gt;autoconf</title>
<path fill="none" stroke="#444444" stroke-opacity="0.333333" d="M495.14,-405.4C571.131,-412.936 691.238,-424.846 773.65,-433.019"/>
<polygon fill="#444444" fill-opacity="0.333333" stroke="#444444" stroke-opacity="0.333333" points="773.463,-436.517 783.76,-434.021 774.154,-429.551 773.463,-436.517"/>
</g>
<!-- python2&#45;&gt;libX11 -->
<g id="edge44" class="edge"><title>python2&#45;&gt;libX11</title>
<path fill="none" stroke="#444444" stroke-opacity="0.333333" d="M396.56,-419.411C366.569,-443.076 317.998,-481.402 286.109,-506.564"/>
<polygon fill="#444444" fill-opacity="0.333333" stroke="#444444" stroke-opacity="0.333333" points="283.667,-504.032 277.985,-512.975 288.004,-509.528 283.667,-504.032"/>
</g>
<!-- python2&#45;&gt;tcl -->
<g id="edge45" class="edge"><title>python2&#45;&gt;tcl</title>
<path fill="none" stroke="#444444" stroke-opacity="0.333333" d="M403.157,-419.338C359.145,-465.257 254.646,-574.285 206.639,-624.372"/>
<polygon fill="#444444" fill-opacity="0.333333" stroke="#444444" stroke-opacity="0.333333" points="204.101,-621.962 199.708,-631.603 209.154,-626.806 204.101,-621.962"/>
</g>
<!-- python2&#45;&gt;bluez -->
<g id="edge46" class="edge"><title>python2&#45;&gt;bluez</title>
<path fill="none" stroke="#444444" stroke-opacity="0.333333" d="M418.387,-419.515C406.009,-472.583 373.713,-611.042 359.63,-671.418"/>
<polygon fill="#444444" fill-opacity="0.333333" stroke="#444444" stroke-opacity="0.333333" points="356.161,-670.88 357.298,-681.414 362.978,-672.47 356.161,-670.88"/>
</g>
<!-- python2&#45;&gt;mesa -->
<g id="edge47" class="edge"><title>python2&#45;&gt;mesa</title>
<path fill="none" stroke="#444444" stroke-opacity="0.333333" d="M429.323,-419.474C440.015,-457.351 462.402,-536.656 474.383,-579.096"/>
<polygon fill="#444444" fill-opacity="0.333333" stroke="#444444" stroke-opacity="0.333333" points="471.036,-580.125 477.122,-588.798 477.773,-578.224 471.036,-580.125"/>
</g>
<!-- python2&#45;&gt;tix -->
<g id="edge48" class="edge"><title>python2&#45;&gt;tix</title>
<path fill="none" stroke="#444444" stroke-opacity="0.333333" d="M401.399,-377.274C357.733,-335.468 260.074,-241.97 212.571,-196.491"/>
<polygon fill="#444444" fill-opacity="0.333333" stroke="#444444" stroke-opacity="0.333333" points="214.766,-193.747 205.122,-189.36 209.925,-198.803 214.766,-193.747"/>
</g>
<!-- python2&#45;&gt;tk -->
<g id="edge49" class="edge"><title>python2&#45;&gt;tk</title>
<path fill="none" stroke="#444444" stroke-opacity="0.333333" d="M423.75,-377.021C424.404,-343.191 425.681,-277.035 426.418,-238.844"/>
<polygon fill="#444444" fill-opacity="0.333333" stroke="#444444" stroke-opacity="0.333333" points="429.926,-238.476 426.62,-228.41 422.927,-238.341 429.926,-238.476"/>
</g>
<!-- python2&#45;&gt;python&#45;setuptools -->
<g id="edge50" class="edge"><title>python2&#45;&gt;python&#45;setuptools</title>
<path fill="none" stroke="#444444" stroke-opacity="0.333333" d="M373.484,-377.137C357.679,-370.435 340.152,-363.002 324.131,-356.208"/>
<polygon fill="#444444" fill-opacity="0.333333" stroke="#444444" stroke-opacity="0.333333" points="325.469,-352.974 314.896,-352.292 322.736,-359.418 325.469,-352.974"/>
</g>
<!-- python2&#45;&gt;systemtap -->
<g id="edge51" class="edge"><title>python2&#45;&gt;systemtap</title>
<path fill="none" stroke="#444444" stroke-opacity="0.333333" d="M416.502,-377.212C399.074,-323.512 352.967,-181.45 333.139,-120.358"/>
<polygon fill="#444444" fill-opacity="0.333333" stroke="#444444" stroke-opacity="0.333333" points="336.389,-119.033 329.973,-110.601 329.731,-121.194 336.389,-119.033"/>
</g>
<!-- python2&#45;&gt;python&#45;pip -->
<g id="edge52" class="edge"><title>python2&#45;&gt;python&#45;pip</title>
<path fill="none" stroke="#444444" stroke-opacity="0.333333" d="M351.459,-408.654C309.734,-414.675 256.785,-422.316 212.23,-428.747"/>
<polygon fill="#444444" fill-opacity="0.333333" stroke="#444444" stroke-opacity="0.333333" points="211.67,-425.291 202.273,-430.183 212.67,-432.219 211.67,-425.291"/>
</g>
<!-- python2&#45;&gt;valgrind -->
<g id="edge53" class="edge"><title>python2&#45;&gt;valgrind</title>
<path fill="none" stroke="#444444" stroke-opacity="0.333333" d="M351.693,-377.625C290.569,-360.003 203.02,-334.763 141.218,-316.946"/>
<polygon fill="#444444" fill-opacity="0.333333" stroke="#444444" stroke-opacity="0.333333" points="142.106,-313.56 131.528,-314.153 140.167,-320.286 142.106,-313.56"/>
</g>
<!-- nginx -->
<g id="node1" class="node"><title>nginx</title>
<text text-anchor="middle" x="797.57" y="-117.88" font-family="monospace" font-size="40.00" fill="green">nginx</text>
</g>
<!-- BASE&#45;RUNTIME -->
<g id="node2" class="node"><title>BASE&#45;RUNTIME</title>
<text text-anchor="middle" x="748.48" y="-270.43" font-family="monospace" font-size="30.00" fill="#666666">BASE&#45;RUNTIME</text>
</g>
<!-- PERL -->
<g id="node3" class="node"><title>PERL</title>
<text text-anchor="middle" x="935.67" y="-203.93" font-family="monospace" font-size="30.00" fill="#666666">PERL</text>
</g>
<!-- GeoIP -->
<g id="node4" class="node"><title>GeoIP</title>
<text text-anchor="middle" x="627.58" y="-58.79" font-family="monospace" font-size="25.00">GeoIP</text>
</g>
<!-- gperftools -->
<g id="node5" class="node"><title>gperftools</title>
<text text-anchor="middle" x="939.9" y="-19.456" font-family="monospace" font-size="25.00">gperftools</text>
</g>
<!-- libxslt -->
<g id="node6" class="node"><title>libxslt</title>
<text text-anchor="middle" x="761.15" y="-373.09" font-family="monospace" font-size="25.00">libxslt</text>
</g>
<!-- libunwind -->
<g id="node7" class="node"><title>libunwind</title>
<text text-anchor="middle" x="1092.1" y="-264.64" font-family="monospace" font-size="20.00" fill="#003380">libunwind</text>
</g>
<!-- automake -->
<g id="node8" class="node"><title>automake</title>
<text text-anchor="middle" x="1231.5" y="-382.22" font-family="monospace" font-size="20.00" fill="#003380">automake</text>
</g>
<!-- autoconf -->
<g id="node9" class="node"><title>autoconf</title>
<text text-anchor="middle" x="864.12" y="-436.99" font-family="monospace" font-size="20.00" fill="#003380">autoconf</text>
</g>
<!-- python2 -->
<g id="node10" class="node"><title>python2</title>
<text text-anchor="middle" x="423.34" y="-393.28" font-family="monospace" font-size="20.00" fill="#003380">python2</text>
</g>
<!-- libtool -->
<g id="node11" class="node"><title>libtool</title>
<text text-anchor="middle" x="1165.1" y="-155.19" font-family="monospace" font-size="16.00" fill="#0055d4">libtool</text>
</g>
<!-- emacs -->
<g id="node12" class="node"><title>emacs</title>
<text text-anchor="middle" x="1003" y="-582.99" font-family="monospace" font-size="16.00" fill="#0055d4">emacs</text>
</g>
<!-- help2man -->
<g id="node13" class="node"><title>help2man</title>
<text text-anchor="middle" x="1065.3" y="-464.89" font-family="monospace" font-size="16.00" fill="#0055d4">help2man</text>
</g>
<!-- expect -->
<g id="node14" class="node"><title>expect</title>
<text text-anchor="middle" x="1399.3" y="-504.28" font-family="monospace" font-size="16.00" fill="#0055d4">expect</text>
</g>
<!-- texinfo -->
<g id="node15" class="node"><title>texinfo</title>
<text text-anchor="middle" x="1430.7" y="-343.98" font-family="monospace" font-size="16.00" fill="#0055d4">texinfo</text>
</g>
<!-- dejagnu -->
<g id="node16" class="node"><title>dejagnu</title>
<text text-anchor="middle" x="1597.1" y="-348.02" font-family="monospace" font-size="16.00" fill="#0055d4">dejagnu</text>
</g>
<!-- imake -->
<g id="node17" class="node"><title>imake</title>
<text text-anchor="middle" x="1593" y="-206.8" font-family="monospace" font-size="16.00" fill="#0055d4">imake</text>
</g>
<!-- python&#45;virtualenv -->
<g id="node18" class="node"><title>python&#45;virtualenv</title>
<text text-anchor="middle" x="1398.7" y="-686.18" font-family="monospace" font-size="16.00" fill="#0055d4">python&#45;virtualenv</text>
</g>
<!-- sharutils -->
<g id="node19" class="node"><title>sharutils</title>
<text text-anchor="middle" x="1574" y="-482.33" font-family="monospace" font-size="16.00" fill="#0055d4">sharutils</text>
</g>
<!-- vala -->
<g id="node20" class="node"><title>vala</title>
<text text-anchor="middle" x="1251" y="-577.56" font-family="monospace" font-size="16.00" fill="#0055d4">vala</text>
</g>
<!-- lzip -->
<g id="node21" class="node"><title>lzip</title>
<text text-anchor="middle" x="1519.3" y="-614.56" font-family="monospace" font-size="16.00" fill="#0055d4">lzip</text>
</g>
<!-- python&#45;docutils -->
<g id="node22" class="node"><title>python&#45;docutils</title>
<text text-anchor="middle" x="1297.7" y="-214.56" font-family="monospace" font-size="16.00" fill="#0055d4">python&#45;docutils</text>
</g>
<!-- ncompress -->
<g id="node23" class="node"><title>ncompress</title>
<text text-anchor="middle" x="1376.6" y="-41.389" font-family="monospace" font-size="16.00" fill="#0055d4">ncompress</text>
</g>
<!-- java&#45;1.8.0&#45;openjdk -->
<g id="node24" class="node"><title>java&#45;1.8.0&#45;openjdk</title>
<text text-anchor="middle" x="1419" y="-162.02" font-family="monospace" font-size="16.00" fill="#0055d4">java&#45;1.8.0&#45;openjdk</text>
</g>
<!-- cscope -->
<g id="node25" class="node"><title>cscope</title>
<text text-anchor="middle" x="1231.5" y="-25.336" font-family="monospace" font-size="16.00" fill="#0055d4">cscope</text>
</g>
<!-- bison -->
<g id="node26" class="node"><title>bison</title>
<text text-anchor="middle" x="1127.8" y="-697.62" font-family="monospace" font-size="16.00" fill="#0055d4">bison</text>
</g>
<!-- texlive -->
<g id="node27" class="node"><title>texlive</title>
<text text-anchor="middle" x="1269" y="-744.44" font-family="monospace" font-size="16.00" fill="#0055d4">texlive</text>
</g>
<!-- erlang -->
<g id="node28" class="node"><title>erlang</title>
<text text-anchor="middle" x="774.03" y="-705.7" font-family="monospace" font-size="16.00" fill="#0055d4">erlang</text>
</g>
<!-- libX11 -->
<g id="node29" class="node"><title>libX11</title>
<text text-anchor="middle" x="254.33" y="-527.84" font-family="monospace" font-size="16.00" fill="#0055d4">libX11</text>
</g>
<!-- tcl -->
<g id="node30" class="node"><title>tcl</title>
<text text-anchor="middle" x="181.74" y="-646.55" font-family="monospace" font-size="16.00" fill="#0055d4">tcl</text>
</g>
<!-- bluez -->
<g id="node31" class="node"><title>bluez</title>
<text text-anchor="middle" x="352.9" y="-696.47" font-family="monospace" font-size="16.00" fill="#0055d4">bluez</text>
</g>
<!-- mesa -->
<g id="node32" class="node"><title>mesa</title>
<text text-anchor="middle" x="482.35" y="-603.52" font-family="monospace" font-size="16.00" fill="#0055d4">mesa</text>
</g>
<!-- tix -->
<g id="node33" class="node"><title>tix</title>
<text text-anchor="middle" x="185.59" y="-166.86" font-family="monospace" font-size="16.00" fill="#0055d4">tix</text>
</g>
<!-- tk -->
<g id="node34" class="node"><title>tk</title>
<text text-anchor="middle" x="426.98" y="-205.96" font-family="monospace" font-size="16.00" fill="#0055d4">tk</text>
</g>
<!-- python&#45;setuptools -->
<g id="node35" class="node"><title>python&#45;setuptools</title>
<text text-anchor="middle" x="271.08" y="-329.91" font-family="monospace" font-size="16.00" fill="#0055d4">python&#45;setuptools</text>
</g>
<!-- systemtap -->
<g id="node36" class="node"><title>systemtap</title>
<text text-anchor="middle" x="323.86" y="-87.967" font-family="monospace" font-size="16.00" fill="#0055d4">systemtap</text>
</g>
<!-- python&#45;pip -->
<g id="node37" class="node"><title>python&#45;pip</title>
<text text-anchor="middle" x="121.64" y="-438.02" font-family="monospace" font-size="16.00" fill="#0055d4">python&#45;pip</text>
</g>
<!-- valgrind -->
<g id="node38" class="node"><title>valgrind</title>
<text text-anchor="middle" x="67.175" y="-291.8" font-family="monospace" font-size="16.00" fill="#0055d4">valgrind</text>
</g>
</g>
<script type="text/javascript"><![CDATA[


  document.addEventListener('click', function(e) {
      e = e || window.event;
      var target = e.target || e.srcElement,
          text = target.textContent || text.innerText;   

          // reset all strokes
          var nodes = document.getElementsByClassName("edge");
          for (index = 0, len = nodes.length; index < len; ++index) {
            var title = nodes[index].childNodes[0].innerHTML.split("-&gt;");
              id = nodes[index].id;
              document.getElementById(id).childNodes[2].setAttribute("stroke-width", "1");
              document.getElementById(id).childNodes[2].setAttribute("stroke-opacity", "0.5");
              document.getElementById(id).childNodes[2].setAttribute("stroke", "#444444");
              document.getElementById(id).childNodes[4].setAttribute("stroke-width", "1");
              document.getElementById(id).childNodes[4].setAttribute("stroke-opacity", "0.5");
              document.getElementById(id).childNodes[4].setAttribute("stroke", "#444444");
            }
            // reset text highlight
            pkgs = document.getElementsByClassName("node");
            for (index2 = 0, len2 = pkgs.length; index2 < len2; ++index2) {
                target_id = pkgs[index2].id;
                document.getElementById(target_id).childNodes[2].setAttribute("font-weight", "normal");
            }

          // highlight deps
          var nodes = document.getElementsByClassName("edge");
          for (index = 0, len = nodes.length; index < len; ++index) {
            var title = nodes[index].childNodes[0].innerHTML.split("-&gt;");
            if (title[0] == text) {
              id = nodes[index].id;
              document.getElementById(id).childNodes[2].setAttribute("stroke-width", "5");
              document.getElementById(id).childNodes[2].setAttribute("stroke-opacity", "1");
              document.getElementById(id).childNodes[2].setAttribute("stroke", "#aa3333");
              document.getElementById(id).childNodes[4].setAttribute("stroke-width", "5");
              document.getElementById(id).childNodes[4].setAttribute("stroke-opacity", "1");
              document.getElementById(id).childNodes[4].setAttribute("stroke", "#aa3333");

            }
            if (title[1] == text) {
              id = nodes[index].id;
              document.getElementById(id).childNodes[2].setAttribute("stroke-width", "5");
              document.getElementById(id).childNodes[2].setAttribute("stroke-opacity", "1");
              document.getElementById(id).childNodes[2].setAttribute("stroke", "#333377");
              document.getElementById(id).childNodes[4].setAttribute("stroke-width", "5");
              document.getElementById(id).childNodes[4].setAttribute("stroke-opacity", "1");
              document.getElementById(id).childNodes[4].setAttribute("stroke", "#333377");
            }

            if (title[0] == text || title[1] == text) {
              pkgs = document.getElementsByClassName("node");
              for (index2 = 0, len2 = pkgs.length; index2 < len2; ++index2) {
                var pkg_name = pkgs[index2].childNodes[0].innerHTML;
                if (pkg_name == title[0] || pkg_name == title[1]) {
                  target_id = pkgs[index2].id;
                  document.getElementById(target_id).childNodes[2].setAttribute("font-weight", "bold");
                }
              }
            }
          }


  }, false);


]]></script>
</svg>
