<?xml version="1.0" encoding="UTF-8" standalone="no"?>
<!DOCTYPE svg PUBLIC "-//W3C//DTD SVG 1.1//EN"
 "http://www.w3.org/Graphics/SVG/1.1/DTD/svg11.dtd">
<!-- Generated by graphviz version 2.38.0 (20140413.2041)
 -->
<!-- Title: G Pages: 1 -->
<svg width="1235pt" height="1009pt"
 viewBox="0.00 0.00 1234.76 1008.64" xmlns="http://www.w3.org/2000/svg" xmlns:xlink="http://www.w3.org/1999/xlink">
<g id="graph0" class="graph" transform="scale(1 1) rotate(0) translate(102.868 849.068)">
<title>G</title>
<polygon fill="#dae2ff" stroke="none" points="-102.868,159.569 -102.868,-849.068 1131.9,-849.068 1131.9,159.569 -102.868,159.569"/>
<polygon fill="#fbb4ae" stroke="#fbb4ae" points="497.788,-82.4354 494.85,-79.9119 475.761,-64.1785 464.915,-54.6308 464.533,-40.7386 463.35,-14.5926 521.165,34.8965 565.116,74.316 698.529,138.116 712.761,137.747 722.164,137.736 728.871,138.226 754.637,140.751 770.651,143.511 772.449,7.62478 766.926,-24.9032 762.997,-21.6018 754.157,-18.8718 744.915,-21.7511 740.835,-25.1581 746.011,-29.6821 746.011,-29.6821 740.835,-25.1581 744.915,-21.7511 754.157,-18.8718 762.997,-21.6018 766.926,-24.9032 772.449,7.62478 770.651,143.511 789.404,147.676 812.277,153.888 817.959,155.569 947.453,76.2534 963.347,50.0893 1057.72,4.73548 1101.03,-75.3061 1105.55,-113.189 951.26,-127.073 951.131,33.0335 949.669,31.1089 939.27,18.2056 933.485,-127.754 942.094,-130.628 944.756,-133.381 943.715,-138.405 942.453,-139.652 934.514,-142.261 934.514,-142.261 942.453,-139.652 943.715,-138.405 944.756,-133.381 942.094,-130.628 933.485,-127.754 939.27,18.2056 949.669,31.1089 951.131,33.0335 951.26,-127.073 1105.55,-113.189 1110.46,-146.322 1113.76,-162.418 1112.63,-181.703 1011.88,-305.84 1012.49,-319.103 1015.25,-356.266 1023.24,-417.372 1127.9,-504.683 1125.12,-568.53 1120.34,-580.902 1111.11,-606.81 1084.24,-698.624 961.826,-782.411 944.302,-794.977 939.862,-798.443 925.477,-810.142 906.185,-827.73 897.24,-836.471 887.437,-840.011 892.365,-604.845 898.407,-601.401 901.402,-597.696 899.791,-595.898 893.296,-592.259 893.296,-592.259 899.791,-595.898 901.402,-597.696 898.407,-601.401 892.365,-604.845 887.437,-840.011 875.472,-844.555 875.461,-844.56 874.343,-845.068 872.176,-844.431 846.701,-832.731 833.302,-827.118 832.827,-728.369 832.827,-728.369 833.302,-827.118 808.052,-818.055 710.743,-785.103 698.058,-667.057 694.687,-620.779 693.854,-598.35 692.108,-586.228 684.203,-512.658 633.056,-473.197 675.453,-368.768 679.189,-355.055 685.621,-309.49 726.655,-192.237 724.01,-191.047 706.725,-183.774 603.207,-146.337 593.72,-142.072 564.102,-127.872 547.866,-118.215 523.92,-101.828 517.061,-96.9348 501.178,-85.1442 497.788,-82.4354 497.788,-82.4354"/>
<polygon fill="#fed9a6" stroke="#fed9a6" points="62.1575,-466.645 64.5446,-382.695 64.5446,-382.695 62.1575,-466.645 82.4775,-456.687 81.5633,-357.415 81.5633,-357.415 82.4775,-456.687 92.598,-452.373 96.8991,-450.675 102.669,-448.58 107.364,-306.375 113.614,-309.821 122.346,-309.821 128.273,-306.496 130.75,-303.57 128.113,-300.45 122.356,-297.247 114.941,-297.247 114.941,-297.247 122.356,-297.247 128.113,-300.45 130.75,-303.57 128.273,-306.496 122.346,-309.821 113.614,-309.821 107.364,-306.375 102.669,-448.58 120.067,-442.808 136.524,-438.399 144.7,-436.73 165.241,-433.834 169.186,-433.404 169.32,-405.68 169.32,-405.68 169.186,-433.404 191.586,-432.379 194.843,-432.126 198.711,-431.701 215.866,-429.263 224.097,-427.829 240.077,-424.02 242.58,-423.344 249.752,-421.175 261.102,-417.379 268.42,-414.698 280.805,-409.766 310.414,-396.102 418.398,-474.386 452.146,-469.8 464.48,-468.446 464.765,-468.43 477.777,-468.017 488.839,-467.363 495.779,-467.315 504.941,-467.492 506.075,-467.573 512.67,-467.684 526.376,-467.539 532.808,-467.807 535.999,-467.679 543.739,-467.77 551.125,-467.454 566.141,-467.595 571.862,-467.799 576.275,-467.714 604.639,-469.393 608.24,-469.793 633.056,-473.197 675.453,-368.768 679.189,-355.055 685.621,-309.49 684.825,-309.49 684.825,-309.49 685.621,-309.49 726.655,-192.237 724.01,-191.047 706.725,-183.774 603.207,-146.337 593.72,-142.072 564.102,-127.872 547.866,-118.215 523.92,-101.828 517.061,-96.9348 501.178,-85.1442 497.788,-82.4354 494.85,-79.9119 475.761,-64.1785 464.915,-54.6308 464.533,-40.7386 463.35,-14.5926 438.695,10.2918 406.984,43.9181 288.588,111.934 230.626,124.808 219.271,124.641 203.555,125.149 181.646,126.887 181.105,126.943 171.204,128.193 169.088,127.557 156.482,124.395 125.985,118.996 38.5317,105.705 -8.55972,-2.35203 -6.53387,-23.2389 -4.23432,-62.2345 -2.75827,-134.281 -1.42541,-141.054 -98.868,-260.13 -90.6383,-296.928 -88.7053,-306.888 -67.3098,-465.181 -48.6805,-477.787 1.99769,-499.885 62.1575,-466.645 62.1575,-466.645"/>
<polygon fill="#ccebc5" stroke="#ccebc5" points="28.1233,-566.412 19.1299,-540.996 1.99769,-499.885 62.1575,-466.645 82.4775,-456.687 92.598,-452.373 96.8991,-450.675 102.669,-448.58 120.067,-442.808 136.524,-438.399 144.7,-436.73 165.241,-433.834 169.186,-433.404 191.586,-432.379 194.843,-432.126 198.711,-431.701 215.866,-429.263 224.097,-427.829 240.077,-424.02 242.58,-423.344 249.752,-421.175 261.102,-417.379 268.42,-414.698 280.805,-409.766 310.414,-396.102 418.398,-474.386 452.146,-469.8 464.48,-468.446 464.765,-468.43 477.777,-468.017 488.839,-467.363 495.779,-467.315 504.941,-467.492 506.075,-467.573 512.67,-467.684 526.376,-467.539 532.808,-467.807 535.999,-467.679 543.739,-467.77 551.125,-467.454 566.141,-467.595 571.862,-467.799 576.275,-467.714 604.639,-469.393 608.24,-469.793 633.056,-473.197 684.203,-512.658 692.108,-586.228 569.837,-616.815 563.959,-624.3 560.117,-624.3 559.38,-624.072 555.969,-624.072 555.969,-624.072 559.38,-624.072 560.117,-624.3 563.959,-624.3 569.837,-616.815 692.108,-586.228 693.854,-598.35 694.687,-620.779 698.058,-667.057 710.743,-785.103 703.786,-787.363 570.968,-802.191 555.972,-804.59 550.438,-802.964 533.692,-798.892 528.263,-797.848 519.495,-794.802 510.78,-792.016 496.982,-788.363 484.95,-785.51 390.816,-765.796 353.982,-738.484 303.287,-740.248 276.997,-733.07 269.89,-731.321 264.876,-730.223 251.429,-727.996 230.752,-725.679 205.069,-724.871 195.304,-725.09 193.818,-725.163 116.642,-731.031 87.5867,-727.495 70.4956,-708.336 44.2249,-616.518 191.425,-580.307 198.471,-572.762 199.334,-572.319 202.614,-569.329 205.544,-567.958 208.56,-629.728 216.142,-567.688 217.218,-567.688 219.887,-570.303 228.287,-575.424 237.058,-577.241 242.301,-576.195 242.301,-576.195 237.058,-577.241 228.287,-575.424 219.887,-570.303 217.218,-567.688 216.142,-567.688 208.56,-629.728 205.544,-567.958 202.614,-569.329 199.334,-572.319 198.471,-572.762 191.425,-580.307 44.2249,-616.518 28.1233,-566.412 28.1233,-566.412"/>
<polyline fill="none" stroke="#000000" points="692.108,-586.228 693.854,-598.35 694.687,-620.779 698.058,-667.057 710.743,-785.103 808.052,-818.055 833.302,-827.118 846.701,-832.731 872.176,-844.431 874.343,-845.068 875.461,-844.56 875.472,-844.555 887.437,-840.011 897.24,-836.471 906.185,-827.73 925.477,-810.142 939.862,-798.443 944.302,-794.977 961.826,-782.411 1084.24,-698.624 1111.11,-606.81 1120.34,-580.902 1125.12,-568.53 1127.9,-504.683 1023.24,-417.372 1015.25,-356.266 1012.49,-319.103 1011.88,-305.84 1112.63,-181.703 1113.76,-162.418 1110.46,-146.322 1105.55,-113.189 1101.03,-75.3061 1057.72,4.73548 963.347,50.0893 947.453,76.2534 817.959,155.569 812.277,153.888 789.404,147.676 770.651,143.511 754.637,140.751 728.871,138.226 722.164,137.736 712.761,137.747 698.529,138.116 565.116,74.316 521.165,34.8965 463.35,-14.5926 464.533,-40.7386 464.915,-54.6308 475.761,-64.1785 494.85,-79.9119 497.788,-82.4354 501.178,-85.1442 517.061,-96.9348 523.92,-101.828 547.866,-118.215 564.102,-127.872 593.72,-142.072 603.207,-146.337 706.725,-183.774 724.01,-191.047 726.655,-192.237 685.621,-309.49 679.189,-355.055 675.453,-368.768 633.056,-473.197 684.203,-512.658 692.108,-586.228 "/>
<polyline fill="none" stroke="#000000" points="526.376,-467.539 532.808,-467.807 535.999,-467.679 543.739,-467.77 551.125,-467.454 566.141,-467.595 571.862,-467.799 576.275,-467.714 604.639,-469.393 608.24,-469.793 633.056,-473.197 675.453,-368.768 679.189,-355.055 685.621,-309.49 726.655,-192.237 724.01,-191.047 706.725,-183.774 603.207,-146.337 593.72,-142.072 564.102,-127.872 547.866,-118.215 523.92,-101.828 517.061,-96.9348 501.178,-85.1442 497.788,-82.4354 494.85,-79.9119 475.761,-64.1785 464.915,-54.6308 464.533,-40.7386 463.35,-14.5926 438.695,10.2918 406.984,43.9181 288.588,111.934 230.626,124.808 219.271,124.641 203.555,125.149 181.646,126.887 181.105,126.943 171.204,128.193 169.088,127.557 156.482,124.395 125.985,118.996 38.5317,105.705 -8.55972,-2.35203 -6.53387,-23.2389 -4.23432,-62.2345 -2.75827,-134.281 -1.42541,-141.054 -98.868,-260.13 -90.6383,-296.928 -88.7053,-306.888 -67.3098,-465.181 -48.6805,-477.787 1.99769,-499.885 62.1575,-466.645 82.4775,-456.687 92.598,-452.373 96.8991,-450.675 102.669,-448.58 120.067,-442.808 136.524,-438.399 144.7,-436.73 165.241,-433.834 169.186,-433.404 191.586,-432.379 194.843,-432.126 198.711,-431.701 215.866,-429.263 224.097,-427.829 240.077,-424.02 242.58,-423.344 249.752,-421.175 261.102,-417.379 268.42,-414.698 280.805,-409.766 310.414,-396.102 418.398,-474.386 452.146,-469.8 464.48,-468.446 464.765,-468.43 477.777,-468.017 488.839,-467.363 495.779,-467.315 504.941,-467.492 506.075,-467.573 512.67,-467.684 526.376,-467.539 "/>
<polyline fill="none" stroke="#000000" points="519.495,-794.802 528.263,-797.848 533.692,-798.892 550.438,-802.964 555.972,-804.59 570.968,-802.191 703.786,-787.363 710.743,-785.103 698.058,-667.057 694.687,-620.779 693.854,-598.35 692.108,-586.228 684.203,-512.658 633.056,-473.197 608.24,-469.793 604.639,-469.393 576.275,-467.714 571.862,-467.799 566.141,-467.595 551.125,-467.454 543.739,-467.77 535.999,-467.679 532.808,-467.807 526.376,-467.539 512.67,-467.684 506.075,-467.573 504.941,-467.492 495.779,-467.315 488.839,-467.363 477.777,-468.017 464.765,-468.43 464.48,-468.446 452.146,-469.8 418.398,-474.386 310.414,-396.102 280.805,-409.766 268.42,-414.698 261.102,-417.379 249.752,-421.175 242.58,-423.344 240.077,-424.02 224.097,-427.829 215.866,-429.263 198.711,-431.701 194.843,-432.126 191.586,-432.379 169.186,-433.404 165.241,-433.834 144.7,-436.73 136.524,-438.399 120.067,-442.808 102.669,-448.58 96.8991,-450.675 92.598,-452.373 82.4775,-456.687 62.1575,-466.645 1.99769,-499.885 19.1299,-540.996 28.1233,-566.412 44.2249,-616.518 70.4956,-708.336 87.5867,-727.495 116.642,-731.031 193.818,-725.163 195.304,-725.09 205.069,-724.871 230.752,-725.679 251.429,-727.996 264.876,-730.223 269.89,-731.321 276.997,-733.07 303.287,-740.248 353.982,-738.484 390.816,-765.796 484.95,-785.51 496.982,-788.363 510.78,-792.016 519.495,-794.802 "/>
<!-- httpd&#45;&gt;httpd -->
<g id="edge1" class="edge"><title>httpd&#45;&gt;httpd</title>
<path fill="none" stroke="#444444" stroke-opacity="0.333333" d="M897.371,-367.648C908.114,-366.57 915.05,-364.677 915.05,-361.97 915.05,-360.236 912.203,-358.836 907.333,-357.77"/>
<polygon fill="#444444" fill-opacity="0.333333" stroke="#444444" stroke-opacity="0.333333" points="907.777,-354.297 897.371,-356.292 906.749,-361.222 907.777,-354.297"/>
</g>
<!-- httpd&#45;&gt;BASE&#45;RUNTIME -->
<g id="edge2" class="edge"><title>httpd&#45;&gt;BASE&#45;RUNTIME</title>
<path fill="none" stroke="#444444" stroke-opacity="0.333333" d="M702.697,-343.024C698.454,-342.198 694.157,-341.362 689.825,-340.519"/>
<polygon fill="#444444" fill-opacity="0.333333" stroke="#444444" stroke-opacity="0.333333" points="690.147,-337.016 679.663,-338.541 688.81,-343.887 690.147,-337.016"/>
</g>
<!-- httpd&#45;&gt;generic&#45;logos -->
<g id="edge3" class="edge"><title>httpd&#45;&gt;generic&#45;logos</title>
<path fill="none" stroke="#444444" stroke-opacity="0.333333" d="M813.964,-399.164C830.786,-444.129 858.881,-519.231 875.345,-563.24"/>
<polygon fill="#444444" fill-opacity="0.333333" stroke="#444444" stroke-opacity="0.333333" points="872.089,-564.525 878.871,-572.665 878.645,-562.072 872.089,-564.525"/>
</g>
<!-- httpd&#45;&gt;apr -->
<g id="edge4" class="edge"><title>httpd&#45;&gt;apr</title>
<path fill="none" stroke="#444444" stroke-opacity="0.333333" d="M821.973,-324.766C847.366,-281.674 888.858,-211.262 913.502,-169.44"/>
<polygon fill="#444444" fill-opacity="0.333333" stroke="#444444" stroke-opacity="0.333333" points="916.581,-171.11 918.642,-160.717 910.55,-167.556 916.581,-171.11"/>
</g>
<!-- httpd&#45;&gt;mailcap -->
<g id="edge5" class="edge"><title>httpd&#45;&gt;mailcap</title>
<path fill="none" stroke="#444444" stroke-opacity="0.333333" d="M761.959,-398.979C709.172,-450.269 614.588,-542.168 564.115,-591.207"/>
<polygon fill="#444444" fill-opacity="0.333333" stroke="#444444" stroke-opacity="0.333333" points="561.436,-588.931 556.703,-598.41 566.314,-593.951 561.436,-588.931"/>
</g>
<!-- httpd&#45;&gt;apr&#45;util -->
<g id="edge6" class="edge"><title>httpd&#45;&gt;apr&#45;util</title>
<path fill="none" stroke="#444444" stroke-opacity="0.333333" d="M794.955,-324.671C786.031,-259.345 767.691,-125.093 758.937,-61.0141"/>
<polygon fill="#444444" fill-opacity="0.333333" stroke="#444444" stroke-opacity="0.333333" points="762.389,-60.4229 757.568,-50.9887 755.454,-61.3704 762.389,-60.4229"/>
</g>
<!-- generic&#45;logos&#45;&gt;BASE&#45;RUNTIME -->
<g id="edge7" class="edge"><title>generic&#45;logos&#45;&gt;BASE&#45;RUNTIME</title>
<path fill="none" stroke="#444444" stroke-opacity="0.333333" d="M856.702,-572.716C792.671,-521.064 648.014,-404.373 574.727,-345.256"/>
<polygon fill="#444444" fill-opacity="0.333333" stroke="#444444" stroke-opacity="0.333333" points="576.562,-342.238 566.581,-338.684 572.167,-347.687 576.562,-342.238"/>
</g>
<!-- apr&#45;&gt;BASE&#45;RUNTIME -->
<g id="edge8" class="edge"><title>apr&#45;&gt;BASE&#45;RUNTIME</title>
<path fill="none" stroke="#444444" stroke-opacity="0.333333" d="M889.403,-154.288C821.354,-183.706 690.257,-240.379 606.714,-276.495"/>
<polygon fill="#444444" fill-opacity="0.333333" stroke="#444444" stroke-opacity="0.333333" points="605.315,-273.287 597.525,-280.467 608.093,-279.712 605.315,-273.287"/>
</g>
<!-- mailcap&#45;&gt;BASE&#45;RUNTIME -->
<g id="edge9" class="edge"><title>mailcap&#45;&gt;BASE&#45;RUNTIME</title>
<path fill="none" stroke="#444444" stroke-opacity="0.333333" d="M530.216,-598.409C530.249,-543.488 530.327,-414.537 530.366,-349.09"/>
<polygon fill="#444444" fill-opacity="0.333333" stroke="#444444" stroke-opacity="0.333333" points="533.866,-348.776 530.372,-338.773 526.866,-348.771 533.866,-348.776"/>
</g>
<!-- mailcap&#45;&gt;nginx -->
<g id="edge10" class="edge"><title>mailcap&#45;&gt;nginx</title>
<path fill="none" stroke="#444444" stroke-opacity="0.333333" d="M443.574,-601.168C412.175,-594.55 376.328,-587.572 343.371,-581.642"/>
<polygon fill="#444444" fill-opacity="0.333333" stroke="#444444" stroke-opacity="0.333333" points="343.703,-578.146 333.244,-579.837 342.475,-585.038 343.703,-578.146"/>
</g>
<!-- apr&#45;util&#45;&gt;BASE&#45;RUNTIME -->
<g id="edge11" class="edge"><title>apr&#45;util&#45;&gt;BASE&#45;RUNTIME</title>
<path fill="none" stroke="#444444" stroke-opacity="0.333333" d="M733.834,-51.1631C694.084,-101.637 605.701,-213.862 559.618,-272.378"/>
<polygon fill="#444444" fill-opacity="0.333333" stroke="#444444" stroke-opacity="0.333333" points="556.843,-270.244 553.405,-280.266 562.342,-274.575 556.843,-270.244"/>
</g>
<!-- apr&#45;util&#45;&gt;apr -->
<g id="edge12" class="edge"><title>apr&#45;util&#45;&gt;apr</title>
<path fill="none" stroke="#444444" stroke-opacity="0.333333" d="M796.198,-51.1697C822.212,-67.0519 855.747,-87.5256 883.188,-104.279"/>
<polygon fill="#444444" fill-opacity="0.333333" stroke="#444444" stroke-opacity="0.333333" points="881.507,-107.354 891.866,-109.577 885.155,-101.379 881.507,-107.354"/>
</g>
<!-- nginx&#45;&gt;BASE&#45;RUNTIME -->
<g id="edge13" class="edge"><title>nginx&#45;&gt;BASE&#45;RUNTIME</title>
<path fill="none" stroke="#444444" stroke-opacity="0.333333" d="M278.689,-530.421C335.066,-480.937 433.961,-394.131 489.523,-345.361"/>
<polygon fill="#444444" fill-opacity="0.333333" stroke="#444444" stroke-opacity="0.333333" points="491.86,-347.967 497.067,-338.739 487.243,-342.706 491.86,-347.967"/>
</g>
<!-- nginx&#45;&gt;mailcap -->
<g id="edge14" class="edge"><title>nginx&#45;&gt;mailcap</title>
<path fill="none" stroke="#444444" stroke-opacity="0.333333" d="M333.317,-592.867C365.599,-599.545 401.525,-606.431 433.758,-612.114"/>
<polygon fill="#444444" fill-opacity="0.333333" stroke="#444444" stroke-opacity="0.333333" points="433.182,-615.566 443.635,-613.838 434.385,-608.67 433.182,-615.566"/>
</g>
<!-- nginx&#45;&gt;nginx -->
<g id="edge15" class="edge"><title>nginx&#45;&gt;nginx</title>
<path fill="none" stroke="#444444" stroke-opacity="0.333333" d="M333.551,-573.368C344.294,-572.29 351.23,-570.397 351.23,-567.69 351.23,-565.956 348.383,-564.556 343.513,-563.49"/>
<polygon fill="#444444" fill-opacity="0.333333" stroke="#444444" stroke-opacity="0.333333" points="343.957,-560.017 333.551,-562.012 342.929,-566.942 343.957,-560.017"/>
</g>
<!-- nginx&#45;&gt;gperftools -->
<g id="edge16" class="edge"><title>nginx&#45;&gt;gperftools</title>
<path fill="none" stroke="#444444" stroke-opacity="0.333333" d="M219.679,-530.686C196.877,-479.707 156.094,-388.527 133.764,-338.604"/>
<polygon fill="#444444" fill-opacity="0.333333" stroke="#444444" stroke-opacity="0.333333" points="136.833,-336.893 129.555,-329.193 130.443,-339.751 136.833,-336.893"/>
</g>
<!-- gperftools&#45;&gt;BASE&#45;RUNTIME -->
<g id="edge17" class="edge"><title>gperftools&#45;&gt;BASE&#45;RUNTIME</title>
<path fill="none" stroke="#444444" stroke-opacity="0.333333" d="M236.239,-305.259C273.312,-305.793 315.059,-306.393 355.203,-306.97"/>
<polygon fill="#444444" fill-opacity="0.333333" stroke="#444444" stroke-opacity="0.333333" points="355.322,-310.472 365.371,-307.117 355.422,-303.473 355.322,-310.472"/>
</g>
<!-- gperftools&#45;&gt;libunwind -->
<g id="edge18" class="edge"><title>gperftools&#45;&gt;libunwind</title>
<path fill="none" stroke="#444444" stroke-opacity="0.333333" d="M124.101,-277.609C135.294,-229.292 159.279,-125.745 171.301,-73.845"/>
<polygon fill="#444444" fill-opacity="0.333333" stroke="#444444" stroke-opacity="0.333333" points="174.761,-74.4206 173.608,-63.8887 167.941,-72.8409 174.761,-74.4206"/>
</g>
<!-- libunwind&#45;&gt;BASE&#45;RUNTIME -->
<g id="edge19" class="edge"><title>libunwind&#45;&gt;BASE&#45;RUNTIME</title>
<path fill="none" stroke="#444444" stroke-opacity="0.333333" d="M206.388,-63.9994C266.654,-109.662 409.506,-217.898 483.757,-274.157"/>
<polygon fill="#444444" fill-opacity="0.333333" stroke="#444444" stroke-opacity="0.333333" points="481.943,-277.174 492.027,-280.423 486.171,-271.594 481.943,-277.174"/>
</g>
<!-- httpd -->
<g id="node1" class="node"><title>httpd</title>
<text text-anchor="middle" x="800.05" y="-351.97" font-family="monospace" font-size="40.00" fill="green">httpd</text>
</g>
<!-- BASE&#45;RUNTIME -->
<g id="node2" class="node"><title>BASE&#45;RUNTIME</title>
<text text-anchor="middle" x="530.39" y="-301.99" font-family="monospace" font-size="30.00" fill="#666666">BASE&#45;RUNTIME</text>
</g>
<!-- generic&#45;logos -->
<g id="node3" class="node"><title>generic&#45;logos</title>
<text text-anchor="middle" x="888.48" y="-592.35" font-family="monospace" font-size="25.00">generic&#45;logos</text>
</g>
<!-- apr -->
<g id="node4" class="node"><title>apr</title>
<text text-anchor="middle" x="933.72" y="-129.13" font-family="monospace" font-size="25.00">apr</text>
</g>
<!-- mailcap -->
<g id="node5" class="node"><title>mailcap</title>
<text text-anchor="middle" x="530.2" y="-618.16" font-family="monospace" font-size="25.00">mailcap</text>
</g>
<!-- apr&#45;util -->
<g id="node6" class="node"><title>apr&#45;util</title>
<text text-anchor="middle" x="754.08" y="-19.456" font-family="monospace" font-size="25.00">apr&#45;util</text>
</g>
<!-- nginx -->
<g id="node7" class="node"><title>nginx</title>
<text text-anchor="middle" x="236.23" y="-557.69" font-family="monospace" font-size="40.00" fill="green">nginx</text>
</g>
<!-- gperftools -->
<g id="node8" class="node"><title>gperftools</title>
<text text-anchor="middle" x="118.09" y="-297.56" font-family="monospace" font-size="25.00">gperftools</text>
</g>
<!-- libunwind -->
<g id="node9" class="node"><title>libunwind</title>
<text text-anchor="middle" x="178.48" y="-37.854" font-family="monospace" font-size="20.00" fill="#003380">libunwind</text>
</g>
</g>
</svg>
