<?xml version="1.0" encoding="UTF-8" standalone="no"?>
<!DOCTYPE svg PUBLIC "-//W3C//DTD SVG 1.1//EN"
 "http://www.w3.org/Graphics/SVG/1.1/DTD/svg11.dtd">
<!-- Generated by graphviz version 2.38.0 (20140413.2041)
 -->
<!-- Title: G Pages: 1 -->
<svg width="824pt" height="738pt"
 viewBox="0.00 0.00 824.17 738.13" xmlns="http://www.w3.org/2000/svg" xmlns:xlink="http://www.w3.org/1999/xlink">
<g id="graph0" class="graph" transform="scale(1 1) rotate(0) translate(144.365 621.647)">
<title>G</title>
<polygon fill="#dae2ff" stroke="none" points="-144.365,116.48 -144.365,-621.647 679.804,-621.647 679.804,116.48 -144.365,116.48"/>
<polygon fill="#fbb4ae" stroke="#fbb4ae" points="625.686,-80.8068 626.108,-50.2715 627.449,-32.0713 623.557,-1.78243 527.353,95.0687 499.354,101.464 494.078,102.787 489.731,-4.60545 489.764,-5.87495 494.931,-61.1901 490.079,-69.4828 492.174,-70.5309 493.278,-71.5886 494.432,-73.6293 500.403,-79.1812 511.81,-179.571 503.783,-180.016 505.037,-282.382 498.402,-284.036 491.71,-289.066 499.32,-295.157 493.593,-336.599 490.973,-289.133 485.77,-289.133 485.77,-289.133 490.973,-289.133 493.593,-336.599 499.32,-295.157 491.71,-289.066 498.402,-284.036 505.037,-282.382 503.783,-180.016 511.81,-179.571 500.403,-79.1812 494.432,-73.6293 493.278,-71.5886 492.174,-70.5309 490.079,-69.4828 494.931,-61.1901 489.764,-5.87495 489.731,-4.60545 478.718,-68.1305 474.787,-68.1305 473.773,-68.3609 468.14,-68.3609 466.329,-68.7684 463.385,-68.7684 456.891,-21.8212 453.857,-68.7507 449.612,-68.7507 448.743,-68.5488 448.743,-68.5488 449.612,-68.7507 453.857,-68.7507 456.891,-21.8212 463.385,-68.7684 466.329,-68.7684 468.14,-68.3609 473.773,-68.3609 474.787,-68.1305 478.718,-68.1305 489.731,-4.60545 494.078,102.787 483.847,106.049 472.058,100.348 466.124,97.633 457.777,94.0318 452.732,91.1009 448.629,88.9598 430.244,80.4192 417.658,75.3065 412.672,73.4272 395.439,68.4163 395.472,-68.2554 396.748,-68.543 400.36,-68.543 400.37,-68.5452 405.01,-108.44 403.983,-182.653 410.858,-186.912 398.967,-226.574 398.967,-226.574 410.858,-186.912 403.983,-182.653 405.01,-108.44 400.37,-68.5452 400.36,-68.543 396.748,-68.543 395.472,-68.2554 389.597,-68.2554 388.046,-68.6088 383.767,-68.6088 383.767,-68.6088 388.046,-68.6088 389.597,-68.2554 395.472,-68.2554 395.439,68.4163 382.969,65.1526 379.239,64.286 366.4,62.0476 369.441,-68.324 363.466,-68.324 359.475,-9.37111 354.792,-68.6365 352.543,-68.6365 350.705,-65.4958 350.705,-65.4958 352.543,-68.6365 354.792,-68.6365 359.475,-9.37111 363.466,-68.324 369.441,-68.324 366.4,62.0476 359.875,61.1 343.51,59.6718 308.92,58.6609 237.961,102.215 215.581,103.953 203.357,105.266 203.147,105.295 198.335,17.3144 200.894,-29.1507 191.813,-22.3373 187.342,-21.3043 179.085,-23.3846 171.558,-29.0596 179.988,-35.3533 185.904,-36.7512 185.904,-36.7512 179.988,-35.3533 171.558,-29.0596 179.085,-23.3846 187.342,-21.3043 191.813,-22.3373 200.894,-29.1507 198.335,17.3144 203.147,105.295 175.304,110.784 172.585,111.561 169.677,112.48 151.164,105.916 114.31,94.0412 51.0669,26.0195 48.78,16.7274 35.7328,-29.352 27.8661,-54.1677 27.2458,-55.9443 22.5924,-68.1422 10.9465,-72.1463 -38.8615,-87.8661 -52.7152,-104.008 -111.447,-202.265 -137.384,-239.755 -140.33,-246.632 20.1821,-223.555 24.7219,-219.5 24.4256,-218.254 26.488,-210.99 34.0687,-208.915 38.9129,-210.145 38.9129,-210.145 34.0687,-208.915 26.488,-210.99 24.4256,-218.254 24.7219,-219.5 26.6999,-221.011 32.7377,-222.537 32.7377,-222.537 26.6999,-221.011 24.7219,-219.5 20.1821,-223.555 -140.33,-246.632 -140.365,-246.709 -134.62,-282.276 -89.7206,-357.052 -92.7687,-384.393 -71.0045,-438.37 -51.724,-503.411 0.484416,-557.33 53.843,-563.12 77.2534,-566.359 87.1808,-568.316 92.5496,-569.532 102.068,-567.549 97.8372,-495.317 97.8372,-495.317 102.068,-567.549 102.979,-567.412 114.695,-565.988 114.842,-493.804 118.678,-444.625 124.594,-444.625 133.091,-440.102 134.297,-438.918 129.918,-434.234 125.982,-432.298 125.982,-432.298 129.918,-434.234 134.297,-438.918 133.091,-440.102 124.594,-444.625 118.678,-444.625 114.842,-493.804 114.695,-565.988 120.63,-565.607 139.012,-565.483 146.964,-565.659 147.509,-484.737 147.509,-484.737 146.964,-565.659 157.345,-566.487 167.849,-567.628 177.877,-569.005 178.336,-569.081 207.052,-574.668 227.856,-570.906 305.816,-607.244 315.592,-610.314 324.613,-609.419 344.654,-608.022 345.367,-607.994 359.311,-608.263 365.467,-608.565 383.61,-610.53 426.083,-617.647 537.111,-512.783 535.721,-480.697 536.042,-459.243 536.493,-449.009 540.157,-445.88 621.655,-382.54 673.671,-322.546 675.804,-320.248 670.433,-273.251 666.922,-193.62 628.803,-156.732 625.898,-93.8043 625.686,-80.8068 625.686,-80.8068"/>
<polyline fill="none" stroke="#000000" points="207.052,-574.668 227.856,-570.906 305.816,-607.244 315.592,-610.314 324.613,-609.419 344.654,-608.022 345.367,-607.994 359.311,-608.263 365.467,-608.565 383.61,-610.53 426.083,-617.647 537.111,-512.783 535.721,-480.697 536.042,-459.243 536.493,-449.009 540.157,-445.88 621.655,-382.54 673.671,-322.546 675.804,-320.248 670.433,-273.251 666.922,-193.62 628.803,-156.732 625.898,-93.8043 625.686,-80.8068 626.108,-50.2715 627.449,-32.0713 623.557,-1.78243 527.353,95.0687 499.354,101.464 494.078,102.787 483.847,106.049 472.058,100.348 466.124,97.633 457.777,94.0318 452.732,91.1009 448.629,88.9598 430.244,80.4192 417.658,75.3065 412.672,73.4272 395.439,68.4163 382.969,65.1526 379.239,64.286 366.4,62.0476 359.875,61.1 343.51,59.6718 308.92,58.6609 237.961,102.215 215.581,103.953 203.357,105.266 203.147,105.295 175.304,110.784 172.585,111.561 169.677,112.48 151.164,105.916 114.31,94.0412 51.0669,26.0195 48.78,16.7274 35.7328,-29.352 27.8661,-54.1677 27.2458,-55.9443 22.5924,-68.1422 10.9465,-72.1463 -38.8615,-87.8661 -52.7152,-104.008 -111.447,-202.265 -137.384,-239.755 -140.33,-246.632 -140.365,-246.709 -134.62,-282.276 -89.7206,-357.052 -92.7687,-384.393 -71.0045,-438.37 -51.724,-503.411 0.484416,-557.33 53.843,-563.12 77.2534,-566.359 87.1808,-568.316 92.5496,-569.532 102.068,-567.549 102.979,-567.412 114.695,-565.988 120.63,-565.607 139.012,-565.483 146.964,-565.659 157.345,-566.487 167.849,-567.628 177.877,-569.005 178.336,-569.081 207.052,-574.668 "/>
<!-- nginx&#45;&gt;BASE&#45;RUNTIME -->
<g id="edge1" class="edge"><title>nginx&#45;&gt;BASE&#45;RUNTIME</title>
<path fill="none" stroke="#444444" stroke-opacity="0.333333" d="M301.076,-215.143C327.36,-183.289 365.041,-137.624 391.296,-105.806"/>
<polygon fill="#444444" fill-opacity="0.333333" stroke="#444444" stroke-opacity="0.333333" points="394.046,-107.972 397.711,-98.0315 388.647,-103.517 394.046,-107.972"/>
</g>
<!-- nginx&#45;&gt;GeoIP -->
<g id="edge2" class="edge"><title>nginx&#45;&gt;GeoIP</title>
<path fill="none" stroke="#444444" stroke-opacity="0.333333" d="M285.012,-289.307C301.334,-330.794 327.598,-397.548 343.629,-438.294"/>
<polygon fill="#444444" fill-opacity="0.333333" stroke="#444444" stroke-opacity="0.333333" points="340.456,-439.79 347.374,-447.814 346.97,-437.227 340.456,-439.79"/>
</g>
<!-- nginx&#45;&gt;PERL -->
<g id="edge3" class="edge"><title>nginx&#45;&gt;PERL</title>
<path fill="none" stroke="#444444" stroke-opacity="0.333333" d="M256.422,-215.149C240.988,-174.28 216.293,-108.89 200.656,-67.4823"/>
<polygon fill="#444444" fill-opacity="0.333333" stroke="#444444" stroke-opacity="0.333333" points="203.886,-66.1295 197.079,-58.0109 197.338,-68.6026 203.886,-66.1295"/>
</g>
<!-- nginx&#45;&gt;gd -->
<g id="edge4" class="edge"><title>nginx&#45;&gt;gd</title>
<path fill="none" stroke="#444444" stroke-opacity="0.333333" d="M173.275,-237.278C139.58,-232.079 103.497,-226.511 76.3976,-222.33"/>
<polygon fill="#444444" fill-opacity="0.333333" stroke="#444444" stroke-opacity="0.333333" points="76.8918,-218.865 66.475,-220.799 75.8243,-225.783 76.8918,-218.865"/>
</g>
<!-- nginx&#45;&gt;gperftools -->
<g id="edge5" class="edge"><title>nginx&#45;&gt;gperftools</title>
<path fill="none" stroke="#444444" stroke-opacity="0.333333" d="M240.656,-289.483C213.654,-323.219 174.216,-372.493 148.211,-404.984"/>
<polygon fill="#444444" fill-opacity="0.333333" stroke="#444444" stroke-opacity="0.333333" points="145.421,-402.869 141.905,-412.863 150.886,-407.243 145.421,-402.869"/>
</g>
<!-- nginx&#45;&gt;libxslt -->
<g id="edge6" class="edge"><title>nginx&#45;&gt;libxslt</title>
<path fill="none" stroke="#444444" stroke-opacity="0.333333" d="M367.521,-267.669C380.977,-269.804 394.798,-271.996 408.247,-274.129"/>
<polygon fill="#444444" fill-opacity="0.333333" stroke="#444444" stroke-opacity="0.333333" points="408.022,-277.637 418.447,-275.747 409.118,-270.724 408.022,-277.637"/>
</g>
<!-- nginx -->
<g id="node1" class="node"><title>nginx</title>
<text text-anchor="middle" x="270.44" y="-242.27" font-family="monospace" font-size="40.00" fill="green">nginx</text>
</g>
<!-- BASE&#45;RUNTIME -->
<g id="node2" class="node"><title>BASE&#45;RUNTIME</title>
<text text-anchor="middle" x="421.83" y="-61.302" font-family="monospace" font-size="30.00" fill="#666666">BASE&#45;RUNTIME</text>
</g>
<!-- GeoIP -->
<g id="node3" class="node"><title>GeoIP</title>
<text text-anchor="middle" x="357.5" y="-467.55" font-family="monospace" font-size="25.00">GeoIP</text>
</g>
<!-- PERL -->
<g id="node4" class="node"><title>PERL</title>
<text text-anchor="middle" x="186.12" y="-21.491" font-family="monospace" font-size="30.00" fill="#666666">PERL</text>
</g>
<!-- gd -->
<g id="node5" class="node"><title>gd</title>
<text text-anchor="middle" x="33.234" y="-209.67" font-family="monospace" font-size="25.00">gd</text>
</g>
<!-- gperftools -->
<g id="node6" class="node"><title>gperftools</title>
<text text-anchor="middle" x="121.49" y="-432.37" font-family="monospace" font-size="25.00">gperftools</text>
</g>
<!-- libxslt -->
<g id="node7" class="node"><title>libxslt</title>
<text text-anchor="middle" x="504.96" y="-283.47" font-family="monospace" font-size="25.00">libxslt</text>
</g>
</g>
</svg>
